ChironHeiHKVF-weight1000-Master.ufo
<glyph name="uni116E" format="2">
  <advance height="1000" width="920"/>
  <unicode hex="116E"/>
  <outline>
    <contour>
      <point x="35" y="422" type="line"/>
      <point x="35" y="301" type="line"/>
      <point x="884" y="301" type="line"/>
      <point x="884" y="422" type="line"/>
    </contour>
    <contour>
      <point x="382" y="385" type="line"/>
      <point x="382" y="243" type="line"/>
      <point x="536" y="243" type="line"/>
      <point x="536" y="385" type="line"/>
    </contour>
  </outline>
</glyph>
<glyph name="uni3AD7" format="2">
  <advance height="1000" width="1000"/>
  <unicode hex="3AD7"/>
  <outline>
    <contour>
      <point x="166" y="414" type="line"/>
      <point x="166" y="300" type="line"/>
      <point x="707" y="300" type="line"/>
      <point x="707" y="414" type="line"/>
    </contour>
    <contour>
      <point x="50" y="217" type="line"/>
      <point x="50" y="99" type="line"/>
      <point x="951" y="99" type="line"/>
      <point x="951" y="217" type="line"/>
    </contour>
    <contour>
      <point x="434" y="257" type="line"/>
      <point x="434" y="51" type="line" smooth="yes"/>
      <point x="434" y="37"/>
      <point x="428" y="34"/>
      <point x="409" y="34" type="curve"/>
      <point x="390" y="33"/>
      <point x="312" y="33"/>
      <point x="260" y="36" type="curve"/>
      <point x="281" y="2"/>
      <point x="306" y="-52"/>
      <point x="315" y="-91" type="curve"/>
      <point x="395" y="-91"/>
      <point x="460" y="-90"/>
      <point x="512" y="-72" type="curve" smooth="yes"/>
      <point x="564" y="-53"/>
      <point x="581" y="-21"/>
      <point x="581" y="46" type="curve" smooth="yes"/>
      <point x="581" y="257" type="line"/>
    </contour>
    <contour>
      <point x="676" y="414" type="line"/>
      <point x="676" y="389" type="line"/>
      <point x="632" y="346"/>
      <point x="530" y="288"/>
      <point x="434" y="257" type="curve"/>
      <point x="453" y="238"/>
      <point x="486" y="202"/>
      <point x="502" y="179" type="curve"/>
      <point x="628" y="219"/>
      <point x="744" y="282"/>
      <point x="831" y="349" type="curve"/>
      <point x="744" y="420" type="line"/>
      <point x="713" y="414" type="line"/>
    </contour>
    <contour>
      <point x="281" y="588" type="line"/>
      <point x="714" y="588" type="line"/>
      <point x="714" y="558" type="line"/>
      <point x="281" y="558" type="line"/>
    </contour>
    <contour>
      <point x="281" y="712" type="line"/>
      <point x="714" y="712" type="line"/>
      <point x="714" y="682" type="line"/>
      <point x="281" y="682" type="line"/>
    </contour>
    <contour>
      <point x="138" y="817" type="line"/>
      <point x="138" y="453" type="line"/>
      <point x="865" y="453" type="line"/>
      <point x="865" y="817" type="line"/>
    </contour>
  </outline>
</glyph>
<glyph name="uni4E86" format="2">
  <advance height="1000" width="1000"/>
  <unicode hex="4E86"/>
  <outline>
    <contour>
      <point x="429" y="500" type="line"/>
      <point x="429" y="69" type="line" smooth="yes"/>
      <point x="429" y="52"/>
      <point x="421" y="47"/>
      <point x="399" y="47" type="curve" smooth="yes"/>
      <point x="376" y="47"/>
      <point x="291" y="47"/>
      <point x="227" y="50" type="curve"/>
      <point x="250" y="11"/>
      <point x="277" y="-54"/>
      <point x="285" y="-97" type="curve"/>
      <point x="378" y="-98"/>
      <point x="453" y="-95"/>
      <point x="509" y="-73" type="curve" smooth="yes"/>
      <point x="565" y="-52"/>
      <point x="583" y="-13"/>
      <point x="583" y="65" type="curve" smooth="yes"/>
      <point x="583" y="500" type="line"/>
    </contour>
    <contour>
      <point x="92" y="790" type="line"/>
      <point x="92" y="646" type="line"/>
      <point x="777" y="646" type="line"/>
      <point x="777" y="790" type="line"/>
    </contour>
    <contour>
      <point x="734" y="790" type="line"/>
      <point x="734" y="754" type="line"/>
      <point x="683" y="682"/>
      <point x="548" y="565"/>
      <point x="429" y="500" type="curve"/>
      <point x="458" y="475"/>
      <point x="504" y="426"/>
      <point x="526" y="395" type="curve"/>
      <point x="669" y="472"/>
      <point x="818" y="598"/>
      <point x="924" y="711" type="curve"/>
      <point x="808" y="798" type="line"/>
      <point x="775" y="790" type="line"/>
    </contour>
  </outline>
</glyph>
<glyph name="uni50DD" format="2">
  <advance height="1000" width="1000"/>
  <unicode hex="50DD"/>
  <outline>
    <contour>
      <point x="379" y="828" type="line"/>
      <point x="379" y="725" type="line"/>
      <point x="812" y="725" type="line"/>
      <point x="812" y="699" type="line"/>
      <point x="379" y="699" type="line"/>
      <point x="379" y="596" type="line"/>
      <point x="945" y="596" type="line"/>
      <point x="945" y="828" type="line"/>
    </contour>
    <contour>
      <point x="313" y="828" type="line"/>
      <point x="313" y="521" type="line" smooth="yes"/>
      <point x="313" y="364"/>
      <point x="306" y="145"/>
      <point x="209" y="-3" type="curve"/>
      <point x="242" y="-15"/>
      <point x="299" y="-48"/>
      <point x="324" y="-69" type="curve"/>
      <point x="426" y="91"/>
      <point x="442" y="348"/>
      <point x="442" y="521" type="curve" smooth="yes"/>
      <point x="442" y="828" type="line"/>
    </contour>
    <contour>
      <point x="504" y="571" type="line"/>
      <point x="504" y="490" type="line"/>
      <point x="838" y="490" type="line"/>
      <point x="838" y="571" type="line"/>
    </contour>
    <contour>
      <point x="462" y="462" type="line"/>
      <point x="462" y="373" type="line"/>
      <point x="953" y="373" type="line"/>
      <point x="953" y="462" type="line"/>
    </contour>
    <contour>
      <point x="790" y="571" type="line"/>
      <point x="790" y="553" type="line"/>
      <point x="761" y="528"/>
      <point x="699" y="495"/>
      <point x="650" y="475" type="curve"/>
      <point x="663" y="462"/>
      <point x="688" y="434"/>
      <point x="700" y="417" type="curve"/>
      <point x="770" y="443"/>
      <point x="846" y="479"/>
      <point x="907" y="516" type="curve"/>
      <point x="843" y="577" type="line"/>
      <point x="819" y="571" type="line"/>
    </contour>
    <contour>
      <point x="400" y="122" type="curve"/>
      <point x="419" y="25" type="line"/>
      <point x="494" y="32"/>
      <point x="586" y="41"/>
      <point x="676" y="50" type="curve"/>
      <point x="674" y="142" type="line"/>
      <point x="572" y="134"/>
      <point x="472" y="126"/>
    </contour>
    <contour>
      <point x="650" y="475" type="line"/>
      <point x="650" y="360" type="line" smooth="yes"/>
      <point x="650" y="350"/>
      <point x="646" y="347"/>
      <point x="634" y="347" type="curve"/>
      <point x="624" y="346"/>
      <point x="581" y="346"/>
      <point x="550" y="348" type="curve"/>
      <point x="562" y="323"/>
      <point x="577" y="287"/>
      <point x="583" y="259" type="curve"/>
      <point x="644" y="259"/>
      <point x="690" y="259"/>
      <point x="726" y="271" type="curve" smooth="yes"/>
      <point x="762" y="284"/>
      <point x="772" y="306"/>
      <point x="772" y="355" type="curve" smooth="yes"/>
      <point x="772" y="475" type="line"/>
    </contour>
    <contour>
      <point x="440" y="281" type="line"/>
      <point x="440" y="194" type="line"/>
      <point x="630" y="194" type="line"/>
      <point x="630" y="281" type="line"/>
    </contour>
    <contour>
      <point x="578" y="281" type="line"/>
      <point x="578" y="263" type="line"/>
      <point x="561" y="238"/>
      <point x="526" y="200"/>
      <point x="498" y="177" type="curve"/>
      <point x="512" y="164"/>
      <point x="539" y="135"/>
      <point x="551" y="117" type="curve"/>
      <point x="599" y="147"/>
      <point x="652" y="191"/>
      <point x="693" y="231" type="curve"/>
      <point x="629" y="287" type="line"/>
      <point x="606" y="281" type="line"/>
    </contour>
    <contour>
      <point x="498" y="177" type="line"/>
      <point x="498" y="16" type="line" smooth="yes"/>
      <point x="498" y="8"/>
      <point x="495" y="5"/>
      <point x="486" y="5" type="curve" smooth="yes"/>
      <point x="478" y="5"/>
      <point x="452" y="5"/>
      <point x="430" y="6" type="curve"/>
      <point x="442" y="-21"/>
      <point x="454" y="-58"/>
      <point x="458" y="-86" type="curve"/>
      <point x="506" y="-87"/>
      <point x="543" y="-86"/>
      <point x="573" y="-72" type="curve" smooth="yes"/>
      <point x="604" y="-57"/>
      <point x="610" y="-33"/>
      <point x="610" y="13" type="curve" smooth="yes"/>
      <point x="610" y="177" type="line"/>
    </contour>
    <contour>
      <point x="698" y="281" type="line"/>
      <point x="698" y="194" type="line"/>
      <point x="901" y="194" type="line"/>
      <point x="901" y="281" type="line"/>
    </contour>
    <contour>
      <point x="686" y="131" type="line"/>
      <point x="686" y="37" type="line"/>
      <point x="975" y="37" type="line"/>
      <point x="975" y="131" type="line"/>
    </contour>
    <contour>
      <point x="866" y="281" type="line"/>
      <point x="866" y="263" type="line"/>
      <point x="848" y="238"/>
      <point x="809" y="200"/>
      <point x="777" y="177" type="curve"/>
      <point x="791" y="164"/>
      <point x="818" y="134"/>
      <point x="831" y="116" type="curve"/>
      <point x="882" y="146"/>
      <point x="939" y="189"/>
      <point x="983" y="230" type="curve"/>
      <point x="917" y="287" type="line"/>
      <point x="894" y="281" type="line"/>
    </contour>
    <contour>
      <point x="777" y="177" type="line"/>
      <point x="777" y="12" type="line" smooth="yes"/>
      <point x="777" y="3"/>
      <point x="774" y="1"/>
      <point x="764" y="1" type="curve" smooth="yes"/>
      <point x="755" y="1"/>
      <point x="724" y="1"/>
      <point x="699" y="2" type="curve"/>
      <point x="712" y="-26"/>
      <point x="725" y="-66"/>
      <point x="729" y="-96" type="curve"/>
      <point x="782" y="-96"/>
      <point x="822" y="-96"/>
      <point x="854" y="-81" type="curve" smooth="yes"/>
      <point x="887" y="-65"/>
      <point x="894" y="-40"/>
      <point x="894" y="9" type="curve" smooth="yes"/>
      <point x="894" y="177" type="line"/>
    </contour>
    <contour>
      <point x="184" y="853" type="line"/>
      <point x="147" y="721"/>
      <point x="84" y="589"/>
      <point x="14" y="502" type="curve"/>
      <point x="35" y="464"/>
      <point x="67" y="378"/>
      <point x="76" y="343" type="curve"/>
      <point x="173" y="460"/>
      <point x="260" y="647"/>
      <point x="313" y="814" type="curve"/>
    </contour>
    <contour>
      <point x="110" y="543" type="line"/>
      <point x="110" y="-95" type="line"/>
      <point x="236" y="-95" type="line"/>
      <point x="236" y="665" type="line"/>
      <point x="234" y="667" type="line"/>
    </contour>
  </outline>
</glyph>
<glyph name="uni52D0" format="2">
  <advance height="1000" width="1000"/>
  <unicode hex="52D0"/>
  <outline>
    <contour>
      <point x="96" y="815" type="line"/>
      <point x="96" y="699" type="line"/>
      <point x="439" y="699" type="line"/>
      <point x="439" y="815" type="line"/>
    </contour>
    <contour>
      <point x="52" y="624" type="line"/>
      <point x="52" y="503" type="line"/>
      <point x="534" y="503" type="line"/>
      <point x="534" y="624" type="line"/>
    </contour>
    <contour>
      <point x="242" y="658" type="line"/>
      <point x="242" y="471" type="line" smooth="yes"/>
      <point x="242" y="459"/>
      <point x="237" y="457"/>
      <point x="222" y="456" type="curve"/>
      <point x="208" y="456"/>
      <point x="152" y="456"/>
      <point x="111" y="458" type="curve"/>
      <point x="131" y="427"/>
      <point x="156" y="377"/>
      <point x="166" y="341" type="curve"/>
      <point x="230" y="341"/>
      <point x="280" y="343"/>
      <point x="324" y="361" type="curve" smooth="yes"/>
      <point x="368" y="379"/>
      <point x="380" y="408"/>
      <point x="380" y="467" type="curve" smooth="yes"/>
      <point x="380" y="658" type="line"/>
    </contour>
    <contour>
      <point x="382" y="815" type="line"/>
      <point x="382" y="791" type="line"/>
      <point x="357" y="750"/>
      <point x="301" y="691"/>
      <point x="242" y="658" type="curve"/>
      <point x="260" y="642"/>
      <point x="293" y="608"/>
      <point x="307" y="586" type="curve"/>
      <point x="398" y="627"/>
      <point x="474" y="694"/>
      <point x="528" y="761" type="curve"/>
      <point x="447" y="821" type="line"/>
      <point x="417" y="815" type="line"/>
    </contour>
    <contour>
      <point x="29" y="68" type="curve"/>
      <point x="40" y="-64" type="line"/>
      <point x="174" y="-55"/>
      <point x="361" y="-43"/>
      <point x="535" y="-29" type="curve"/>
      <point x="535" y="97" type="line"/>
      <point x="357" y="86"/>
      <point x="161" y="74"/>
    </contour>
    <contour>
      <point x="63" y="331" type="line"/>
      <point x="63" y="39" type="line"/>
      <point x="165" y="44" type="line"/>
      <point x="165" y="331" type="line"/>
    </contour>
    <contour>
      <point x="192" y="261" type="line"/>
      <point x="192" y="24" type="line"/>
      <point x="274" y="31" type="line"/>
      <point x="274" y="261" type="line"/>
    </contour>
    <contour>
      <point x="299" y="261" type="line"/>
      <point x="299" y="37" type="line"/>
      <point x="381" y="43" type="line"/>
      <point x="381" y="261" type="line"/>
    </contour>
    <contour>
      <point x="406" y="331" type="line"/>
      <point x="406" y="64" type="line"/>
      <point x="511" y="73" type="line"/>
      <point x="511" y="331" type="line"/>
    </contour>
    <contour>
      <point x="103" y="331" type="line"/>
      <point x="103" y="222" type="line"/>
      <point x="450" y="222" type="line"/>
      <point x="450" y="331" type="line"/>
    </contour>
    <contour>
      <point x="552" y="616" type="line"/>
      <point x="552" y="485" type="line"/>
      <point x="877" y="485" type="line"/>
      <point x="877" y="616" type="line"/>
    </contour>
    <contour>
      <point x="813" y="616" type="line"/>
      <point x="813" y="587" type="line" smooth="yes"/>
      <point x="808" y="216"/>
      <point x="802" y="83"/>
      <point x="783" y="55" type="curve" smooth="yes"/>
      <point x="773" y="41"/>
      <point x="765" y="37"/>
      <point x="750" y="37" type="curve" smooth="yes"/>
      <point x="731" y="37"/>
      <point x="701" y="37"/>
      <point x="666" y="41" type="curve"/>
      <point x="687" y="3"/>
      <point x="703" y="-54"/>
      <point x="705" y="-93" type="curve"/>
      <point x="751" y="-94"/>
      <point x="794" y="-94"/>
      <point x="824" y="-87" type="curve" smooth="yes"/>
      <point x="857" y="-80"/>
      <point x="880" y="-68"/>
      <point x="904" y="-31" type="curve" smooth="yes"/>
      <point x="934" y="14"/>
      <point x="940" y="160"/>
      <point x="947" y="556" type="curve" smooth="yes"/>
      <point x="948" y="573"/>
      <point x="948" y="616"/>
      <point x="948" y="616" type="curve"/>
    </contour>
    <contour>
      <point x="630" y="841" type="line"/>
      <point x="629" y="455"/>
      <point x="640" y="174"/>
      <point x="490" y="-2" type="curve"/>
      <point x="524" y="-23"/>
      <point x="568" y="-68"/>
      <point x="588" y="-100" type="curve"/>
      <point x="757" y="101"/>
      <point x="760" y="425"/>
      <point x="762" y="841" type="curve"/>
    </contour>
  </outline>
</glyph>
<glyph name="uni539A" format="2">
  <advance height="1000" width="1000"/>
  <unicode hex="539A"/>
  <outline>
    <contour>
      <point x="228" y="181" type="line"/>
      <point x="228" y="71" type="line"/>
      <point x="962" y="71" type="line"/>
      <point x="962" y="181" type="line"/>
    </contour>
    <contour>
      <point x="291" y="340" type="line"/>
      <point x="291" y="245" type="line"/>
      <point x="769" y="245" type="line"/>
      <point x="769" y="340" type="line"/>
    </contour>
    <contour>
      <point x="438" y="476" type="line"/>
      <point x="734" y="476" type="line"/>
      <point x="734" y="449" type="line"/>
      <point x="438" y="449" type="line"/>
    </contour>
    <contour>
      <point x="438" y="581" type="line"/>
      <point x="734" y="581" type="line"/>
      <point x="734" y="555" type="line"/>
      <point x="438" y="555" type="line"/>
    </contour>
    <contour>
      <point x="301" y="666" type="line"/>
      <point x="301" y="364" type="line"/>
      <point x="878" y="364" type="line"/>
      <point x="878" y="666" type="line"/>
    </contour>
    <contour>
      <point x="518" y="211" type="line"/>
      <point x="518" y="43" type="line" smooth="yes"/>
      <point x="518" y="30"/>
      <point x="512" y="27"/>
      <point x="495" y="27" type="curve"/>
      <point x="479" y="26"/>
      <point x="408" y="26"/>
      <point x="361" y="29" type="curve"/>
      <point x="379" y="-3"/>
      <point x="400" y="-52"/>
      <point x="408" y="-87" type="curve"/>
      <point x="486" y="-88"/>
      <point x="547" y="-87"/>
      <point x="596" y="-71" type="curve" smooth="yes"/>
      <point x="644" y="-54"/>
      <point x="660" y="-24"/>
      <point x="660" y="38" type="curve" smooth="yes"/>
      <point x="660" y="211" type="line"/>
    </contour>
    <contour>
      <point x="747" y="340" type="line"/>
      <point x="747" y="315" type="line"/>
      <point x="703" y="284"/>
      <point x="601" y="236"/>
      <point x="518" y="211" type="curve"/>
      <point x="535" y="194"/>
      <point x="567" y="157"/>
      <point x="581" y="136" type="curve"/>
      <point x="692" y="169"/>
      <point x="805" y="219"/>
      <point x="897" y="268" type="curve"/>
      <point x="813" y="346" type="line"/>
      <point x="783" y="340" type="line"/>
    </contour>
    <contour>
      <point x="186" y="823" type="line"/>
      <point x="186" y="692" type="line"/>
      <point x="956" y="692" type="line"/>
      <point x="956" y="823" type="line"/>
    </contour>
    <contour>
      <point x="101" y="823" type="line"/>
      <point x="101" y="508" type="line" smooth="yes"/>
      <point x="101" y="350"/>
      <point x="95" y="125"/>
      <point x="13" y="-25" type="curve"/>
      <point x="49" y="-38"/>
      <point x="113" y="-73"/>
      <point x="141" y="-96" type="curve"/>
      <point x="230" y="68"/>
      <point x="244" y="333"/>
      <point x="244" y="508" type="curve" smooth="yes"/>
      <point x="244" y="823" type="line"/>
    </contour>
  </outline>
</glyph>
<glyph name="uni54F1" format="2">
  <advance height="1000" width="1000"/>
  <unicode hex="54F1"/>
  <outline>
    <contour>
      <point x="605" y="855" type="line"/>
      <point x="605" y="531" type="line"/>
      <point x="748" y="531" type="line"/>
      <point x="748" y="855" type="line"/>
    </contour>
    <contour>
      <point x="471" y="429" type="line"/>
      <point x="471" y="313" type="line"/>
      <point x="791" y="313" type="line"/>
      <point x="791" y="429" type="line"/>
    </contour>
    <contour>
      <point x="741" y="429" type="line"/>
      <point x="741" y="404" type="line"/>
      <point x="715" y="371"/>
      <point x="655" y="315"/>
      <point x="605" y="284" type="curve"/>
      <point x="622" y="267"/>
      <point x="657" y="230"/>
      <point x="672" y="207" type="curve"/>
      <point x="751" y="248"/>
      <point x="831" y="307"/>
      <point x="896" y="358" type="curve"/>
      <point x="810" y="436" type="line"/>
      <point x="779" y="429" type="line"/>
    </contour>
    <contour>
      <point x="605" y="284" type="line"/>
      <point x="605" y="45" type="line" smooth="yes"/>
      <point x="605" y="33"/>
      <point x="600" y="30"/>
      <point x="586" y="30" type="curve" smooth="yes"/>
      <point x="572" y="30"/>
      <point x="518" y="30"/>
      <point x="481" y="32" type="curve"/>
      <point x="498" y="-4"/>
      <point x="516" y="-58"/>
      <point x="522" y="-97" type="curve"/>
      <point x="592" y="-97"/>
      <point x="648" y="-96"/>
      <point x="692" y="-77" type="curve" smooth="yes"/>
      <point x="737" y="-57"/>
      <point x="749" y="-23"/>
      <point x="749" y="40" type="curve" smooth="yes"/>
      <point x="749" y="284" type="line"/>
    </contour>
    <contour>
      <point x="397" y="240" type="line"/>
      <point x="397" y="113" type="line"/>
      <point x="969" y="113" type="line"/>
      <point x="969" y="240" type="line"/>
    </contour>
    <contour>
      <point x="395" y="590" type="line"/>
      <point x="395" y="392" type="line"/>
      <point x="521" y="392" type="line"/>
      <point x="521" y="469" type="line"/>
      <point x="831" y="469" type="line"/>
      <point x="831" y="392" type="line"/>
      <point x="964" y="392" type="line"/>
      <point x="964" y="590" type="line"/>
    </contour>
    <contour>
      <point x="399" y="777" type="line"/>
      <point x="399" y="653" type="line"/>
      <point x="944" y="653" type="line"/>
      <point x="944" y="777" type="line"/>
    </contour>
    <contour>
      <point x="135" y="773" type="line"/>
      <point x="135" y="640" type="line"/>
      <point x="230" y="640" type="line"/>
      <point x="230" y="298" type="line"/>
      <point x="135" y="298" type="line"/>
      <point x="135" y="165" type="line"/>
      <point x="360" y="165" type="line"/>
      <point x="360" y="773" type="line"/>
    </contour>
    <contour>
      <point x="59" y="773" type="line"/>
      <point x="59" y="80" type="line"/>
      <point x="188" y="80" type="line"/>
      <point x="188" y="773" type="line"/>
    </contour>
  </outline>
</glyph>
<glyph name="uni56DD" format="2">
  <advance height="1000" width="1000"/>
  <unicode hex="56DD"/>
  <outline>
    <contour>
      <point x="302" y="623" type="line"/>
      <point x="302" y="508" type="line"/>
      <point x="645" y="508" type="line"/>
      <point x="645" y="623" type="line"/>
    </contour>
    <contour>
      <point x="251" y="422" type="line"/>
      <point x="251" y="301" type="line"/>
      <point x="747" y="301" type="line"/>
      <point x="747" y="422" type="line"/>
    </contour>
    <contour>
      <point x="450" y="470" type="line"/>
      <point x="450" y="235" type="line" smooth="yes"/>
      <point x="450" y="224"/>
      <point x="445" y="221"/>
      <point x="431" y="220" type="curve"/>
      <point x="416" y="220"/>
      <point x="362" y="220"/>
      <point x="322" y="222" type="curve"/>
      <point x="340" y="189"/>
      <point x="362" y="137"/>
      <point x="369" y="101" type="curve"/>
      <point x="436" y="100"/>
      <point x="489" y="102"/>
      <point x="532" y="120" type="curve" smooth="yes"/>
      <point x="575" y="139"/>
      <point x="587" y="171"/>
      <point x="587" y="231" type="curve" smooth="yes"/>
      <point x="587" y="470" type="line"/>
    </contour>
    <contour>
      <point x="593" y="623" type="line"/>
      <point x="593" y="599" type="line"/>
      <point x="567" y="560"/>
      <point x="508" y="503"/>
      <point x="450" y="470" type="curve"/>
      <point x="467" y="454"/>
      <point x="500" y="419"/>
      <point x="515" y="398" type="curve"/>
      <point x="603" y="438"/>
      <point x="682" y="503"/>
      <point x="740" y="565" type="curve"/>
      <point x="658" y="629" type="line"/>
      <point x="628" y="623" type="line"/>
    </contour>
    <contour>
      <point x="69" y="810" type="line"/>
      <point x="69" y="-89" type="line"/>
      <point x="214" y="-89" type="line"/>
      <point x="214" y="671" type="line"/>
      <point x="782" y="671" type="line"/>
      <point x="782" y="-80" type="line"/>
      <point x="935" y="-80" type="line"/>
      <point x="935" y="810" type="line"/>
    </contour>
    <contour>
      <point x="152" y="82" type="line"/>
      <point x="152" y="-57" type="line"/>
      <point x="841" y="-57" type="line"/>
      <point x="841" y="82" type="line"/>
    </contour>
  </outline>
</glyph>
<glyph name="uni5A24" format="2">
  <advance height="1000" width="1000"/>
  <unicode hex="5A24"/>
  <outline>
    <contour>
      <point x="41" y="306" type="line"/>
      <point x="41" y="188" type="line"/>
      <point x="960" y="188" type="line"/>
      <point x="960" y="306" type="line"/>
    </contour>
    <contour>
      <point x="637" y="266" type="line"/>
      <point x="569" y="67"/>
      <point x="405" y="30"/>
      <point x="62" y="25" type="curve"/>
      <point x="81" y="-4"/>
      <point x="101" y="-54"/>
      <point x="110" y="-95" type="curve"/>
      <point x="497" y="-71"/>
      <point x="687" y="-16"/>
      <point x="775" y="242" type="curve"/>
    </contour>
    <contour>
      <point x="416" y="725" type="line"/>
      <point x="416" y="600" type="line"/>
      <point x="961" y="600" type="line"/>
      <point x="961" y="725" type="line"/>
    </contour>
    <contour>
      <point x="443" y="487" type="line"/>
      <point x="443" y="365" type="line"/>
      <point x="921" y="365" type="line"/>
      <point x="921" y="487" type="line"/>
    </contour>
    <contour>
      <point x="84" y="564" type="line"/>
      <point x="84" y="522" type="line" smooth="yes"/>
      <point x="84" y="485"/>
      <point x="76" y="432"/>
      <point x="18" y="398" type="curve"/>
      <point x="48" y="379"/>
      <point x="94" y="340"/>
      <point x="115" y="314" type="curve"/>
      <point x="189" y="369"/>
      <point x="199" y="454"/>
      <point x="199" y="516" type="curve" smooth="yes"/>
      <point x="199" y="564" type="line"/>
    </contour>
    <contour>
      <point x="252" y="855" type="line"/>
      <point x="252" y="346" type="line"/>
      <point x="394" y="346" type="line"/>
      <point x="394" y="855" type="line"/>
    </contour>
    <contour>
      <point x="608" y="855" type="line"/>
      <point x="608" y="432" type="line"/>
      <point x="752" y="432" type="line"/>
      <point x="752" y="855" type="line"/>
    </contour>
    <contour>
      <point x="40" y="606" type="line"/>
      <point x="40" y="495" type="line"/>
      <point x="306" y="495" type="line"/>
      <point x="306" y="606" type="line"/>
    </contour>
    <contour>
      <point x="69" y="840" type="line"/>
      <point x="69" y="641" type="line"/>
      <point x="332" y="641" type="line"/>
      <point x="332" y="754" type="line"/>
      <point x="190" y="754" type="line"/>
      <point x="190" y="840" type="line"/>
    </contour>
    <contour>
      <point x="167" y="86" type="line"/>
      <point x="427" y="32"/>
      <point x="677" y="-42"/>
      <point x="828" y="-100" type="curve"/>
      <point x="935" y="9" type="line"/>
      <point x="772" y="62"/>
      <point x="504" y="133"/>
      <point x="258" y="182" type="curve"/>
    </contour>
    <contour>
      <point x="167" y="86" type="curve"/>
      <point x="327" y="86" type="line"/>
      <point x="380" y="149"/>
      <point x="459" y="257"/>
      <point x="508" y="354" type="curve"/>
      <point x="373" y="390" type="line"/>
      <point x="324" y="287"/>
      <point x="237" y="165"/>
    </contour>
  </outline>
</glyph>
<glyph name="uni5B58" format="2">
  <advance height="1000" width="1000"/>
  <unicode hex="5B58"/>
  <outline>
    <contour>
      <point x="356" y="280" type="line"/>
      <point x="356" y="145" type="line"/>
      <point x="964" y="145" type="line"/>
      <point x="964" y="280" type="line"/>
    </contour>
    <contour>
      <point x="430" y="528" type="line"/>
      <point x="430" y="398" type="line"/>
      <point x="795" y="398" type="line"/>
      <point x="795" y="528" type="line"/>
    </contour>
    <contour>
      <point x="597" y="342" type="line"/>
      <point x="597" y="56" type="line" smooth="yes"/>
      <point x="597" y="44"/>
      <point x="592" y="41"/>
      <point x="576" y="40" type="curve"/>
      <point x="561" y="40"/>
      <point x="501" y="40"/>
      <point x="461" y="43" type="curve"/>
      <point x="478" y="3"/>
      <point x="495" y="-55"/>
      <point x="500" y="-96" type="curve"/>
      <point x="577" y="-97"/>
      <point x="638" y="-95"/>
      <point x="685" y="-75" type="curve" smooth="yes"/>
      <point x="733" y="-54"/>
      <point x="744" y="-17"/>
      <point x="744" y="52" type="curve" smooth="yes"/>
      <point x="744" y="342" type="line"/>
    </contour>
    <contour>
      <point x="760" y="528" type="line"/>
      <point x="760" y="501" type="line"/>
      <point x="730" y="457"/>
      <point x="658" y="383"/>
      <point x="597" y="342" type="curve"/>
      <point x="617" y="322"/>
      <point x="655" y="283"/>
      <point x="672" y="258" type="curve"/>
      <point x="758" y="310"/>
      <point x="849" y="391"/>
      <point x="917" y="461" type="curve"/>
      <point x="826" y="536" type="line"/>
      <point x="796" y="528" type="line"/>
    </contour>
    <contour>
      <point x="51" y="725" type="line"/>
      <point x="51" y="586" type="line"/>
      <point x="952" y="586" type="line"/>
      <point x="952" y="725" type="line"/>
    </contour>
    <contour>
      <point x="359" y="856" type="line"/>
      <point x="309" y="654"/>
      <point x="194" y="428"/>
      <point x="11" y="314" type="curve"/>
      <point x="33" y="278"/>
      <point x="64" y="213"/>
      <point x="79" y="173" type="curve"/>
      <point x="304" y="321"/>
      <point x="433" y="570"/>
      <point x="510" y="820" type="curve"/>
    </contour>
    <contour>
      <point x="158" y="433" type="line"/>
      <point x="158" y="-94" type="line"/>
      <point x="305" y="-94" type="line"/>
      <point x="305" y="433" type="line"/>
    </contour>
  </outline>
</glyph>
<glyph name="uni5B5B" format="2">
  <advance height="1000" width="1000"/>
  <unicode hex="5B5B"/>
  <outline>
    <contour>
      <point x="61" y="243" type="line"/>
      <point x="61" y="119" type="line"/>
      <point x="944" y="119" type="line"/>
      <point x="944" y="243" type="line"/>
    </contour>
    <contour>
      <point x="48" y="780" type="line"/>
      <point x="48" y="659" type="line"/>
      <point x="949" y="659" type="line"/>
      <point x="949" y="780" type="line"/>
    </contour>
    <contour>
      <point x="243" y="453" type="line"/>
      <point x="243" y="342" type="line"/>
      <point x="671" y="342" type="line"/>
      <point x="671" y="453" type="line"/>
    </contour>
    <contour>
      <point x="431" y="291" type="line"/>
      <point x="431" y="39" type="line" smooth="yes"/>
      <point x="431" y="24"/>
      <point x="424" y="21"/>
      <point x="406" y="20" type="curve"/>
      <point x="388" y="20"/>
      <point x="312" y="19"/>
      <point x="261" y="22" type="curve"/>
      <point x="280" y="-10"/>
      <point x="302" y="-60"/>
      <point x="310" y="-96" type="curve"/>
      <point x="393" y="-96"/>
      <point x="458" y="-95"/>
      <point x="508" y="-78" type="curve" smooth="yes"/>
      <point x="558" y="-61"/>
      <point x="575" y="-31"/>
      <point x="575" y="34" type="curve" smooth="yes"/>
      <point x="575" y="291" type="line"/>
    </contour>
    <contour>
      <point x="623" y="453" type="line"/>
      <point x="623" y="426" type="line"/>
      <point x="589" y="387"/>
      <point x="503" y="325"/>
      <point x="431" y="291" type="curve"/>
      <point x="452" y="271"/>
      <point x="490" y="229"/>
      <point x="507" y="202" type="curve"/>
      <point x="604" y="248"/>
      <point x="706" y="319"/>
      <point x="782" y="383" type="curve"/>
      <point x="690" y="460" type="line"/>
      <point x="660" y="453" type="line"/>
    </contour>
    <contour>
      <point x="427" y="855" type="line"/>
      <point x="427" y="549" type="line"/>
      <point x="571" y="549" type="line"/>
      <point x="571" y="855" type="line"/>
    </contour>
    <contour>
      <point x="81" y="612" type="line"/>
      <point x="81" y="385" type="line"/>
      <point x="220" y="385" type="line"/>
      <point x="220" y="492" type="line"/>
      <point x="781" y="492" type="line"/>
      <point x="781" y="385" type="line"/>
      <point x="927" y="385" type="line"/>
      <point x="927" y="612" type="line"/>
    </contour>
  </outline>
</glyph>
<glyph name="uni5B5F" format="2">
  <advance height="1000" width="1000"/>
  <unicode hex="5B5F"/>
  <outline>
    <contour>
      <point x="40" y="56" type="line"/>
      <point x="40" y="-73" type="line"/>
      <point x="959" y="-73" type="line"/>
      <point x="959" y="56" type="line"/>
    </contour>
    <contour>
      <point x="74" y="599" type="line"/>
      <point x="74" y="477" type="line"/>
      <point x="921" y="477" type="line"/>
      <point x="921" y="599" type="line"/>
    </contour>
    <contour>
      <point x="132" y="288" type="line"/>
      <point x="132" y="-3" type="line"/>
      <point x="267" y="-3" type="line"/>
      <point x="267" y="168" type="line"/>
      <point x="335" y="168" type="line"/>
      <point x="335" y="-3" type="line"/>
      <point x="467" y="-3" type="line"/>
      <point x="467" y="168" type="line"/>
      <point x="536" y="168" type="line"/>
      <point x="536" y="-3" type="line"/>
      <point x="668" y="-3" type="line"/>
      <point x="668" y="168" type="line"/>
      <point x="738" y="168" type="line"/>
      <point x="738" y="-3" type="line"/>
      <point x="880" y="-3" type="line"/>
      <point x="880" y="288" type="line"/>
    </contour>
    <contour>
      <point x="200" y="826" type="line"/>
      <point x="200" y="702" type="line"/>
      <point x="700" y="702" type="line"/>
      <point x="700" y="826" type="line"/>
    </contour>
    <contour>
      <point x="689" y="826" type="line"/>
      <point x="689" y="800" type="line"/>
      <point x="645" y="756"/>
      <point x="532" y="691"/>
      <point x="437" y="656" type="curve"/>
      <point x="459" y="635"/>
      <point x="495" y="593"/>
      <point x="512" y="567" type="curve"/>
      <point x="626" y="614"/>
      <point x="752" y="688"/>
      <point x="840" y="760" type="curve"/>
      <point x="750" y="833" type="line"/>
      <point x="722" y="826" type="line"/>
    </contour>
    <contour>
      <point x="437" y="656" type="line"/>
      <point x="437" y="445" type="line" smooth="yes"/>
      <point x="437" y="432"/>
      <point x="431" y="429"/>
      <point x="413" y="428" type="curve"/>
      <point x="397" y="428"/>
      <point x="329" y="428"/>
      <point x="285" y="430" type="curve"/>
      <point x="308" y="398"/>
      <point x="340" y="343"/>
      <point x="353" y="304" type="curve"/>
      <point x="419" y="304"/>
      <point x="475" y="305"/>
      <point x="525" y="325" type="curve" smooth="yes"/>
      <point x="576" y="345"/>
      <point x="592" y="375"/>
      <point x="592" y="440" type="curve" smooth="yes"/>
      <point x="592" y="656" type="line"/>
    </contour>
  </outline>
</glyph>
<glyph name="uni5B63" format="2">
  <advance height="1000" width="1000"/>
  <unicode hex="5B63"/>
  <outline>
    <contour>
      <point x="52" y="212" type="line"/>
      <point x="52" y="88" type="line"/>
      <point x="948" y="88" type="line"/>
      <point x="948" y="212" type="line"/>
    </contour>
    <contour>
      <point x="234" y="391" type="line"/>
      <point x="234" y="280" type="line"/>
      <point x="667" y="280" type="line"/>
      <point x="667" y="391" type="line"/>
    </contour>
    <contour>
      <point x="429" y="258" type="line"/>
      <point x="429" y="47" type="line" smooth="yes"/>
      <point x="429" y="34"/>
      <point x="423" y="31"/>
      <point x="404" y="30" type="curve"/>
      <point x="386" y="30"/>
      <point x="309" y="30"/>
      <point x="256" y="33" type="curve"/>
      <point x="276" y="-2"/>
      <point x="298" y="-55"/>
      <point x="306" y="-93" type="curve"/>
      <point x="388" y="-93"/>
      <point x="454" y="-93"/>
      <point x="505" y="-75" type="curve" smooth="yes"/>
      <point x="556" y="-56"/>
      <point x="572" y="-24"/>
      <point x="572" y="42" type="curve" smooth="yes"/>
      <point x="572" y="258" type="line"/>
    </contour>
    <contour>
      <point x="615" y="391" type="line"/>
      <point x="615" y="366" type="line"/>
      <point x="581" y="334"/>
      <point x="497" y="285"/>
      <point x="429" y="258" type="curve"/>
      <point x="447" y="239"/>
      <point x="482" y="200"/>
      <point x="498" y="176" type="curve"/>
      <point x="593" y="213"/>
      <point x="691" y="268"/>
      <point x="769" y="320" type="curve"/>
      <point x="682" y="398" type="line"/>
      <point x="652" y="391" type="line"/>
    </contour>
    <contour>
      <point x="55" y="656" type="line"/>
      <point x="55" y="535" type="line"/>
      <point x="947" y="535" type="line"/>
      <point x="947" y="656" type="line"/>
    </contour>
    <contour>
      <point x="425" y="755" type="line"/>
      <point x="425" y="413" type="line"/>
      <point x="568" y="413" type="line"/>
      <point x="568" y="755" type="line"/>
    </contour>
    <contour>
      <point x="372" y="612" type="line"/>
      <point x="300" y="529"/>
      <point x="158" y="452"/>
      <point x="20" y="413" type="curve"/>
      <point x="49" y="386"/>
      <point x="89" y="335"/>
      <point x="109" y="303" type="curve"/>
      <point x="253" y="354"/>
      <point x="396" y="451"/>
      <point x="485" y="564" type="curve"/>
    </contour>
    <contour>
      <point x="625" y="609" type="curve"/>
      <point x="514" y="562" type="line"/>
      <point x="602" y="451"/>
      <point x="742" y="357"/>
      <point x="887" y="309" type="curve"/>
      <point x="907" y="343"/>
      <point x="947" y="396"/>
      <point x="977" y="423" type="curve"/>
      <point x="837" y="458"/>
      <point x="697" y="529"/>
    </contour>
    <contour>
      <point x="739" y="856" type="line"/>
      <point x="592" y="822"/>
      <point x="338" y="805"/>
      <point x="113" y="802" type="curve"/>
      <point x="126" y="773"/>
      <point x="142" y="720"/>
      <point x="145" y="688" type="curve"/>
      <point x="380" y="690"/>
      <point x="654" y="707"/>
      <point x="858" y="755" type="curve"/>
    </contour>
  </outline>
</glyph>
<glyph name="uni5B66" format="2">
  <advance height="1000" width="1000"/>
  <unicode hex="5B66"/>
  <outline>
    <contour>
      <point x="236" y="511" type="line"/>
      <point x="236" y="386" type="line"/>
      <point x="678" y="386" type="line"/>
      <point x="678" y="511" type="line"/>
    </contour>
    <contour>
      <point x="51" y="288" type="line"/>
      <point x="51" y="155" type="line"/>
      <point x="952" y="155" type="line"/>
      <point x="952" y="288" type="line"/>
    </contour>
    <contour>
      <point x="423" y="346" type="line"/>
      <point x="423" y="66" type="line" smooth="yes"/>
      <point x="423" y="53"/>
      <point x="417" y="49"/>
      <point x="397" y="49" type="curve"/>
      <point x="377" y="48"/>
      <point x="298" y="48"/>
      <point x="242" y="51" type="curve"/>
      <point x="264" y="14"/>
      <point x="291" y="-48"/>
      <point x="300" y="-89" type="curve"/>
      <point x="382" y="-89"/>
      <point x="449" y="-87"/>
      <point x="502" y="-66" type="curve" smooth="yes"/>
      <point x="555" y="-46"/>
      <point x="572" y="-9"/>
      <point x="572" y="62" type="curve" smooth="yes"/>
      <point x="572" y="346" type="line"/>
    </contour>
    <contour>
      <point x="630" y="511" type="line"/>
      <point x="630" y="485" type="line"/>
      <point x="594" y="442"/>
      <point x="505" y="380"/>
      <point x="423" y="346" type="curve"/>
      <point x="444" y="325"/>
      <point x="480" y="285"/>
      <point x="497" y="260" type="curve"/>
      <point x="607" y="304"/>
      <point x="712" y="375"/>
      <point x="789" y="445" type="curve"/>
      <point x="697" y="518" type="line"/>
      <point x="667" y="511" type="line"/>
    </contour>
    <contour>
      <point x="59" y="700" type="line"/>
      <point x="59" y="468" type="line"/>
      <point x="195" y="468" type="line"/>
      <point x="195" y="573" type="line"/>
      <point x="801" y="573" type="line"/>
      <point x="801" y="468" type="line"/>
      <point x="944" y="468" type="line"/>
      <point x="944" y="700" type="line"/>
    </contour>
    <contour>
      <point x="733" y="848" type="line"/>
      <point x="711" y="792"/>
      <point x="670" y="718"/>
      <point x="634" y="669" type="curve"/>
      <point x="749" y="628" type="line"/>
      <point x="788" y="671"/>
      <point x="839" y="738"/>
      <point x="885" y="804" type="curve"/>
    </contour>
    <contour>
      <point x="145" y="791" type="line"/>
      <point x="177" y="750"/>
      <point x="213" y="694"/>
      <point x="226" y="657" type="curve"/>
      <point x="358" y="718" type="line"/>
      <point x="342" y="756"/>
      <point x="303" y="808"/>
      <point x="269" y="846" type="curve"/>
    </contour>
    <contour>
      <point x="401" y="817" type="line"/>
      <point x="429" y="772"/>
      <point x="459" y="711"/>
      <point x="469" y="672" type="curve"/>
      <point x="607" y="725" type="line"/>
      <point x="594" y="765"/>
      <point x="561" y="823"/>
      <point x="530" y="865" type="curve"/>
    </contour>
  </outline>
</glyph>
<glyph name="uni5B68" format="2">
  <advance height="1000" width="1000"/>
  <unicode hex="5B68"/>
  <outline>
    <contour>
      <point x="82" y="667" type="line"/>
      <point x="82" y="553" type="line"/>
      <point x="929" y="553" type="line"/>
      <point x="929" y="667" type="line"/>
    </contour>
    <contour>
      <point x="488" y="232" type="line"/>
      <point x="488" y="116" type="line"/>
      <point x="961" y="116" type="line"/>
      <point x="961" y="232" type="line"/>
    </contour>
    <contour>
      <point x="203" y="833" type="line"/>
      <point x="203" y="719" type="line"/>
      <point x="708" y="719" type="line"/>
      <point x="708" y="833" type="line"/>
    </contour>
    <contour>
      <point x="446" y="700" type="line"/>
      <point x="446" y="537" type="line" smooth="yes"/>
      <point x="446" y="524"/>
      <point x="440" y="521"/>
      <point x="423" y="520" type="curve"/>
      <point x="409" y="520"/>
      <point x="340" y="519"/>
      <point x="296" y="522" type="curve"/>
      <point x="313" y="493"/>
      <point x="333" y="450"/>
      <point x="341" y="416" type="curve"/>
      <point x="418" y="416"/>
      <point x="477" y="416"/>
      <point x="524" y="431" type="curve" smooth="yes"/>
      <point x="571" y="446"/>
      <point x="586" y="472"/>
      <point x="586" y="531" type="curve" smooth="yes"/>
      <point x="586" y="700" type="line"/>
    </contour>
    <contour>
      <point x="667" y="833" type="line"/>
      <point x="667" y="807" type="line"/>
      <point x="625" y="776"/>
      <point x="525" y="726"/>
      <point x="446" y="700" type="curve"/>
      <point x="463" y="683"/>
      <point x="496" y="645"/>
      <point x="511" y="623" type="curve"/>
      <point x="622" y="658"/>
      <point x="732" y="708"/>
      <point x="826" y="755" type="curve"/>
      <point x="739" y="840" type="line"/>
      <point x="706" y="833" type="line"/>
    </contour>
    <contour>
      <point x="79" y="432" type="line"/>
      <point x="79" y="316" type="line"/>
      <point x="381" y="316" type="line"/>
      <point x="381" y="432" type="line"/>
    </contour>
    <contour>
      <point x="211" y="291" type="line"/>
      <point x="211" y="47" type="line" smooth="yes"/>
      <point x="211" y="36"/>
      <point x="207" y="33"/>
      <point x="193" y="33" type="curve"/>
      <point x="179" y="32"/>
      <point x="129" y="32"/>
      <point x="91" y="34" type="curve"/>
      <point x="108" y="0"/>
      <point x="127" y="-51"/>
      <point x="133" y="-88" type="curve"/>
      <point x="200" y="-88"/>
      <point x="252" y="-86"/>
      <point x="293" y="-68" type="curve" smooth="yes"/>
      <point x="335" y="-49"/>
      <point x="346" y="-16"/>
      <point x="346" y="43" type="curve" smooth="yes"/>
      <point x="346" y="291" type="line"/>
    </contour>
    <contour>
      <point x="363" y="432" type="line"/>
      <point x="363" y="409" type="line"/>
      <point x="334" y="375"/>
      <point x="266" y="321"/>
      <point x="211" y="291" type="curve"/>
      <point x="228" y="274"/>
      <point x="261" y="239"/>
      <point x="275" y="217" type="curve"/>
      <point x="354" y="256"/>
      <point x="439" y="316"/>
      <point x="504" y="369" type="curve"/>
      <point x="424" y="439" type="line"/>
      <point x="396" y="432" type="line"/>
    </contour>
    <contour>
      <point x="527" y="427" type="line"/>
      <point x="527" y="311" type="line"/>
      <point x="829" y="311" type="line"/>
      <point x="829" y="427" type="line"/>
    </contour>
    <contour>
      <point x="650" y="290" type="line"/>
      <point x="650" y="51" type="line" smooth="yes"/>
      <point x="650" y="39"/>
      <point x="645" y="36"/>
      <point x="631" y="36" type="curve" smooth="yes"/>
      <point x="617" y="36"/>
      <point x="563" y="36"/>
      <point x="523" y="38" type="curve"/>
      <point x="541" y="4"/>
      <point x="560" y="-48"/>
      <point x="566" y="-85" type="curve"/>
      <point x="635" y="-85"/>
      <point x="689" y="-84"/>
      <point x="731" y="-66" type="curve" smooth="yes"/>
      <point x="775" y="-47"/>
      <point x="786" y="-14"/>
      <point x="786" y="47" type="curve" smooth="yes"/>
      <point x="786" y="290" type="line"/>
    </contour>
    <contour>
      <point x="806" y="427" type="line"/>
      <point x="806" y="403" type="line"/>
      <point x="776" y="371"/>
      <point x="707" y="319"/>
      <point x="650" y="290" type="curve"/>
      <point x="668" y="273"/>
      <point x="701" y="236"/>
      <point x="715" y="214" type="curve"/>
      <point x="797" y="252"/>
      <point x="883" y="310"/>
      <point x="950" y="362" type="curve"/>
      <point x="869" y="434" type="line"/>
      <point x="840" y="427" type="line"/>
    </contour>
    <contour>
      <point x="22" y="213" type="curve"/>
      <point x="32" y="89" type="line"/>
      <point x="150" y="99"/>
      <point x="312" y="111"/>
      <point x="463" y="125" type="curve"/>
      <point x="462" y="241" type="line"/>
      <point x="305" y="230"/>
      <point x="136" y="219"/>
    </contour>
  </outline>
</glyph>
<glyph name="uni5B71" format="2">
  <advance height="1000" width="1000"/>
  <unicode hex="5B71"/>
  <outline>
    <contour>
      <point x="97" y="818" type="line"/>
      <point x="97" y="522" type="line" smooth="yes"/>
      <point x="97" y="366"/>
      <point x="92" y="139"/>
      <point x="14" y="-13" type="curve"/>
      <point x="51" y="-26"/>
      <point x="117" y="-61"/>
      <point x="146" y="-84" type="curve"/>
      <point x="229" y="82"/>
      <point x="242" y="348"/>
      <point x="242" y="522" type="curve" smooth="yes"/>
      <point x="242" y="818" type="line"/>
    </contour>
    <contour>
      <point x="215" y="818" type="line"/>
      <point x="215" y="715" type="line"/>
      <point x="777" y="715" type="line"/>
      <point x="777" y="688" type="line"/>
      <point x="215" y="688" type="line"/>
      <point x="215" y="585" type="line"/>
      <point x="918" y="585" type="line"/>
      <point x="918" y="818" type="line"/>
    </contour>
    <contour>
      <point x="385" y="563" type="line"/>
      <point x="385" y="480" type="line"/>
      <point x="732" y="480" type="line"/>
      <point x="732" y="563" type="line"/>
    </contour>
    <contour>
      <point x="289" y="442" type="line"/>
      <point x="289" y="348" type="line"/>
      <point x="924" y="348" type="line"/>
      <point x="924" y="442" type="line"/>
    </contour>
    <contour>
      <point x="567" y="139" type="line"/>
      <point x="567" y="39" type="line"/>
      <point x="964" y="39" type="line"/>
      <point x="964" y="139" type="line"/>
    </contour>
    <contour>
      <point x="544" y="467" type="line"/>
      <point x="544" y="343" type="line" smooth="yes"/>
      <point x="544" y="333"/>
      <point x="540" y="330"/>
      <point x="530" y="330" type="curve" smooth="yes"/>
      <point x="522" y="330"/>
      <point x="489" y="330"/>
      <point x="466" y="332" type="curve"/>
      <point x="477" y="309"/>
      <point x="491" y="279"/>
      <point x="498" y="253" type="curve"/>
      <point x="552" y="252"/>
      <point x="594" y="253"/>
      <point x="626" y="263" type="curve" smooth="yes"/>
      <point x="659" y="274"/>
      <point x="669" y="291"/>
      <point x="669" y="337" type="curve" smooth="yes"/>
      <point x="669" y="467" type="line"/>
    </contour>
    <contour>
      <point x="220" y="132" type="curve"/>
      <point x="230" y="28" type="line"/>
      <point x="321" y="37"/>
      <point x="436" y="47"/>
      <point x="548" y="59" type="curve"/>
      <point x="546" y="155" type="line"/>
      <point x="426" y="146"/>
      <point x="304" y="137"/>
    </contour>
    <contour>
      <point x="714" y="563" type="line"/>
      <point x="714" y="546" type="line"/>
      <point x="677" y="520"/>
      <point x="602" y="487"/>
      <point x="544" y="467" type="curve"/>
      <point x="556" y="456"/>
      <point x="579" y="431"/>
      <point x="589" y="416" type="curve"/>
      <point x="665" y="441"/>
      <point x="751" y="476"/>
      <point x="819" y="514" type="curve"/>
      <point x="760" y="568" type="line"/>
      <point x="739" y="563" type="line"/>
    </contour>
    <contour>
      <point x="257" y="284" type="line"/>
      <point x="257" y="199" type="line"/>
      <point x="474" y="199" type="line"/>
      <point x="474" y="284" type="line"/>
    </contour>
    <contour>
      <point x="333" y="176" type="line"/>
      <point x="333" y="16" type="line" smooth="yes"/>
      <point x="333" y="7"/>
      <point x="329" y="5"/>
      <point x="320" y="4" type="curve"/>
      <point x="311" y="4"/>
      <point x="280" y="4"/>
      <point x="256" y="6" type="curve"/>
      <point x="269" y="-20"/>
      <point x="283" y="-56"/>
      <point x="288" y="-86" type="curve"/>
      <point x="341" y="-86"/>
      <point x="382" y="-85"/>
      <point x="415" y="-72" type="curve" smooth="yes"/>
      <point x="449" y="-59"/>
      <point x="457" y="-37"/>
      <point x="457" y="12" type="curve" smooth="yes"/>
      <point x="457" y="176" type="line"/>
    </contour>
    <contour>
      <point x="448" y="284" type="line"/>
      <point x="448" y="266" type="line"/>
      <point x="424" y="239"/>
      <point x="374" y="199"/>
      <point x="333" y="176" type="curve"/>
      <point x="347" y="163"/>
      <point x="373" y="134"/>
      <point x="385" y="117" type="curve"/>
      <point x="445" y="147"/>
      <point x="511" y="191"/>
      <point x="562" y="234" type="curve"/>
      <point x="498" y="290" type="line"/>
      <point x="475" y="284" type="line"/>
    </contour>
    <contour>
      <point x="609" y="284" type="line"/>
      <point x="609" y="199" type="line"/>
      <point x="835" y="199" type="line"/>
      <point x="835" y="284" type="line"/>
    </contour>
    <contour>
      <point x="700" y="176" type="line"/>
      <point x="700" y="13" type="line" smooth="yes"/>
      <point x="700" y="3"/>
      <point x="696" y="0"/>
      <point x="685" y="0" type="curve" smooth="yes"/>
      <point x="675" y="0"/>
      <point x="637" y="0"/>
      <point x="609" y="1" type="curve"/>
      <point x="623" y="-26"/>
      <point x="637" y="-65"/>
      <point x="643" y="-95" type="curve"/>
      <point x="701" y="-95"/>
      <point x="747" y="-95"/>
      <point x="782" y="-81" type="curve" smooth="yes"/>
      <point x="819" y="-67"/>
      <point x="828" y="-43"/>
      <point x="828" y="8" type="curve" smooth="yes"/>
      <point x="828" y="176" type="line"/>
    </contour>
    <contour>
      <point x="824" y="284" type="line"/>
      <point x="824" y="265" type="line"/>
      <point x="799" y="238"/>
      <point x="744" y="199"/>
      <point x="700" y="176" type="curve"/>
      <point x="715" y="162"/>
      <point x="742" y="132"/>
      <point x="754" y="114" type="curve"/>
      <point x="818" y="144"/>
      <point x="888" y="189"/>
      <point x="943" y="231" type="curve"/>
      <point x="876" y="290" type="line"/>
      <point x="852" y="284" type="line"/>
    </contour>
  </outline>
</glyph>
<glyph name="uni5FAC" format="2">
  <advance height="1000" width="1000"/>
  <unicode hex="5FAC"/>
  <outline>
    <contour>
      <point x="557" y="844" type="curve"/>
      <point x="569" y="800"/>
      <point x="577" y="743"/>
      <point x="578" y="708" type="curve"/>
      <point x="578" y="708"/>
      <point x="727" y="728"/>
      <point x="727" y="728" type="curve"/>
      <point x="725" y="764"/>
      <point x="713" y="819"/>
      <point x="698" y="861" type="curve"/>
      <point x="698" y="861"/>
      <point x="557" y="844"/>
    </contour>
    <contour>
      <point x="562" y="435" type="curve"/>
      <point x="571" y="403"/>
      <point x="578" y="360"/>
      <point x="580" y="334" type="curve"/>
      <point x="580" y="334"/>
      <point x="722" y="356"/>
      <point x="722" y="356" type="curve"/>
      <point x="720" y="382"/>
      <point x="709" y="423"/>
      <point x="697" y="453" type="curve"/>
      <point x="697" y="453"/>
      <point x="562" y="435"/>
    </contour>
    <contour>
      <point x="214" y="632" type="curve"/>
      <point x="169" y="537"/>
      <point x="90" y="444"/>
      <point x="11" y="386" type="curve"/>
      <point x="35" y="354"/>
      <point x="73" y="282"/>
      <point x="86" y="252" type="curve"/>
      <point x="183" y="332"/>
      <point x="281" y="463"/>
      <point x="342" y="587" type="curve"/>
      <point x="342" y="587"/>
      <point x="214" y="632"/>
    </contour>
    <contour>
      <point x="194" y="855" type="curve"/>
      <point x="158" y="793"/>
      <point x="83" y="712"/>
      <point x="18" y="664" type="curve"/>
      <point x="41" y="637"/>
      <point x="77" y="585"/>
      <point x="95" y="555" type="curve"/>
      <point x="175" y="617"/>
      <point x="265" y="714"/>
      <point x="327" y="803" type="curve"/>
      <point x="327" y="803"/>
      <point x="194" y="855"/>
    </contour>
    <contour>
      <point x="139" y="400" type="curve"/>
      <point x="139" y="400"/>
      <point x="139" y="-96"/>
      <point x="139" y="-96" type="curve"/>
      <point x="139" y="-96"/>
      <point x="270" y="-96"/>
      <point x="270" y="-96" type="curve"/>
      <point x="270" y="-96"/>
      <point x="270" y="530"/>
      <point x="270" y="530" type="curve"/>
      <point x="270" y="530"/>
      <point x="270" y="531"/>
      <point x="270" y="531" type="curve"/>
      <point x="270" y="531"/>
      <point x="139" y="400"/>
    </contour>
    <contour>
      <point x="348" y="770" type="curve"/>
      <point x="348" y="770"/>
      <point x="348" y="657"/>
      <point x="348" y="657" type="curve"/>
      <point x="348" y="657"/>
      <point x="952" y="657"/>
      <point x="952" y="657" type="curve"/>
      <point x="952" y="657"/>
      <point x="952" y="770"/>
      <point x="952" y="770" type="curve"/>
      <point x="952" y="770"/>
      <point x="348" y="770"/>
    </contour>
    <contour>
      <point x="432" y="661" type="curve"/>
      <point x="447" y="630"/>
      <point x="460" y="587"/>
      <point x="463" y="561" type="curve"/>
      <point x="463" y="561"/>
      <point x="598" y="582"/>
      <point x="598" y="582" type="curve"/>
      <point x="594" y="611"/>
      <point x="578" y="651"/>
      <point x="561" y="681" type="curve"/>
      <point x="561" y="681"/>
      <point x="432" y="661"/>
    </contour>
    <contour>
      <point x="724" y="687" type="curve"/>
      <point x="719" y="655"/>
      <point x="707" y="612"/>
      <point x="696" y="579" type="curve"/>
      <point x="696" y="579"/>
      <point x="829" y="563"/>
      <point x="829" y="563" type="curve"/>
      <point x="841" y="590"/>
      <point x="856" y="627"/>
      <point x="875" y="672" type="curve"/>
      <point x="875" y="672"/>
      <point x="724" y="687"/>
    </contour>
    <contour>
      <point x="328" y="586" type="curve"/>
      <point x="328" y="586"/>
      <point x="328" y="405"/>
      <point x="328" y="405" type="curve"/>
      <point x="328" y="405"/>
      <point x="457" y="405"/>
      <point x="457" y="405" type="curve"/>
      <point x="457" y="405"/>
      <point x="457" y="479"/>
      <point x="457" y="479" type="curve"/>
      <point x="457" y="479"/>
      <point x="824" y="479"/>
      <point x="824" y="479" type="curve"/>
      <point x="824" y="479"/>
      <point x="824" y="405"/>
      <point x="824" y="405" type="curve"/>
      <point x="824" y="405"/>
      <point x="960" y="405"/>
      <point x="960" y="405" type="curve"/>
      <point x="960" y="405"/>
      <point x="960" y="586"/>
      <point x="960" y="586" type="curve"/>
      <point x="960" y="586"/>
      <point x="328" y="586"/>
    </contour>
    <contour>
      <point x="322" y="378" type="curve"/>
      <point x="322" y="378"/>
      <point x="322" y="265"/>
      <point x="322" y="265" type="curve"/>
      <point x="322" y="265"/>
      <point x="966" y="265"/>
      <point x="966" y="265" type="curve"/>
      <point x="966" y="265"/>
      <point x="966" y="378"/>
      <point x="966" y="378" type="curve"/>
      <point x="966" y="378"/>
      <point x="322" y="378"/>
    </contour>
    <contour>
      <point x="559" y="223" type="curve"/>
      <point x="559" y="223"/>
      <point x="515" y="112"/>
      <point x="515" y="112" type="curve"/>
      <point x="515" y="112"/>
      <point x="803" y="112"/>
      <point x="803" y="112" type="curve"/>
      <point x="803" y="112"/>
      <point x="803" y="223"/>
      <point x="803" y="223" type="curve"/>
      <point x="803" y="223"/>
      <point x="559" y="223"/>
    </contour>
    <contour>
      <point x="772" y="223" type="curve"/>
      <point x="772" y="223"/>
      <point x="772" y="207"/>
      <point x="772" y="207" type="curve"/>
      <point x="764" y="93"/>
      <point x="753" y="43"/>
      <point x="739" y="29" type="curve"/>
      <point x="730" y="21"/>
      <point x="720" y="19"/>
      <point x="705" y="19" type="curve" smooth="yes"/>
      <point x="687" y="19"/>
      <point x="649" y="20"/>
      <point x="610" y="24" type="curve"/>
      <point x="630" y="-8"/>
      <point x="644" y="-57"/>
      <point x="646" y="-92" type="curve"/>
      <point x="697" y="-94"/>
      <point x="744" y="-93"/>
      <point x="773" y="-90" type="curve" smooth="yes"/>
      <point x="805" y="-86"/>
      <point x="833" y="-78"/>
      <point x="857" y="-53" type="curve" smooth="yes"/>
      <point x="883" y="-25"/>
      <point x="898" y="40"/>
      <point x="909" y="175" type="curve" smooth="yes"/>
      <point x="911" y="191"/>
      <point x="913" y="223"/>
      <point x="913" y="223" type="curve"/>
      <point x="913" y="223"/>
      <point x="772" y="223"/>
    </contour>
    <contour>
      <point x="507" y="311" type="curve"/>
      <point x="497" y="169"/>
      <point x="480" y="69"/>
      <point x="292" y="11" type="curve"/>
      <point x="321" y="-15"/>
      <point x="356" y="-66"/>
      <point x="370" y="-99" type="curve"/>
      <point x="596" y="-20"/>
      <point x="632" y="120"/>
      <point x="646" y="311" type="curve"/>
      <point x="646" y="311"/>
      <point x="507" y="311"/>
    </contour>
  </outline>
</glyph>
<glyph name="uni60B8" format="2">
  <advance height="1000" width="1000"/>
  <unicode hex="60B8"/>
  <outline>
    <contour>
      <point x="830" y="855" type="line"/>
      <point x="720" y="829"/>
      <point x="543" y="814"/>
      <point x="385" y="810" type="curve"/>
      <point x="399" y="781"/>
      <point x="415" y="731"/>
      <point x="419" y="700" type="curve"/>
      <point x="584" y="701"/>
      <point x="780" y="715"/>
      <point x="926" y="751" type="curve"/>
    </contour>
    <contour>
      <point x="367" y="676" type="line"/>
      <point x="367" y="557" type="line"/>
      <point x="962" y="557" type="line"/>
      <point x="962" y="676" type="line"/>
    </contour>
    <contour>
      <point x="586" y="753" type="line"/>
      <point x="586" y="386" type="line"/>
      <point x="725" y="386" type="line"/>
      <point x="725" y="771" type="line"/>
    </contour>
    <contour>
      <point x="766" y="619" type="curve"/>
      <point x="667" y="587" type="line"/>
      <point x="717" y="481"/>
      <point x="800" y="384"/>
      <point x="897" y="333" type="curve"/>
      <point x="917" y="368"/>
      <point x="960" y="419"/>
      <point x="990" y="446" type="curve"/>
      <point x="897" y="480"/>
      <point x="811" y="547"/>
    </contour>
    <contour>
      <point x="440" y="366" type="line"/>
      <point x="440" y="253" type="line"/>
      <point x="769" y="253" type="line"/>
      <point x="769" y="366" type="line"/>
    </contour>
    <contour>
      <point x="742" y="366" type="line"/>
      <point x="742" y="343" type="line"/>
      <point x="714" y="308"/>
      <point x="645" y="255"/>
      <point x="586" y="225" type="curve"/>
      <point x="607" y="205"/>
      <point x="642" y="166"/>
      <point x="658" y="140" type="curve"/>
      <point x="736" y="182"/>
      <point x="822" y="247"/>
      <point x="883" y="308" type="curve"/>
      <point x="799" y="373" type="line"/>
      <point x="773" y="366" type="line"/>
    </contour>
    <contour>
      <point x="586" y="225" type="line"/>
      <point x="586" y="37" type="line" smooth="yes"/>
      <point x="586" y="26"/>
      <point x="581" y="23"/>
      <point x="568" y="23" type="curve" smooth="yes"/>
      <point x="554" y="23"/>
      <point x="502" y="23"/>
      <point x="465" y="25" type="curve"/>
      <point x="481" y="-9"/>
      <point x="498" y="-58"/>
      <point x="503" y="-94" type="curve"/>
      <point x="572" y="-95"/>
      <point x="627" y="-94"/>
      <point x="669" y="-77" type="curve" smooth="yes"/>
      <point x="713" y="-59"/>
      <point x="724" y="-27"/>
      <point x="724" y="33" type="curve" smooth="yes"/>
      <point x="724" y="225" type="line"/>
    </contour>
    <contour>
      <point x="338" y="199" type="line"/>
      <point x="338" y="81" type="line"/>
      <point x="960" y="81" type="line"/>
      <point x="960" y="199" type="line"/>
    </contour>
    <contour>
      <point x="546" y="622" type="line"/>
      <point x="502" y="543"/>
      <point x="415" y="471"/>
      <point x="318" y="436" type="curve"/>
      <point x="345" y="412"/>
      <point x="384" y="364"/>
      <point x="402" y="333" type="curve"/>
      <point x="510" y="384"/>
      <point x="598" y="480"/>
      <point x="650" y="589" type="curve"/>
    </contour>
    <contour>
      <point x="143" y="855" type="line"/>
      <point x="143" y="-95" type="line"/>
      <point x="276" y="-95" type="line"/>
      <point x="276" y="855" type="line"/>
    </contour>
    <contour>
      <point x="51" y="654" type="line"/>
      <point x="46" y="571"/>
      <point x="32" y="458"/>
      <point x="12" y="389" type="curve"/>
      <point x="117" y="353" type="line"/>
      <point x="136" y="432"/>
      <point x="150" y="554"/>
      <point x="152" y="642" type="curve"/>
    </contour>
    <contour>
      <point x="250" y="664" type="line"/>
      <point x="269" y="594"/>
      <point x="291" y="503"/>
      <point x="299" y="448" type="curve"/>
      <point x="399" y="484" type="line"/>
      <point x="389" y="536"/>
      <point x="365" y="625"/>
      <point x="344" y="693" type="curve"/>
    </contour>
  </outline>
</glyph>
<glyph name="uni62F5" format="2">
  <advance height="1000" width="1000"/>
  <unicode hex="62F5"/>
  <outline>
    <contour>
      <point x="367" y="721" type="line"/>
      <point x="367" y="583" type="line"/>
      <point x="957" y="583" type="line"/>
      <point x="957" y="721" type="line"/>
    </contour>
    <contour>
      <point x="567" y="276" type="line"/>
      <point x="567" y="154" type="line"/>
      <point x="959" y="154" type="line"/>
      <point x="959" y="276" type="line"/>
    </contour>
    <contour>
      <point x="611" y="514" type="line"/>
      <point x="611" y="395" type="line"/>
      <point x="868" y="395" type="line"/>
      <point x="868" y="514" type="line"/>
    </contour>
    <contour>
      <point x="706" y="356" type="line"/>
      <point x="706" y="46" type="line" smooth="yes"/>
      <point x="706" y="35"/>
      <point x="702" y="33"/>
      <point x="690" y="33" type="curve" smooth="yes"/>
      <point x="678" y="33"/>
      <point x="639" y="33"/>
      <point x="606" y="34" type="curve"/>
      <point x="622" y="-2"/>
      <point x="639" y="-56"/>
      <point x="643" y="-94" type="curve"/>
      <point x="705" y="-94"/>
      <point x="752" y="-92"/>
      <point x="790" y="-72" type="curve" smooth="yes"/>
      <point x="829" y="-51"/>
      <point x="837" y="-16"/>
      <point x="837" y="43" type="curve" smooth="yes"/>
      <point x="837" y="356" type="line"/>
    </contour>
    <contour>
      <point x="543" y="856" type="line"/>
      <point x="493" y="639"/>
      <point x="401" y="436"/>
      <point x="274" y="315" type="curve"/>
      <point x="305" y="292"/>
      <point x="362" y="239"/>
      <point x="385" y="212" type="curve"/>
      <point x="517" y="354"/>
      <point x="622" y="584"/>
      <point x="684" y="827" type="curve"/>
    </contour>
    <contour>
      <point x="407" y="468" type="line"/>
      <point x="407" y="-95" type="line"/>
      <point x="540" y="-95" type="line"/>
      <point x="540" y="468" type="line"/>
    </contour>
    <contour>
      <point x="824" y="514" type="line"/>
      <point x="824" y="492" type="line"/>
      <point x="803" y="452"/>
      <point x="752" y="391"/>
      <point x="706" y="356" type="curve"/>
      <point x="729" y="336"/>
      <point x="765" y="296"/>
      <point x="783" y="270" type="curve"/>
      <point x="844" y="318"/>
      <point x="913" y="394"/>
      <point x="959" y="464" type="curve"/>
      <point x="876" y="521" type="line"/>
      <point x="853" y="514" type="line"/>
    </contour>
    <contour>
      <point x="25" y="361" type="curve"/>
      <point x="58" y="222" type="line"/>
      <point x="145" y="253"/>
      <point x="249" y="289"/>
      <point x="344" y="325" type="curve"/>
      <point x="319" y="453" type="line"/>
      <point x="213" y="417"/>
      <point x="101" y="381"/>
    </contour>
    <contour>
      <point x="42" y="672" type="line"/>
      <point x="42" y="539" type="line"/>
      <point x="335" y="539" type="line"/>
      <point x="335" y="672" type="line"/>
    </contour>
    <contour>
      <point x="133" y="854" type="line"/>
      <point x="133" y="72" type="line" smooth="yes"/>
      <point x="133" y="59"/>
      <point x="129" y="55"/>
      <point x="117" y="55" type="curve" smooth="yes"/>
      <point x="105" y="55"/>
      <point x="72" y="55"/>
      <point x="40" y="56" type="curve"/>
      <point x="57" y="18"/>
      <point x="73" y="-42"/>
      <point x="76" y="-78" type="curve"/>
      <point x="141" y="-78"/>
      <point x="188" y="-73"/>
      <point x="222" y="-50" type="curve" smooth="yes"/>
      <point x="256" y="-28"/>
      <point x="265" y="8"/>
      <point x="265" y="71" type="curve" smooth="yes"/>
      <point x="265" y="854" type="line"/>
    </contour>
  </outline>
</glyph>
<glyph name="uni65CC" format="2">
  <advance height="1000" width="1000"/>
  <unicode hex="65CC"/>
  <outline>
    <contour>
      <point x="137" y="813" type="curve"/>
      <point x="165" y="768"/>
      <point x="200" y="705"/>
      <point x="214" y="666" type="curve"/>
      <point x="214" y="666"/>
      <point x="334" y="729"/>
      <point x="334" y="729" type="curve"/>
      <point x="317" y="768"/>
      <point x="279" y="827"/>
      <point x="250" y="869" type="curve"/>
      <point x="250" y="869"/>
      <point x="137" y="813"/>
    </contour>
    <contour>
      <point x="36" y="704" type="curve"/>
      <point x="36" y="704"/>
      <point x="36" y="570"/>
      <point x="36" y="570" type="curve"/>
      <point x="36" y="570"/>
      <point x="437" y="570"/>
      <point x="437" y="570" type="curve"/>
      <point x="437" y="570"/>
      <point x="437" y="704"/>
      <point x="437" y="704" type="curve"/>
      <point x="437" y="704"/>
      <point x="36" y="704"/>
    </contour>
    <contour>
      <point x="539" y="485" type="curve"/>
      <point x="539" y="485"/>
      <point x="539" y="358"/>
      <point x="539" y="358" type="curve"/>
      <point x="539" y="358"/>
      <point x="949" y="358"/>
      <point x="949" y="358" type="curve"/>
      <point x="949" y="358"/>
      <point x="949" y="485"/>
      <point x="949" y="485" type="curve"/>
      <point x="949" y="485"/>
      <point x="539" y="485"/>
    </contour>
    <contour>
      <point x="503" y="268" type="curve"/>
      <point x="503" y="268"/>
      <point x="503" y="142"/>
      <point x="503" y="142" type="curve"/>
      <point x="503" y="142"/>
      <point x="931" y="142"/>
      <point x="931" y="142" type="curve"/>
      <point x="931" y="142"/>
      <point x="931" y="268"/>
      <point x="931" y="268" type="curve"/>
      <point x="931" y="268"/>
      <point x="503" y="268"/>
    </contour>
    <contour>
      <point x="192" y="494" type="curve"/>
      <point x="192" y="494"/>
      <point x="192" y="363"/>
      <point x="192" y="363" type="curve"/>
      <point x="192" y="363"/>
      <point x="346" y="363"/>
      <point x="346" y="363" type="curve"/>
      <point x="346" y="363"/>
      <point x="346" y="494"/>
      <point x="346" y="494" type="curve"/>
      <point x="346" y="494"/>
      <point x="192" y="494"/>
    </contour>
    <contour>
      <point x="651" y="586" type="curve"/>
      <point x="651" y="586"/>
      <point x="651" y="-13"/>
      <point x="651" y="-13" type="curve"/>
      <point x="651" y="-13"/>
      <point x="792" y="-13"/>
      <point x="792" y="-13" type="curve"/>
      <point x="792" y="-13"/>
      <point x="792" y="586"/>
      <point x="792" y="586" type="curve"/>
      <point x="792" y="586"/>
      <point x="651" y="586"/>
    </contour>
    <contour>
      <point x="296" y="494" type="curve"/>
      <point x="296" y="494"/>
      <point x="296" y="468"/>
      <point x="296" y="468" type="curve"/>
      <point x="293" y="170"/>
      <point x="290" y="70"/>
      <point x="277" y="47" type="curve"/>
      <point x="269" y="35"/>
      <point x="261" y="31"/>
      <point x="249" y="31" type="curve" smooth="yes"/>
      <point x="234" y="31"/>
      <point x="213" y="32"/>
      <point x="187" y="35" type="curve"/>
      <point x="206" y="0"/>
      <point x="220" y="-55"/>
      <point x="222" y="-93" type="curve"/>
      <point x="262" y="-94"/>
      <point x="299" y="-93"/>
      <point x="324" y="-87" type="curve" smooth="yes"/>
      <point x="352" y="-81"/>
      <point x="372" y="-70"/>
      <point x="393" y="-39" type="curve" smooth="yes"/>
      <point x="418" y="-1"/>
      <point x="422" y="122"/>
      <point x="426" y="440" type="curve" smooth="yes"/>
      <point x="426" y="456"/>
      <point x="426" y="494"/>
      <point x="426" y="494" type="curve"/>
      <point x="426" y="494"/>
      <point x="296" y="494"/>
    </contour>
    <contour>
      <point x="537" y="738" type="curve"/>
      <point x="537" y="738"/>
      <point x="537" y="607"/>
      <point x="537" y="607" type="curve"/>
      <point x="537" y="607"/>
      <point x="965" y="607"/>
      <point x="965" y="607" type="curve"/>
      <point x="965" y="607"/>
      <point x="965" y="738"/>
      <point x="965" y="738" type="curve"/>
      <point x="965" y="738"/>
      <point x="537" y="738"/>
    </contour>
    <contour>
      <point x="444" y="48" type="curve"/>
      <point x="444" y="48"/>
      <point x="444" y="-81"/>
      <point x="444" y="-81" type="curve"/>
      <point x="444" y="-81"/>
      <point x="976" y="-81"/>
      <point x="976" y="-81" type="curve"/>
      <point x="976" y="-81"/>
      <point x="976" y="48"/>
      <point x="976" y="48" type="curve"/>
      <point x="976" y="48"/>
      <point x="444" y="48"/>
    </contour>
    <contour>
      <point x="516" y="856" type="curve"/>
      <point x="494" y="743"/>
      <point x="446" y="633"/>
      <point x="376" y="568" type="curve"/>
      <point x="411" y="551"/>
      <point x="474" y="514"/>
      <point x="502" y="491" type="curve"/>
      <point x="570" y="569"/>
      <point x="628" y="695"/>
      <point x="658" y="830" type="curve"/>
      <point x="658" y="830"/>
      <point x="516" y="856"/>
    </contour>
    <contour>
      <point x="508" y="575" type="curve"/>
      <point x="492" y="488"/>
      <point x="459" y="397"/>
      <point x="414" y="340" type="curve"/>
      <point x="446" y="327"/>
      <point x="505" y="297"/>
      <point x="532" y="277" type="curve"/>
      <point x="577" y="342"/>
      <point x="617" y="446"/>
      <point x="639" y="549" type="curve"/>
      <point x="639" y="549"/>
      <point x="508" y="575"/>
    </contour>
    <contour>
      <point x="133" y="623" type="curve"/>
      <point x="133" y="623"/>
      <point x="133" y="409"/>
      <point x="133" y="409" type="curve"/>
      <point x="133" y="283"/>
      <point x="119" y="127"/>
      <point x="14" y="-9" type="curve"/>
      <point x="49" y="-32"/>
      <point x="96" y="-69"/>
      <point x="121" y="-98" type="curve"/>
      <point x="242" y="56"/>
      <point x="260" y="246"/>
      <point x="260" y="407" type="curve"/>
      <point x="260" y="407"/>
      <point x="260" y="623"/>
      <point x="260" y="623" type="curve"/>
      <point x="260" y="623"/>
      <point x="133" y="623"/>
    </contour>
  </outline>
</glyph>
<glyph name="uni65D0" format="2">
  <advance height="1000" width="1000"/>
  <unicode hex="65D0"/>
  <outline>
    <contour>
      <point x="137" y="813" type="curve"/>
      <point x="165" y="768"/>
      <point x="200" y="705"/>
      <point x="214" y="666" type="curve"/>
      <point x="214" y="666"/>
      <point x="334" y="729"/>
      <point x="334" y="729" type="curve"/>
      <point x="317" y="768"/>
      <point x="279" y="827"/>
      <point x="250" y="869" type="curve"/>
      <point x="250" y="869"/>
      <point x="137" y="813"/>
    </contour>
    <contour>
      <point x="27" y="705" type="curve"/>
      <point x="27" y="705"/>
      <point x="27" y="576"/>
      <point x="27" y="576" type="curve"/>
      <point x="27" y="576"/>
      <point x="428" y="576"/>
      <point x="428" y="576" type="curve"/>
      <point x="428" y="576"/>
      <point x="428" y="705"/>
      <point x="428" y="705" type="curve"/>
      <point x="428" y="705"/>
      <point x="27" y="705"/>
    </contour>
    <contour>
      <point x="195" y="484" type="curve"/>
      <point x="195" y="484"/>
      <point x="195" y="357"/>
      <point x="195" y="357" type="curve"/>
      <point x="195" y="357"/>
      <point x="340" y="357"/>
      <point x="340" y="357" type="curve"/>
      <point x="340" y="357"/>
      <point x="340" y="484"/>
      <point x="340" y="484" type="curve"/>
      <point x="340" y="484"/>
      <point x="195" y="484"/>
    </contour>
    <contour>
      <point x="118" y="623" type="curve"/>
      <point x="115" y="380"/>
      <point x="114" y="149"/>
      <point x="13" y="3" type="curve"/>
      <point x="49" y="-20"/>
      <point x="91" y="-63"/>
      <point x="113" y="-97" type="curve"/>
      <point x="233" y="77"/>
      <point x="246" y="343"/>
      <point x="250" y="623" type="curve"/>
      <point x="250" y="623"/>
      <point x="118" y="623"/>
    </contour>
    <contour>
      <point x="289" y="484" type="curve"/>
      <point x="289" y="484"/>
      <point x="289" y="459"/>
      <point x="289" y="459" type="curve"/>
      <point x="286" y="166"/>
      <point x="283" y="67"/>
      <point x="270" y="45" type="curve" smooth="yes"/>
      <point x="262" y="32"/>
      <point x="254" y="29"/>
      <point x="243" y="29" type="curve" smooth="yes"/>
      <point x="228" y="29"/>
      <point x="207" y="29"/>
      <point x="181" y="32" type="curve"/>
      <point x="200" y="-2"/>
      <point x="213" y="-55"/>
      <point x="215" y="-93" type="curve"/>
      <point x="255" y="-94"/>
      <point x="291" y="-93"/>
      <point x="316" y="-87" type="curve" smooth="yes"/>
      <point x="344" y="-81"/>
      <point x="364" y="-70"/>
      <point x="384" y="-40" type="curve" smooth="yes"/>
      <point x="408" y="-3"/>
      <point x="412" y="118"/>
      <point x="416" y="431" type="curve" smooth="yes"/>
      <point x="417" y="447"/>
      <point x="417" y="484"/>
      <point x="417" y="484" type="curve"/>
      <point x="417" y="484"/>
      <point x="289" y="484"/>
    </contour>
    <contour>
      <point x="533" y="758" type="curve"/>
      <point x="533" y="758"/>
      <point x="533" y="640"/>
      <point x="533" y="640" type="curve"/>
      <point x="533" y="640"/>
      <point x="970" y="640"/>
      <point x="970" y="640" type="curve"/>
      <point x="970" y="640"/>
      <point x="970" y="758"/>
      <point x="970" y="758" type="curve"/>
      <point x="970" y="758"/>
      <point x="533" y="758"/>
    </contour>
    <contour>
      <point x="512" y="856" type="curve"/>
      <point x="490" y="757"/>
      <point x="445" y="663"/>
      <point x="381" y="605" type="curve"/>
      <point x="412" y="588"/>
      <point x="468" y="551"/>
      <point x="492" y="530" type="curve"/>
      <point x="558" y="599"/>
      <point x="613" y="711"/>
      <point x="642" y="831" type="curve"/>
      <point x="642" y="831"/>
      <point x="512" y="856"/>
    </contour>
    <contour>
      <point x="555" y="608" type="curve"/>
      <point x="555" y="608"/>
      <point x="555" y="298"/>
      <point x="555" y="298" type="curve"/>
      <point x="555" y="175"/>
      <point x="540" y="63"/>
      <point x="429" y="-16" type="curve"/>
      <point x="459" y="-34"/>
      <point x="508" y="-75"/>
      <point x="530" y="-101" type="curve"/>
      <point x="657" y="-4"/>
      <point x="675" y="143"/>
      <point x="675" y="296" type="curve"/>
      <point x="675" y="296"/>
      <point x="675" y="608"/>
      <point x="675" y="608" type="curve"/>
      <point x="675" y="608"/>
      <point x="555" y="608"/>
    </contour>
    <contour>
      <point x="429" y="479" type="curve"/>
      <point x="453" y="426"/>
      <point x="475" y="354"/>
      <point x="481" y="308" type="curve"/>
      <point x="481" y="308"/>
      <point x="585" y="351"/>
      <point x="585" y="351" type="curve"/>
      <point x="577" y="397"/>
      <point x="553" y="466"/>
      <point x="527" y="518" type="curve"/>
      <point x="527" y="518"/>
      <point x="429" y="479"/>
    </contour>
    <contour>
      <point x="415" y="221" type="curve"/>
      <point x="415" y="221"/>
      <point x="459" y="92"/>
      <point x="459" y="92" type="curve"/>
      <point x="508" y="127"/>
      <point x="555" y="162"/>
      <point x="602" y="198" type="curve"/>
      <point x="602" y="198"/>
      <point x="571" y="296"/>
      <point x="571" y="296" type="curve"/>
      <point x="512" y="266"/>
      <point x="456" y="238"/>
    </contour>
    <contour>
      <point x="707" y="608" type="curve"/>
      <point x="707" y="608"/>
      <point x="707" y="67"/>
      <point x="707" y="67" type="curve"/>
      <point x="707" y="-54"/>
      <point x="728" y="-90"/>
      <point x="817" y="-90" type="curve" smooth="yes"/>
      <point x="834" y="-90"/>
      <point x="858" y="-90"/>
      <point x="876" y="-90" type="curve" smooth="yes"/>
      <point x="945" y="-90"/>
      <point x="976" y="-50"/>
      <point x="988" y="68" type="curve"/>
      <point x="954" y="76"/>
      <point x="906" y="97"/>
      <point x="881" y="117" type="curve"/>
      <point x="879" y="42"/>
      <point x="876" y="25"/>
      <point x="864" y="25" type="curve" smooth="yes"/>
      <point x="859" y="25"/>
      <point x="846" y="25"/>
      <point x="842" y="25" type="curve" smooth="yes"/>
      <point x="831" y="25"/>
      <point x="829" y="29"/>
      <point x="829" y="67" type="curve"/>
      <point x="829" y="67"/>
      <point x="829" y="608"/>
      <point x="829" y="608" type="curve"/>
      <point x="829" y="608"/>
      <point x="707" y="608"/>
    </contour>
    <contour>
      <point x="860" y="547" type="curve"/>
      <point x="847" y="493"/>
      <point x="821" y="417"/>
      <point x="798" y="369" type="curve"/>
      <point x="798" y="369"/>
      <point x="886" y="325"/>
      <point x="886" y="325" type="curve"/>
      <point x="912" y="368"/>
      <point x="944" y="435"/>
      <point x="980" y="495" type="curve"/>
      <point x="980" y="495"/>
      <point x="860" y="547"/>
    </contour>
    <contour>
      <point x="777" y="252" type="curve"/>
      <point x="823" y="212"/>
      <point x="881" y="154"/>
      <point x="907" y="115" type="curve"/>
      <point x="907" y="115"/>
      <point x="984" y="199"/>
      <point x="984" y="199" type="curve"/>
      <point x="956" y="236"/>
      <point x="895" y="290"/>
      <point x="849" y="327" type="curve"/>
      <point x="849" y="327"/>
      <point x="777" y="252"/>
    </contour>
  </outline>
</glyph>
<glyph name="uni65DB" format="2">
  <advance height="1000" width="1000"/>
  <unicode hex="65DB"/>
  <outline>
    <contour>
      <point x="126" y="813" type="curve"/>
      <point x="154" y="768"/>
      <point x="189" y="705"/>
      <point x="203" y="666" type="curve"/>
      <point x="203" y="666"/>
      <point x="323" y="729"/>
      <point x="323" y="729" type="curve"/>
      <point x="306" y="768"/>
      <point x="268" y="827"/>
      <point x="239" y="869" type="curve"/>
      <point x="239" y="869"/>
      <point x="126" y="813"/>
    </contour>
    <contour>
      <point x="30" y="709" type="curve"/>
      <point x="30" y="709"/>
      <point x="30" y="575"/>
      <point x="30" y="575" type="curve"/>
      <point x="30" y="575"/>
      <point x="418" y="575"/>
      <point x="418" y="575" type="curve"/>
      <point x="418" y="575"/>
      <point x="418" y="709"/>
      <point x="418" y="709" type="curve"/>
      <point x="418" y="709"/>
      <point x="30" y="709"/>
    </contour>
    <contour>
      <point x="431" y="458" type="curve"/>
      <point x="431" y="458"/>
      <point x="431" y="357"/>
      <point x="431" y="357" type="curve"/>
      <point x="431" y="357"/>
      <point x="967" y="357"/>
      <point x="967" y="357" type="curve"/>
      <point x="967" y="357"/>
      <point x="967" y="458"/>
      <point x="967" y="458" type="curve"/>
      <point x="967" y="458"/>
      <point x="431" y="458"/>
    </contour>
    <contour>
      <point x="530" y="126" type="curve"/>
      <point x="530" y="126"/>
      <point x="530" y="44"/>
      <point x="530" y="44" type="curve"/>
      <point x="530" y="44"/>
      <point x="873" y="44"/>
      <point x="873" y="44" type="curve"/>
      <point x="873" y="44"/>
      <point x="873" y="126"/>
      <point x="873" y="126" type="curve"/>
      <point x="873" y="126"/>
      <point x="530" y="126"/>
    </contour>
    <contour>
      <point x="530" y="13" type="curve"/>
      <point x="530" y="13"/>
      <point x="530" y="-77"/>
      <point x="530" y="-77" type="curve"/>
      <point x="530" y="-77"/>
      <point x="873" y="-77"/>
      <point x="873" y="-77" type="curve"/>
      <point x="873" y="-77"/>
      <point x="873" y="13"/>
      <point x="873" y="13" type="curve"/>
      <point x="873" y="13"/>
      <point x="530" y="13"/>
    </contour>
    <contour>
      <point x="170" y="485" type="curve"/>
      <point x="170" y="485"/>
      <point x="170" y="354"/>
      <point x="170" y="354" type="curve"/>
      <point x="170" y="354"/>
      <point x="324" y="354"/>
      <point x="324" y="354" type="curve"/>
      <point x="324" y="354"/>
      <point x="324" y="485"/>
      <point x="324" y="485" type="curve"/>
      <point x="324" y="485"/>
      <point x="170" y="485"/>
    </contour>
    <contour>
      <point x="635" y="573" type="curve"/>
      <point x="635" y="573"/>
      <point x="635" y="253"/>
      <point x="635" y="253" type="curve"/>
      <point x="635" y="253"/>
      <point x="757" y="253"/>
      <point x="757" y="253" type="curve"/>
      <point x="757" y="253"/>
      <point x="757" y="573"/>
      <point x="757" y="573" type="curve"/>
      <point x="757" y="573"/>
      <point x="635" y="573"/>
    </contour>
    <contour>
      <point x="639" y="179" type="curve"/>
      <point x="639" y="179"/>
      <point x="639" y="-64"/>
      <point x="639" y="-64" type="curve"/>
      <point x="639" y="-64"/>
      <point x="753" y="-64"/>
      <point x="753" y="-64" type="curve"/>
      <point x="753" y="-64"/>
      <point x="753" y="179"/>
      <point x="753" y="179" type="curve"/>
      <point x="753" y="179"/>
      <point x="639" y="179"/>
    </contour>
    <contour>
      <point x="111" y="624" type="curve"/>
      <point x="108" y="382"/>
      <point x="108" y="155"/>
      <point x="15" y="8" type="curve"/>
      <point x="51" y="-15"/>
      <point x="94" y="-60"/>
      <point x="117" y="-95" type="curve"/>
      <point x="230" y="80"/>
      <point x="243" y="345"/>
      <point x="247" y="624" type="curve"/>
      <point x="247" y="624"/>
      <point x="111" y="624"/>
    </contour>
    <contour>
      <point x="278" y="485" type="curve"/>
      <point x="278" y="485"/>
      <point x="278" y="459"/>
      <point x="278" y="459" type="curve"/>
      <point x="276" y="165"/>
      <point x="274" y="68"/>
      <point x="262" y="46" type="curve"/>
      <point x="254" y="34"/>
      <point x="247" y="30"/>
      <point x="235" y="30" type="curve" smooth="yes"/>
      <point x="221" y="30"/>
      <point x="201" y="30"/>
      <point x="178" y="33" type="curve"/>
      <point x="196" y="-2"/>
      <point x="210" y="-57"/>
      <point x="212" y="-96" type="curve"/>
      <point x="251" y="-96"/>
      <point x="286" y="-95"/>
      <point x="311" y="-89" type="curve" smooth="yes"/>
      <point x="339" y="-83"/>
      <point x="358" y="-72"/>
      <point x="378" y="-41" type="curve" smooth="yes"/>
      <point x="402" y="-5"/>
      <point x="405" y="118"/>
      <point x="408" y="432" type="curve" smooth="yes"/>
      <point x="408" y="447"/>
      <point x="408" y="485"/>
      <point x="408" y="485" type="curve"/>
      <point x="408" y="485"/>
      <point x="278" y="485"/>
    </contour>
    <contour>
      <point x="521" y="772" type="curve"/>
      <point x="521" y="772"/>
      <point x="521" y="654"/>
      <point x="521" y="654" type="curve"/>
      <point x="521" y="654"/>
      <point x="972" y="654"/>
      <point x="972" y="654" type="curve"/>
      <point x="972" y="654"/>
      <point x="972" y="772"/>
      <point x="972" y="772" type="curve"/>
      <point x="972" y="772"/>
      <point x="521" y="772"/>
    </contour>
    <contour>
      <point x="502" y="855" type="curve"/>
      <point x="480" y="754"/>
      <point x="433" y="658"/>
      <point x="366" y="600" type="curve"/>
      <point x="398" y="585"/>
      <point x="455" y="551"/>
      <point x="480" y="531" type="curve"/>
      <point x="546" y="600"/>
      <point x="602" y="710"/>
      <point x="631" y="831" type="curve"/>
      <point x="631" y="831"/>
      <point x="502" y="855"/>
    </contour>
    <contour>
      <point x="842" y="655" type="curve"/>
      <point x="755" y="630"/>
      <point x="601" y="617"/>
      <point x="466" y="612" type="curve"/>
      <point x="478" y="588"/>
      <point x="492" y="547"/>
      <point x="496" y="521" type="curve"/>
      <point x="641" y="523"/>
      <point x="814" y="537"/>
      <point x="937" y="573" type="curve"/>
      <point x="937" y="573"/>
      <point x="842" y="655"/>
    </contour>
    <contour>
      <point x="587" y="389" type="curve"/>
      <point x="546" y="344"/>
      <point x="467" y="303"/>
      <point x="390" y="282" type="curve"/>
      <point x="416" y="259"/>
      <point x="452" y="215"/>
      <point x="470" y="187" type="curve"/>
      <point x="554" y="219"/>
      <point x="637" y="285"/>
      <point x="685" y="352" type="curve"/>
      <point x="685" y="352"/>
      <point x="587" y="389"/>
    </contour>
    <contour>
      <point x="792" y="385" type="curve"/>
      <point x="792" y="385"/>
      <point x="710" y="353"/>
      <point x="710" y="353" type="curve"/>
      <point x="754" y="288"/>
      <point x="833" y="223"/>
      <point x="908" y="190" type="curve"/>
      <point x="926" y="220"/>
      <point x="963" y="263"/>
      <point x="989" y="286" type="curve"/>
      <point x="916" y="305"/>
      <point x="835" y="345"/>
    </contour>
    <contour>
      <point x="471" y="493" type="curve"/>
      <point x="490" y="469"/>
      <point x="509" y="435"/>
      <point x="515" y="412" type="curve"/>
      <point x="515" y="412"/>
      <point x="616" y="467"/>
      <point x="616" y="467" type="curve"/>
      <point x="607" y="489"/>
      <point x="587" y="520"/>
      <point x="566" y="541" type="curve"/>
      <point x="566" y="541"/>
      <point x="471" y="493"/>
    </contour>
    <contour>
      <point x="823" y="554" type="curve"/>
      <point x="813" y="528"/>
      <point x="793" y="491"/>
      <point x="777" y="465" type="curve"/>
      <point x="777" y="465"/>
      <point x="857" y="431"/>
      <point x="857" y="431" type="curve"/>
      <point x="878" y="451"/>
      <point x="905" y="481"/>
      <point x="938" y="514" type="curve"/>
      <point x="938" y="514"/>
      <point x="823" y="554"/>
    </contour>
    <contour>
      <point x="471" y="246" type="curve"/>
      <point x="471" y="246"/>
      <point x="471" y="-96"/>
      <point x="471" y="-96" type="curve"/>
      <point x="471" y="-96"/>
      <point x="595" y="-96"/>
      <point x="595" y="-96" type="curve"/>
      <point x="595" y="-96"/>
      <point x="595" y="156"/>
      <point x="595" y="156" type="curve"/>
      <point x="595" y="156"/>
      <point x="804" y="156"/>
      <point x="804" y="156" type="curve"/>
      <point x="804" y="156"/>
      <point x="804" y="-96"/>
      <point x="804" y="-96" type="curve"/>
      <point x="804" y="-96"/>
      <point x="934" y="-96"/>
      <point x="934" y="-96" type="curve"/>
      <point x="934" y="-96"/>
      <point x="934" y="246"/>
      <point x="934" y="246" type="curve"/>
      <point x="934" y="246"/>
      <point x="471" y="246"/>
    </contour>
  </outline>
</glyph>
<glyph name="uni674E" format="2">
  <advance height="1000" width="1000"/>
  <unicode hex="674E"/>
  <outline>
    <contour>
      <point x="50" y="770" type="line"/>
      <point x="50" y="636" type="line"/>
      <point x="951" y="636" type="line"/>
      <point x="951" y="770" type="line"/>
    </contour>
    <contour>
      <point x="422" y="855" type="line"/>
      <point x="422" y="459" type="line"/>
      <point x="570" y="459" type="line"/>
      <point x="570" y="855" type="line"/>
    </contour>
    <contour>
      <point x="362" y="729" type="line"/>
      <point x="295" y="634"/>
      <point x="162" y="551"/>
      <point x="18" y="509" type="curve"/>
      <point x="49" y="481"/>
      <point x="91" y="427"/>
      <point x="111" y="393" type="curve"/>
      <point x="266" y="448"/>
      <point x="400" y="553"/>
      <point x="485" y="682" type="curve"/>
    </contour>
    <contour>
      <point x="622" y="728" type="curve"/>
      <point x="504" y="682" type="line"/>
      <point x="592" y="554"/>
      <point x="728" y="450"/>
      <point x="884" y="396" type="curve"/>
      <point x="905" y="433"/>
      <point x="947" y="489"/>
      <point x="979" y="517" type="curve"/>
      <point x="830" y="556"/>
      <point x="692" y="635"/>
    </contour>
    <contour>
      <point x="218" y="445" type="line"/>
      <point x="218" y="321" type="line"/>
      <point x="673" y="321" type="line"/>
      <point x="673" y="445" type="line"/>
    </contour>
    <contour>
      <point x="48" y="250" type="line"/>
      <point x="48" y="119" type="line"/>
      <point x="953" y="119" type="line"/>
      <point x="953" y="250" type="line"/>
    </contour>
    <contour>
      <point x="424" y="288" type="line"/>
      <point x="424" y="59" type="line" smooth="yes"/>
      <point x="424" y="46"/>
      <point x="419" y="43"/>
      <point x="399" y="42" type="curve"/>
      <point x="379" y="42"/>
      <point x="302" y="42"/>
      <point x="245" y="45" type="curve"/>
      <point x="268" y="10"/>
      <point x="299" y="-51"/>
      <point x="309" y="-91" type="curve"/>
      <point x="384" y="-91"/>
      <point x="447" y="-89"/>
      <point x="499" y="-69" type="curve" smooth="yes"/>
      <point x="552" y="-48"/>
      <point x="568" y="-13"/>
      <point x="568" y="54" type="curve" smooth="yes"/>
      <point x="568" y="288" type="line"/>
    </contour>
    <contour>
      <point x="646" y="445" type="line"/>
      <point x="646" y="418" type="line"/>
      <point x="604" y="381"/>
      <point x="505" y="320"/>
      <point x="424" y="288" type="curve"/>
      <point x="442" y="269"/>
      <point x="477" y="231"/>
      <point x="492" y="209" type="curve"/>
      <point x="601" y="251"/>
      <point x="713" y="313"/>
      <point x="804" y="370" type="curve"/>
      <point x="715" y="452" type="line"/>
      <point x="684" y="445" type="line"/>
    </contour>
  </outline>
</glyph>
<glyph name="uni682B" format="2">
  <advance height="1000" width="1000"/>
  <unicode hex="682B"/>
  <outline>
    <contour>
      <point x="391" y="724" type="line"/>
      <point x="391" y="593" type="line"/>
      <point x="972" y="593" type="line"/>
      <point x="972" y="724" type="line"/>
    </contour>
    <contour>
      <point x="626" y="539" type="line"/>
      <point x="626" y="417" type="line"/>
      <point x="888" y="417" type="line"/>
      <point x="888" y="539" type="line"/>
    </contour>
    <contour>
      <point x="592" y="306" type="line"/>
      <point x="592" y="175" type="line"/>
      <point x="975" y="175" type="line"/>
      <point x="975" y="306" type="line"/>
    </contour>
    <contour>
      <point x="725" y="369" type="line"/>
      <point x="725" y="50" type="line" smooth="yes"/>
      <point x="725" y="40"/>
      <point x="721" y="37"/>
      <point x="709" y="37" type="curve" smooth="yes"/>
      <point x="696" y="37"/>
      <point x="656" y="37"/>
      <point x="622" y="38" type="curve"/>
      <point x="641" y="1"/>
      <point x="661" y="-57"/>
      <point x="667" y="-97" type="curve"/>
      <point x="727" y="-97"/>
      <point x="775" y="-94"/>
      <point x="814" y="-73" type="curve" smooth="yes"/>
      <point x="854" y="-51"/>
      <point x="863" y="-14"/>
      <point x="863" y="47" type="curve" smooth="yes"/>
      <point x="863" y="369" type="line"/>
    </contour>
    <contour>
      <point x="835" y="539" type="line"/>
      <point x="835" y="515" type="line"/>
      <point x="815" y="474"/>
      <point x="766" y="408"/>
      <point x="725" y="369" type="curve"/>
      <point x="746" y="350"/>
      <point x="782" y="312"/>
      <point x="799" y="287" type="curve"/>
      <point x="860" y="337"/>
      <point x="928" y="415"/>
      <point x="976" y="483" type="curve"/>
      <point x="893" y="546" type="line"/>
      <point x="866" y="539" type="line"/>
    </contour>
    <contour>
      <point x="565" y="858" type="line"/>
      <point x="519" y="630"/>
      <point x="431" y="423"/>
      <point x="298" y="300" type="curve"/>
      <point x="327" y="272"/>
      <point x="375" y="211"/>
      <point x="393" y="180" type="curve"/>
      <point x="541" y="330"/>
      <point x="645" y="572"/>
      <point x="703" y="832" type="curve"/>
    </contour>
    <contour>
      <point x="41" y="653" type="line"/>
      <point x="41" y="519" type="line"/>
      <point x="375" y="519" type="line"/>
      <point x="375" y="653" type="line"/>
    </contour>
    <contour>
      <point x="152" y="855" type="line"/>
      <point x="152" y="-95" type="line"/>
      <point x="283" y="-95" type="line"/>
      <point x="283" y="855" type="line"/>
    </contour>
    <contour>
      <point x="150" y="558" type="line"/>
      <point x="129" y="440"/>
      <point x="78" y="292"/>
      <point x="16" y="207" type="curve"/>
      <point x="36" y="173"/>
      <point x="66" y="117"/>
      <point x="78" y="78" type="curve"/>
      <point x="149" y="182"/>
      <point x="201" y="373"/>
      <point x="228" y="531" type="curve"/>
    </contour>
    <contour>
      <point x="271" y="553" type="curve"/>
      <point x="213" y="499" type="line"/>
      <point x="240" y="462"/>
      <point x="292" y="381"/>
      <point x="314" y="336" type="curve"/>
      <point x="382" y="437" type="line"/>
      <point x="366" y="456"/>
      <point x="292" y="535"/>
    </contour>
    <contour>
      <point x="435" y="413" type="line"/>
      <point x="435" y="-95" type="line"/>
      <point x="563" y="-95" type="line"/>
      <point x="563" y="530" type="line"/>
      <point x="555" y="534" type="line"/>
    </contour>
  </outline>
</glyph>
<glyph name="uni6D0A" format="2">
  <advance height="1000" width="1000"/>
  <unicode hex="6D0A"/>
  <outline>
    <contour>
      <point x="308" y="716" type="line"/>
      <point x="308" y="587" type="line"/>
      <point x="973" y="587" type="line"/>
      <point x="973" y="716" type="line"/>
    </contour>
    <contour>
      <point x="529" y="304" type="line"/>
      <point x="529" y="184" type="line"/>
      <point x="964" y="184" type="line"/>
      <point x="964" y="304" type="line"/>
    </contour>
    <contour>
      <point x="552" y="535" type="line"/>
      <point x="552" y="418" type="line"/>
      <point x="837" y="418" type="line"/>
      <point x="837" y="535" type="line"/>
    </contour>
    <contour>
      <point x="687" y="373" type="line"/>
      <point x="687" y="57" type="line" smooth="yes"/>
      <point x="687" y="44"/>
      <point x="682" y="41"/>
      <point x="666" y="41" type="curve" smooth="yes"/>
      <point x="649" y="41"/>
      <point x="588" y="41"/>
      <point x="541" y="43" type="curve"/>
      <point x="559" y="6"/>
      <point x="579" y="-51"/>
      <point x="585" y="-91" type="curve"/>
      <point x="662" y="-91"/>
      <point x="721" y="-89"/>
      <point x="766" y="-69" type="curve" smooth="yes"/>
      <point x="812" y="-48"/>
      <point x="823" y="-12"/>
      <point x="823" y="54" type="curve" smooth="yes"/>
      <point x="823" y="373" type="line"/>
    </contour>
    <contour>
      <point x="509" y="856" type="line"/>
      <point x="463" y="641"/>
      <point x="372" y="451"/>
      <point x="236" y="340" type="curve"/>
      <point x="265" y="313"/>
      <point x="315" y="253"/>
      <point x="333" y="223" type="curve"/>
      <point x="484" y="359"/>
      <point x="589" y="581"/>
      <point x="649" y="829" type="curve"/>
    </contour>
    <contour>
      <point x="376" y="411" type="line"/>
      <point x="376" y="-93" type="line"/>
      <point x="508" y="-93" type="line"/>
      <point x="508" y="542" type="line"/>
      <point x="508" y="543" type="line"/>
    </contour>
    <contour>
      <point x="814" y="535" type="line"/>
      <point x="814" y="512" type="line"/>
      <point x="792" y="471"/>
      <point x="736" y="409"/>
      <point x="687" y="373" type="curve"/>
      <point x="710" y="353"/>
      <point x="746" y="313"/>
      <point x="764" y="287" type="curve"/>
      <point x="828" y="335"/>
      <point x="902" y="413"/>
      <point x="950" y="484" type="curve"/>
      <point x="866" y="542" type="line"/>
      <point x="843" y="535" type="line"/>
    </contour>
    <contour>
      <point x="70" y="735" type="line"/>
      <point x="117" y="694"/>
      <point x="183" y="636"/>
      <point x="213" y="599" type="curve"/>
      <point x="306" y="700" type="line"/>
      <point x="273" y="736"/>
      <point x="204" y="790"/>
      <point x="158" y="826" type="curve"/>
    </contour>
    <contour>
      <point x="18" y="465" type="line"/>
      <point x="71" y="428"/>
      <point x="144" y="373"/>
      <point x="178" y="337" type="curve"/>
      <point x="261" y="447" type="line"/>
      <point x="225" y="480"/>
      <point x="149" y="530"/>
      <point x="97" y="562" type="curve"/>
    </contour>
    <contour>
      <point x="39" y="16" type="curve"/>
      <point x="165" y="-68" type="line"/>
      <point x="214" y="31"/>
      <point x="261" y="139"/>
      <point x="302" y="244" type="curve"/>
      <point x="190" y="328" type="line"/>
      <point x="142" y="212"/>
      <point x="82" y="92"/>
    </contour>
  </outline>
</glyph>
<glyph name="uni6F7A" format="2">
  <advance height="1000" width="1000"/>
  <unicode hex="6F7A"/>
  <outline>
    <contour>
      <point x="379" y="820" type="line"/>
      <point x="379" y="719" type="line"/>
      <point x="812" y="719" type="line"/>
      <point x="812" y="692" type="line"/>
      <point x="379" y="692" type="line"/>
      <point x="379" y="591" type="line"/>
      <point x="945" y="591" type="line"/>
      <point x="945" y="820" type="line"/>
    </contour>
    <contour>
      <point x="306" y="820" type="line"/>
      <point x="306" y="504" type="line" smooth="yes"/>
      <point x="306" y="345"/>
      <point x="300" y="120"/>
      <point x="214" y="-32" type="curve"/>
      <point x="248" y="-44"/>
      <point x="307" y="-77"/>
      <point x="333" y="-99" type="curve"/>
      <point x="425" y="66"/>
      <point x="439" y="329"/>
      <point x="439" y="504" type="curve" smooth="yes"/>
      <point x="439" y="820" type="line"/>
    </contour>
    <contour>
      <point x="504" y="571" type="line"/>
      <point x="504" y="490" type="line"/>
      <point x="838" y="490" type="line"/>
      <point x="838" y="571" type="line"/>
    </contour>
    <contour>
      <point x="462" y="456" type="line"/>
      <point x="462" y="366" type="line"/>
      <point x="953" y="366" type="line"/>
      <point x="953" y="456" type="line"/>
    </contour>
    <contour>
      <point x="790" y="571" type="line"/>
      <point x="790" y="552" type="line"/>
      <point x="760" y="526"/>
      <point x="698" y="489"/>
      <point x="649" y="467" type="curve"/>
      <point x="663" y="454"/>
      <point x="688" y="426"/>
      <point x="700" y="409" type="curve"/>
      <point x="770" y="437"/>
      <point x="847" y="477"/>
      <point x="908" y="517" type="curve"/>
      <point x="843" y="577" type="line"/>
      <point x="819" y="571" type="line"/>
    </contour>
    <contour>
      <point x="399" y="122" type="curve"/>
      <point x="412" y="23" type="line"/>
      <point x="490" y="30"/>
      <point x="583" y="40"/>
      <point x="675" y="50" type="curve"/>
      <point x="673" y="142" type="line"/>
      <point x="571" y="134"/>
      <point x="471" y="126"/>
    </contour>
    <contour>
      <point x="649" y="467" type="line"/>
      <point x="649" y="365" type="line" smooth="yes"/>
      <point x="649" y="355"/>
      <point x="645" y="352"/>
      <point x="633" y="352" type="curve"/>
      <point x="623" y="351"/>
      <point x="580" y="351"/>
      <point x="549" y="353" type="curve"/>
      <point x="561" y="328"/>
      <point x="576" y="293"/>
      <point x="582" y="264" type="curve"/>
      <point x="642" y="264"/>
      <point x="689" y="264"/>
      <point x="725" y="276" type="curve" smooth="yes"/>
      <point x="761" y="289"/>
      <point x="771" y="311"/>
      <point x="771" y="360" type="curve" smooth="yes"/>
      <point x="771" y="467" type="line"/>
    </contour>
    <contour>
      <point x="440" y="281" type="line"/>
      <point x="440" y="193" type="line"/>
      <point x="630" y="193" type="line"/>
      <point x="630" y="281" type="line"/>
    </contour>
    <contour>
      <point x="578" y="281" type="line"/>
      <point x="578" y="263" type="line"/>
      <point x="561" y="233"/>
      <point x="526" y="188"/>
      <point x="497" y="161" type="curve"/>
      <point x="511" y="147"/>
      <point x="538" y="119"/>
      <point x="550" y="101" type="curve"/>
      <point x="599" y="136"/>
      <point x="652" y="186"/>
      <point x="694" y="231" type="curve"/>
      <point x="629" y="287" type="line"/>
      <point x="606" y="281" type="line"/>
    </contour>
    <contour>
      <point x="497" y="161" type="line"/>
      <point x="497" y="13" type="line" smooth="yes"/>
      <point x="497" y="5"/>
      <point x="494" y="2"/>
      <point x="485" y="2" type="curve" smooth="yes"/>
      <point x="477" y="2"/>
      <point x="451" y="2"/>
      <point x="429" y="3" type="curve"/>
      <point x="441" y="-24"/>
      <point x="453" y="-61"/>
      <point x="457" y="-90" type="curve"/>
      <point x="506" y="-90"/>
      <point x="542" y="-90"/>
      <point x="572" y="-75" type="curve" smooth="yes"/>
      <point x="603" y="-61"/>
      <point x="610" y="-37"/>
      <point x="610" y="10" type="curve" smooth="yes"/>
      <point x="610" y="161" type="line"/>
    </contour>
    <contour>
      <point x="698" y="281" type="line"/>
      <point x="698" y="193" type="line"/>
      <point x="901" y="193" type="line"/>
      <point x="901" y="281" type="line"/>
    </contour>
    <contour>
      <point x="686" y="140" type="line"/>
      <point x="686" y="46" type="line"/>
      <point x="975" y="46" type="line"/>
      <point x="975" y="140" type="line"/>
    </contour>
    <contour>
      <point x="855" y="281" type="line"/>
      <point x="855" y="262" type="line"/>
      <point x="837" y="234"/>
      <point x="797" y="191"/>
      <point x="765" y="165" type="curve"/>
      <point x="780" y="151"/>
      <point x="807" y="122"/>
      <point x="819" y="104" type="curve"/>
      <point x="871" y="138"/>
      <point x="928" y="186"/>
      <point x="972" y="230" type="curve"/>
      <point x="906" y="287" type="line"/>
      <point x="883" y="281" type="line"/>
    </contour>
    <contour>
      <point x="765" y="165" type="line"/>
      <point x="765" y="18" type="line" smooth="yes"/>
      <point x="765" y="9"/>
      <point x="762" y="6"/>
      <point x="752" y="6" type="curve" smooth="yes"/>
      <point x="743" y="6"/>
      <point x="712" y="6"/>
      <point x="687" y="7" type="curve"/>
      <point x="700" y="-21"/>
      <point x="713" y="-60"/>
      <point x="717" y="-91" type="curve"/>
      <point x="770" y="-91"/>
      <point x="810" y="-90"/>
      <point x="842" y="-76" type="curve" smooth="yes"/>
      <point x="875" y="-60"/>
      <point x="882" y="-35"/>
      <point x="882" y="14" type="curve" smooth="yes"/>
      <point x="882" y="165" type="line"/>
    </contour>
    <contour>
      <point x="45" y="763" type="line"/>
      <point x="99" y="724"/>
      <point x="170" y="666"/>
      <point x="201" y="627" type="curve"/>
      <point x="297" y="728" type="line"/>
      <point x="261" y="766"/>
      <point x="188" y="818"/>
      <point x="134" y="853" type="curve"/>
    </contour>
    <contour>
      <point x="13" y="505" type="line"/>
      <point x="73" y="471"/>
      <point x="154" y="418"/>
      <point x="192" y="382" type="curve"/>
      <point x="276" y="493" type="line"/>
      <point x="235" y="527"/>
      <point x="151" y="575"/>
      <point x="93" y="604" type="curve"/>
    </contour>
    <contour>
      <point x="32" y="-20" type="curve"/>
      <point x="158" y="-91" type="line"/>
      <point x="201" y="20"/>
      <point x="245" y="146"/>
      <point x="281" y="266" type="curve"/>
      <point x="169" y="339" type="line"/>
      <point x="128" y="207"/>
      <point x="73" y="68"/>
    </contour>
  </outline>
</glyph>
<glyph name="uni731B" format="2">
  <advance height="1000" width="1000"/>
  <unicode hex="731B"/>
  <outline>
    <contour>
      <point x="420" y="820" type="line"/>
      <point x="420" y="700" type="line"/>
      <point x="808" y="700" type="line"/>
      <point x="808" y="820" type="line"/>
    </contour>
    <contour>
      <point x="352" y="616" type="line"/>
      <point x="352" y="494" type="line"/>
      <point x="965" y="494" type="line"/>
      <point x="965" y="616" type="line"/>
    </contour>
    <contour>
      <point x="324" y="52" type="line"/>
      <point x="324" y="-74" type="line"/>
      <point x="973" y="-74" type="line"/>
      <point x="973" y="52" type="line"/>
    </contour>
    <contour>
      <point x="593" y="659" type="line"/>
      <point x="593" y="459" type="line" smooth="yes"/>
      <point x="593" y="447"/>
      <point x="588" y="445"/>
      <point x="573" y="444" type="curve"/>
      <point x="558" y="444"/>
      <point x="502" y="444"/>
      <point x="462" y="446" type="curve"/>
      <point x="482" y="414"/>
      <point x="509" y="362"/>
      <point x="518" y="325" type="curve"/>
      <point x="582" y="325"/>
      <point x="634" y="327"/>
      <point x="678" y="345" type="curve" smooth="yes"/>
      <point x="723" y="364"/>
      <point x="736" y="394"/>
      <point x="736" y="455" type="curve" smooth="yes"/>
      <point x="736" y="659" type="line"/>
    </contour>
    <contour>
      <point x="756" y="820" type="line"/>
      <point x="756" y="795" type="line"/>
      <point x="725" y="756"/>
      <point x="655" y="694"/>
      <point x="593" y="659" type="curve"/>
      <point x="610" y="642"/>
      <point x="643" y="608"/>
      <point x="657" y="587" type="curve"/>
      <point x="747" y="630"/>
      <point x="835" y="696"/>
      <point x="903" y="757" type="curve"/>
      <point x="821" y="827" type="line"/>
      <point x="791" y="820" type="line"/>
    </contour>
    <contour>
      <point x="381" y="313" type="line"/>
      <point x="381" y="15" type="line"/>
      <point x="500" y="15" type="line"/>
      <point x="500" y="199" type="line"/>
      <point x="533" y="199" type="line"/>
      <point x="533" y="15" type="line"/>
      <point x="633" y="15" type="line"/>
      <point x="633" y="199" type="line"/>
      <point x="667" y="199" type="line"/>
      <point x="667" y="15" type="line"/>
      <point x="767" y="15" type="line"/>
      <point x="767" y="199" type="line"/>
      <point x="801" y="199" type="line"/>
      <point x="801" y="15" type="line"/>
      <point x="927" y="15" type="line"/>
      <point x="927" y="313" type="line"/>
    </contour>
    <contour>
      <point x="24" y="776" type="line"/>
      <point x="171" y="641"/>
      <point x="197" y="496"/>
      <point x="197" y="307" type="curve" smooth="yes"/>
      <point x="197" y="187"/>
      <point x="190" y="84"/>
      <point x="171" y="59" type="curve" smooth="yes"/>
      <point x="164" y="49"/>
      <point x="155" y="44"/>
      <point x="142" y="42" type="curve" smooth="yes"/>
      <point x="125" y="40"/>
      <point x="96" y="40"/>
      <point x="55" y="43" type="curve"/>
      <point x="79" y="2"/>
      <point x="89" y="-49"/>
      <point x="89" y="-95" type="curve"/>
      <point x="133" y="-97"/>
      <point x="174" y="-96"/>
      <point x="212" y="-85" type="curve" smooth="yes"/>
      <point x="236" y="-79"/>
      <point x="260" y="-64"/>
      <point x="275" y="-42" type="curve" smooth="yes"/>
      <point x="323" y="25"/>
      <point x="333" y="166"/>
      <point x="333" y="304" type="curve" smooth="yes"/>
      <point x="333" y="505"/>
      <point x="309" y="685"/>
      <point x="125" y="851" type="curve"/>
    </contour>
    <contour>
      <point x="208" y="480" type="line"/>
      <point x="167" y="399"/>
      <point x="84" y="304"/>
      <point x="11" y="257" type="curve"/>
      <point x="43" y="231"/>
      <point x="82" y="184"/>
      <point x="104" y="150" type="curve"/>
      <point x="179" y="215"/>
      <point x="266" y="327"/>
      <point x="312" y="418" type="curve"/>
    </contour>
    <contour>
      <point x="244" y="844" type="line"/>
      <point x="192" y="738"/>
      <point x="104" y="624"/>
      <point x="12" y="558" type="curve"/>
      <point x="43" y="535"/>
      <point x="89" y="492"/>
      <point x="110" y="463" type="curve"/>
      <point x="207" y="539"/>
      <point x="304" y="658"/>
      <point x="371" y="782" type="curve"/>
    </contour>
  </outline>
</glyph>
<glyph name="uni7C7D" format="2">
  <advance height="1000" width="1000"/>
  <unicode hex="7C7D"/>
  <outline>
    <contour>
      <point x="171" y="856" type="line"/>
      <point x="171" y="-94" type="line"/>
      <point x="308" y="-94" type="line"/>
      <point x="308" y="856" type="line"/>
    </contour>
    <contour>
      <point x="33" y="516" type="line"/>
      <point x="33" y="381" type="line"/>
      <point x="430" y="381" type="line"/>
      <point x="430" y="516" type="line"/>
    </contour>
    <contour>
      <point x="164" y="448" type="line"/>
      <point x="137" y="356"/>
      <point x="77" y="232"/>
      <point x="14" y="160" type="curve"/>
      <point x="36" y="119"/>
      <point x="68" y="54"/>
      <point x="81" y="9" type="curve"/>
      <point x="156" y="104"/>
      <point x="218" y="274"/>
      <point x="253" y="409" type="curve"/>
    </contour>
    <contour>
      <point x="296" y="382" type="curve"/>
      <point x="228" y="317" type="line"/>
      <point x="266" y="268"/>
      <point x="332" y="173"/>
      <point x="364" y="114" type="curve"/>
      <point x="445" y="231" type="line"/>
      <point x="423" y="256"/>
      <point x="325" y="358"/>
    </contour>
    <contour>
      <point x="29" y="766" type="line"/>
      <point x="52" y="694"/>
      <point x="68" y="598"/>
      <point x="70" y="537" type="curve"/>
      <point x="179" y="565" type="line"/>
      <point x="176" y="627"/>
      <point x="157" y="720"/>
      <point x="132" y="792" type="curve"/>
    </contour>
    <contour>
      <point x="341" y="800" type="line"/>
      <point x="331" y="729"/>
      <point x="308" y="630"/>
      <point x="287" y="566" type="curve"/>
      <point x="382" y="540" type="line"/>
      <point x="408" y="599"/>
      <point x="440" y="691"/>
      <point x="468" y="774" type="curve"/>
    </contour>
    <contour>
      <point x="471" y="798" type="line"/>
      <point x="471" y="667" type="line"/>
      <point x="854" y="667" type="line"/>
      <point x="854" y="798" type="line"/>
    </contour>
    <contour>
      <point x="442" y="434" type="line"/>
      <point x="442" y="296" type="line"/>
      <point x="974" y="296" type="line"/>
      <point x="974" y="434" type="line"/>
    </contour>
    <contour>
      <point x="633" y="571" type="line"/>
      <point x="633" y="64" type="line" smooth="yes"/>
      <point x="633" y="49"/>
      <point x="627" y="45"/>
      <point x="610" y="44" type="curve"/>
      <point x="593" y="44"/>
      <point x="533" y="44"/>
      <point x="488" y="47" type="curve"/>
      <point x="508" y="8"/>
      <point x="529" y="-52"/>
      <point x="536" y="-93" type="curve"/>
      <point x="616" y="-93"/>
      <point x="677" y="-90"/>
      <point x="723" y="-69" type="curve" smooth="yes"/>
      <point x="770" y="-47"/>
      <point x="784" y="-10"/>
      <point x="784" y="61" type="curve" smooth="yes"/>
      <point x="784" y="571" type="line"/>
    </contour>
    <contour>
      <point x="798" y="798" type="line"/>
      <point x="798" y="768" type="line"/>
      <point x="769" y="713"/>
      <point x="701" y="622"/>
      <point x="633" y="571" type="curve"/>
      <point x="654" y="552"/>
      <point x="693" y="514"/>
      <point x="711" y="489" type="curve"/>
      <point x="812" y="549"/>
      <point x="902" y="648"/>
      <point x="968" y="733" type="curve"/>
      <point x="871" y="805" type="line"/>
      <point x="838" y="798" type="line"/>
    </contour>
  </outline>
</glyph>
<glyph name="uni8014" format="2">
  <advance height="1000" width="1000"/>
  <unicode hex="8014"/>
  <outline>
    <contour>
      <point x="505" y="805" type="line"/>
      <point x="505" y="671" type="line"/>
      <point x="852" y="671" type="line"/>
      <point x="852" y="805" type="line"/>
    </contour>
    <contour>
      <point x="473" y="438" type="line"/>
      <point x="473" y="303" type="line"/>
      <point x="973" y="303" type="line"/>
      <point x="973" y="438" type="line"/>
    </contour>
    <contour>
      <point x="816" y="805" type="line"/>
      <point x="816" y="777" type="line"/>
      <point x="788" y="714"/>
      <point x="713" y="617"/>
      <point x="646" y="561" type="curve"/>
      <point x="673" y="539"/>
      <point x="715" y="495"/>
      <point x="736" y="466" type="curve"/>
      <point x="819" y="534"/>
      <point x="911" y="647"/>
      <point x="971" y="748" type="curve"/>
      <point x="875" y="813" type="line"/>
      <point x="848" y="805" type="line"/>
    </contour>
    <contour>
      <point x="646" y="561" type="line"/>
      <point x="646" y="63" type="line" smooth="yes"/>
      <point x="646" y="48"/>
      <point x="640" y="43"/>
      <point x="622" y="43" type="curve" smooth="yes"/>
      <point x="603" y="43"/>
      <point x="538" y="43"/>
      <point x="487" y="46" type="curve"/>
      <point x="507" y="7"/>
      <point x="528" y="-54"/>
      <point x="534" y="-94" type="curve"/>
      <point x="618" y="-95"/>
      <point x="684" y="-92"/>
      <point x="731" y="-71" type="curve" smooth="yes"/>
      <point x="779" y="-49"/>
      <point x="794" y="-13"/>
      <point x="794" y="60" type="curve" smooth="yes"/>
      <point x="794" y="561" type="line"/>
    </contour>
    <contour>
      <point x="34" y="428" type="line"/>
      <point x="34" y="304" type="line"/>
      <point x="453" y="304" type="line"/>
      <point x="453" y="428" type="line"/>
    </contour>
    <contour>
      <point x="62" y="595" type="line"/>
      <point x="62" y="474" type="line"/>
      <point x="436" y="474" type="line"/>
      <point x="436" y="595" type="line"/>
    </contour>
    <contour>
      <point x="183" y="856" type="line"/>
      <point x="183" y="-94" type="line"/>
      <point x="317" y="-94" type="line"/>
      <point x="317" y="856" type="line"/>
    </contour>
    <contour>
      <point x="193" y="381" type="line"/>
      <point x="159" y="291"/>
      <point x="86" y="176"/>
      <point x="13" y="109" type="curve"/>
      <point x="34" y="72"/>
      <point x="65" y="13"/>
      <point x="77" y="-27" type="curve"/>
      <point x="164" y="58"/>
      <point x="239" y="213"/>
      <point x="285" y="340" type="curve"/>
    </contour>
    <contour>
      <point x="305" y="298" type="curve"/>
      <point x="228" y="231" type="line"/>
      <point x="272" y="186"/>
      <point x="350" y="99"/>
      <point x="388" y="44" type="curve"/>
      <point x="474" y="155" type="line"/>
      <point x="448" y="179"/>
      <point x="340" y="274"/>
    </contour>
    <contour>
      <point x="399" y="798" type="line"/>
      <point x="302" y="767"/>
      <point x="156" y="743"/>
      <point x="25" y="730" type="curve"/>
      <point x="39" y="701"/>
      <point x="55" y="655"/>
      <point x="59" y="624" type="curve"/>
      <point x="195" y="633"/>
      <point x="355" y="654"/>
      <point x="478" y="689" type="curve"/>
    </contour>
  </outline>
</glyph>
<glyph name="uni806F" format="2">
  <advance height="1000" width="1000"/>
  <unicode hex="806F"/>
  <outline>
    <contour>
      <point x="554" y="520" type="curve"/>
      <point x="571" y="465"/>
      <point x="588" y="392"/>
      <point x="596" y="347" type="curve"/>
      <point x="596" y="347"/>
      <point x="680" y="372"/>
      <point x="680" y="372" type="curve"/>
      <point x="672" y="414"/>
      <point x="652" y="488"/>
      <point x="635" y="540" type="curve"/>
      <point x="635" y="540"/>
      <point x="554" y="520"/>
    </contour>
    <contour>
      <point x="413" y="545" type="curve"/>
      <point x="413" y="561"/>
      <point x="468" y="602"/>
      <point x="468" y="602" type="curve"/>
      <point x="468" y="602"/>
      <point x="468" y="605"/>
      <point x="468" y="605" type="curve"/>
      <point x="514" y="650"/>
      <point x="569" y="732"/>
      <point x="609" y="811" type="curve"/>
      <point x="609" y="811"/>
      <point x="508" y="854"/>
      <point x="508" y="854" type="curve"/>
      <point x="483" y="781"/>
      <point x="437" y="716"/>
      <point x="424" y="698" type="curve" smooth="yes"/>
      <point x="409" y="679"/>
      <point x="395" y="668"/>
      <point x="381" y="663" type="curve"/>
      <point x="381" y="663"/>
      <point x="413" y="545"/>
    </contour>
    <contour>
      <point x="413" y="545" type="curve"/>
      <point x="427" y="548"/>
      <point x="453" y="551"/>
      <point x="564" y="561" type="curve"/>
      <point x="564" y="561"/>
      <point x="577" y="646"/>
      <point x="577" y="646" type="curve"/>
      <point x="577" y="646"/>
      <point x="447" y="639"/>
      <point x="447" y="639" type="curve"/>
      <point x="447" y="639"/>
      <point x="412" y="609"/>
      <point x="412" y="609" type="curve"/>
      <point x="412" y="609"/>
      <point x="413" y="545"/>
    </contour>
    <contour>
      <point x="409" y="363" type="curve"/>
      <point x="409" y="377"/>
      <point x="466" y="415"/>
      <point x="466" y="415" type="curve"/>
      <point x="466" y="415"/>
      <point x="466" y="418"/>
      <point x="466" y="418" type="curve"/>
      <point x="535" y="481"/>
      <point x="613" y="580"/>
      <point x="677" y="683" type="curve"/>
      <point x="677" y="683"/>
      <point x="584" y="733"/>
      <point x="584" y="733" type="curve"/>
      <point x="535" y="637"/>
      <point x="462" y="545"/>
      <point x="439" y="521" type="curve" smooth="yes"/>
      <point x="417" y="497"/>
      <point x="399" y="481"/>
      <point x="380" y="476" type="curve"/>
      <point x="380" y="476"/>
      <point x="409" y="363"/>
    </contour>
    <contour>
      <point x="409" y="363" type="curve"/>
      <point x="428" y="367"/>
      <point x="459" y="371"/>
      <point x="659" y="394" type="curve"/>
      <point x="659" y="394"/>
      <point x="653" y="482"/>
      <point x="653" y="482" type="curve"/>
      <point x="653" y="482"/>
      <point x="445" y="462"/>
      <point x="445" y="462" type="curve"/>
      <point x="445" y="462"/>
      <point x="408" y="431"/>
      <point x="408" y="431" type="curve"/>
      <point x="408" y="431"/>
      <point x="409" y="363"/>
    </contour>
    <contour>
      <point x="854" y="523" type="curve"/>
      <point x="873" y="466"/>
      <point x="896" y="389"/>
      <point x="907" y="341" type="curve"/>
      <point x="907" y="341"/>
      <point x="988" y="373"/>
      <point x="988" y="373" type="curve"/>
      <point x="978" y="419"/>
      <point x="952" y="494"/>
      <point x="932" y="549" type="curve"/>
      <point x="932" y="549"/>
      <point x="854" y="523"/>
    </contour>
    <contour>
      <point x="686" y="553" type="curve"/>
      <point x="686" y="568"/>
      <point x="742" y="605"/>
      <point x="742" y="605" type="curve"/>
      <point x="742" y="605"/>
      <point x="742" y="608"/>
      <point x="742" y="608" type="curve"/>
      <point x="784" y="652"/>
      <point x="836" y="728"/>
      <point x="874" y="804" type="curve"/>
      <point x="874" y="804"/>
      <point x="786" y="851"/>
      <point x="786" y="851" type="curve"/>
      <point x="759" y="777"/>
      <point x="712" y="708"/>
      <point x="698" y="691" type="curve"/>
      <point x="685" y="673"/>
      <point x="670" y="662"/>
      <point x="656" y="659" type="curve"/>
      <point x="656" y="659"/>
      <point x="686" y="553"/>
    </contour>
    <contour>
      <point x="686" y="553" type="curve"/>
      <point x="699" y="556"/>
      <point x="725" y="558"/>
      <point x="838" y="568" type="curve"/>
      <point x="838" y="568"/>
      <point x="851" y="653"/>
      <point x="851" y="653" type="curve"/>
      <point x="851" y="653"/>
      <point x="720" y="646"/>
      <point x="720" y="646" type="curve"/>
      <point x="720" y="646"/>
      <point x="685" y="617"/>
      <point x="685" y="617" type="curve"/>
      <point x="685" y="617"/>
      <point x="686" y="553"/>
    </contour>
    <contour>
      <point x="704" y="359" type="curve"/>
      <point x="704" y="375"/>
      <point x="768" y="413"/>
      <point x="768" y="413" type="curve"/>
      <point x="768" y="413"/>
      <point x="768" y="414"/>
      <point x="768" y="414" type="curve"/>
      <point x="828" y="480"/>
      <point x="895" y="582"/>
      <point x="948" y="687" type="curve"/>
      <point x="948" y="687"/>
      <point x="858" y="735"/>
      <point x="858" y="735" type="curve"/>
      <point x="816" y="636"/>
      <point x="751" y="539"/>
      <point x="730" y="515" type="curve"/>
      <point x="711" y="488"/>
      <point x="693" y="472"/>
      <point x="675" y="468" type="curve"/>
      <point x="675" y="468"/>
      <point x="704" y="359"/>
    </contour>
    <contour>
      <point x="704" y="359" type="curve"/>
      <point x="722" y="364"/>
      <point x="753" y="370"/>
      <point x="952" y="407" type="curve"/>
      <point x="952" y="407"/>
      <point x="944" y="491"/>
      <point x="944" y="491" type="curve"/>
      <point x="944" y="491"/>
      <point x="738" y="461"/>
      <point x="738" y="461" type="curve"/>
      <point x="738" y="461"/>
      <point x="702" y="429"/>
      <point x="702" y="429" type="curve"/>
      <point x="702" y="429"/>
      <point x="704" y="359"/>
    </contour>
    <contour>
      <point x="40" y="820" type="curve"/>
      <point x="40" y="820"/>
      <point x="40" y="691"/>
      <point x="40" y="691" type="curve"/>
      <point x="40" y="691"/>
      <point x="419" y="691"/>
      <point x="419" y="691" type="curve"/>
      <point x="419" y="691"/>
      <point x="419" y="820"/>
      <point x="419" y="820" type="curve"/>
      <point x="419" y="820"/>
      <point x="40" y="820"/>
    </contour>
    <contour>
      <point x="158" y="605" type="curve"/>
      <point x="158" y="605"/>
      <point x="158" y="488"/>
      <point x="158" y="488" type="curve"/>
      <point x="158" y="488"/>
      <point x="330" y="488"/>
      <point x="330" y="488" type="curve"/>
      <point x="330" y="488"/>
      <point x="330" y="605"/>
      <point x="330" y="605" type="curve"/>
      <point x="330" y="605"/>
      <point x="158" y="605"/>
    </contour>
    <contour>
      <point x="444" y="194" type="curve"/>
      <point x="444" y="194"/>
      <point x="444" y="89"/>
      <point x="444" y="89" type="curve"/>
      <point x="444" y="89"/>
      <point x="593" y="89"/>
      <point x="593" y="89" type="curve"/>
      <point x="593" y="89"/>
      <point x="593" y="194"/>
      <point x="593" y="194" type="curve"/>
      <point x="593" y="194"/>
      <point x="444" y="194"/>
    </contour>
    <contour>
      <point x="760" y="194" type="curve"/>
      <point x="760" y="194"/>
      <point x="760" y="89"/>
      <point x="760" y="89" type="curve"/>
      <point x="760" y="89"/>
      <point x="909" y="89"/>
      <point x="909" y="89" type="curve"/>
      <point x="909" y="89"/>
      <point x="909" y="194"/>
      <point x="909" y="194" type="curve"/>
      <point x="909" y="194"/>
      <point x="760" y="194"/>
    </contour>
    <contour>
      <point x="158" y="403" type="curve"/>
      <point x="158" y="403"/>
      <point x="158" y="286"/>
      <point x="158" y="286" type="curve"/>
      <point x="158" y="286"/>
      <point x="330" y="286"/>
      <point x="330" y="286" type="curve"/>
      <point x="330" y="286"/>
      <point x="330" y="403"/>
      <point x="330" y="403" type="curve"/>
      <point x="330" y="403"/>
      <point x="158" y="403"/>
    </contour>
    <contour>
      <point x="81" y="750" type="curve"/>
      <point x="81" y="750"/>
      <point x="81" y="129"/>
      <point x="81" y="129" type="curve"/>
      <point x="81" y="129"/>
      <point x="199" y="129"/>
      <point x="199" y="129" type="curve"/>
      <point x="199" y="129"/>
      <point x="199" y="750"/>
      <point x="199" y="750" type="curve"/>
      <point x="199" y="750"/>
      <point x="81" y="750"/>
    </contour>
    <contour>
      <point x="255" y="751" type="curve"/>
      <point x="255" y="751"/>
      <point x="255" y="-95"/>
      <point x="255" y="-95" type="curve"/>
      <point x="255" y="-95"/>
      <point x="375" y="-95"/>
      <point x="375" y="-95" type="curve"/>
      <point x="375" y="-95"/>
      <point x="375" y="751"/>
      <point x="375" y="751" type="curve"/>
      <point x="375" y="751"/>
      <point x="255" y="751"/>
    </contour>
    <contour>
      <point x="688" y="351" type="curve"/>
      <point x="688" y="351"/>
      <point x="688" y="-95"/>
      <point x="688" y="-95" type="curve"/>
      <point x="688" y="-95"/>
      <point x="804" y="-95"/>
      <point x="804" y="-95" type="curve"/>
      <point x="804" y="-95"/>
      <point x="804" y="351"/>
      <point x="804" y="351" type="curve"/>
      <point x="804" y="351"/>
      <point x="688" y="351"/>
    </contour>
    <contour>
      <point x="407" y="324" type="curve"/>
      <point x="407" y="324"/>
      <point x="407" y="89"/>
      <point x="407" y="89" type="curve"/>
      <point x="407" y="89"/>
      <point x="510" y="89"/>
      <point x="510" y="89" type="curve"/>
      <point x="510" y="89"/>
      <point x="510" y="324"/>
      <point x="510" y="324" type="curve"/>
      <point x="510" y="324"/>
      <point x="407" y="324"/>
    </contour>
    <contour>
      <point x="840" y="324" type="curve"/>
      <point x="840" y="324"/>
      <point x="840" y="89"/>
      <point x="840" y="89" type="curve"/>
      <point x="840" y="89"/>
      <point x="947" y="89"/>
      <point x="947" y="89" type="curve"/>
      <point x="947" y="89"/>
      <point x="947" y="324"/>
      <point x="947" y="324" type="curve"/>
      <point x="947" y="324"/>
      <point x="840" y="324"/>
    </contour>
    <contour>
      <point x="19" y="162" type="curve"/>
      <point x="19" y="162"/>
      <point x="42" y="28"/>
      <point x="42" y="28" type="curve"/>
      <point x="126" y="43"/>
      <point x="227" y="62"/>
      <point x="322" y="81" type="curve"/>
      <point x="322" y="81"/>
      <point x="312" y="205"/>
      <point x="312" y="205" type="curve"/>
      <point x="205" y="188"/>
      <point x="95" y="171"/>
    </contour>
    <contour>
      <point x="544" y="350" type="curve"/>
      <point x="544" y="350"/>
      <point x="544" y="175"/>
      <point x="544" y="175" type="curve"/>
      <point x="544" y="99"/>
      <point x="529" y="33"/>
      <point x="427" y="-7" type="curve"/>
      <point x="450" y="-27"/>
      <point x="484" y="-74"/>
      <point x="496" y="-101" type="curve"/>
      <point x="637" y="-47"/>
      <point x="659" y="50"/>
      <point x="659" y="163" type="curve"/>
      <point x="659" y="163"/>
      <point x="659" y="350"/>
      <point x="659" y="350" type="curve"/>
      <point x="659" y="350"/>
      <point x="544" y="350"/>
    </contour>
  </outline>
</glyph>
<glyph name="uni896F" format="2">
  <advance height="1000" width="1000"/>
  <unicode hex="896F"/>
  <outline>
    <contour>
      <point x="746" y="553" type="line"/>
      <point x="825" y="553" type="line"/>
      <point x="825" y="510" type="line"/>
      <point x="746" y="510" type="line"/>
    </contour>
    <contour>
      <point x="746" y="404" type="line"/>
      <point x="825" y="404" type="line"/>
      <point x="825" y="360" type="line"/>
      <point x="746" y="360" type="line"/>
    </contour>
    <contour>
      <point x="746" y="701" type="line"/>
      <point x="825" y="701" type="line"/>
      <point x="825" y="658" type="line"/>
      <point x="746" y="658" type="line"/>
    </contour>
    <contour>
      <point x="634" y="820" type="line"/>
      <point x="634" y="242" type="line"/>
      <point x="943" y="242" type="line"/>
      <point x="943" y="820" type="line"/>
    </contour>
    <contour>
      <point x="659" y="258" type="line"/>
      <point x="658" y="112"/>
      <point x="650" y="48"/>
      <point x="552" y="4" type="curve"/>
      <point x="578" y="-19"/>
      <point x="610" y="-66"/>
      <point x="621" y="-96" type="curve"/>
      <point x="749" y="-33"/>
      <point x="766" y="72"/>
      <point x="768" y="258" type="curve"/>
    </contour>
    <contour>
      <point x="310" y="755" type="line"/>
      <point x="310" y="644" type="line"/>
      <point x="612" y="644" type="line"/>
      <point x="612" y="755" type="line"/>
    </contour>
    <contour>
      <point x="323" y="508" type="line"/>
      <point x="323" y="395" type="line"/>
      <point x="612" y="395" type="line"/>
      <point x="612" y="508" type="line"/>
    </contour>
    <contour>
      <point x="315" y="354" type="line"/>
      <point x="315" y="243" type="line"/>
      <point x="613" y="243" type="line"/>
      <point x="613" y="354" type="line"/>
    </contour>
    <contour>
      <point x="319" y="620" type="line"/>
      <point x="336" y="581"/>
      <point x="352" y="528"/>
      <point x="356" y="494" type="curve"/>
      <point x="456" y="532" type="line"/>
      <point x="450" y="565"/>
      <point x="433" y="616"/>
      <point x="414" y="653" type="curve"/>
    </contour>
    <contour>
      <point x="504" y="652" type="line"/>
      <point x="494" y="602"/>
      <point x="473" y="532"/>
      <point x="456" y="486" type="curve"/>
      <point x="543" y="455" type="line"/>
      <point x="563" y="497"/>
      <point x="587" y="559"/>
      <point x="613" y="618" type="curve"/>
    </contour>
    <contour>
      <point x="787" y="256" type="line"/>
      <point x="787" y="35" type="line" smooth="yes"/>
      <point x="787" y="-23"/>
      <point x="791" y="-39"/>
      <point x="806" y="-57" type="curve" smooth="yes"/>
      <point x="821" y="-74"/>
      <point x="844" y="-82"/>
      <point x="868" y="-82" type="curve" smooth="yes"/>
      <point x="880" y="-82"/>
      <point x="895" y="-82"/>
      <point x="909" y="-82" type="curve" smooth="yes"/>
      <point x="926" y="-82"/>
      <point x="944" y="-77"/>
      <point x="956" y="-67" type="curve" smooth="yes"/>
      <point x="969" y="-57"/>
      <point x="978" y="-44"/>
      <point x="984" y="-25" type="curve" smooth="yes"/>
      <point x="990" y="-5"/>
      <point x="994" y="39"/>
      <point x="996" y="80" type="curve"/>
      <point x="971" y="88"/>
      <point x="940" y="106"/>
      <point x="923" y="121" type="curve"/>
      <point x="923" y="89"/>
      <point x="921" y="63"/>
      <point x="920" y="51" type="curve"/>
      <point x="918" y="44"/>
      <point x="917" y="39"/>
      <point x="915" y="36" type="curve"/>
      <point x="914" y="34"/>
      <point x="911" y="32"/>
      <point x="908" y="32" type="curve" smooth="yes"/>
      <point x="906" y="32"/>
      <point x="905" y="32"/>
      <point x="904" y="32" type="curve" smooth="yes"/>
      <point x="901" y="32"/>
      <point x="898" y="34"/>
      <point x="897" y="38" type="curve"/>
      <point x="896" y="41"/>
      <point x="896" y="46"/>
      <point x="896" y="50" type="curve" smooth="yes"/>
      <point x="896" y="256" type="line"/>
    </contour>
    <contour>
      <point x="374" y="827" type="line"/>
      <point x="397" y="796"/>
      <point x="421" y="752"/>
      <point x="430" y="723" type="curve"/>
      <point x="539" y="769" type="line"/>
      <point x="528" y="797"/>
      <point x="503" y="836"/>
      <point x="479" y="865" type="curve"/>
    </contour>
    <contour>
      <point x="435" y="234" type="line"/>
      <point x="489" y="179"/>
      <point x="549" y="100"/>
      <point x="576" y="49" type="curve"/>
      <point x="655" y="128" type="line"/>
      <point x="626" y="178"/>
      <point x="565" y="250"/>
      <point x="509" y="304" type="curve"/>
    </contour>
    <contour>
      <point x="392" y="290" type="line"/>
      <point x="359" y="207"/>
      <point x="302" y="122"/>
      <point x="240" y="68" type="curve"/>
      <point x="266" y="49"/>
      <point x="309" y="5"/>
      <point x="327" y="-17" type="curve"/>
      <point x="394" y="49"/>
      <point x="463" y="155"/>
      <point x="505" y="257" type="curve"/>
    </contour>
    <contour>
      <point x="410" y="440" type="line"/>
      <point x="410" y="-87" type="line"/>
      <point x="523" y="-87" type="line"/>
      <point x="523" y="440" type="line"/>
    </contour>
    <contour>
      <point x="116" y="339" type="line"/>
      <point x="116" y="-93" type="line"/>
      <point x="233" y="-93" type="line"/>
      <point x="233" y="478" type="line"/>
    </contour>
    <contour>
      <point x="40" y="700" type="line"/>
      <point x="40" y="575" type="line"/>
      <point x="216" y="575" type="line"/>
      <point x="216" y="700" type="line"/>
    </contour>
    <contour>
      <point x="219" y="467" type="curve"/>
      <point x="158" y="410" type="line"/>
      <point x="187" y="366"/>
      <point x="245" y="266"/>
      <point x="270" y="211" type="curve"/>
      <point x="338" y="306" type="line"/>
      <point x="321" y="331"/>
      <point x="242" y="442"/>
    </contour>
    <contour>
      <point x="191" y="700" type="line"/>
      <point x="191" y="675" type="line"/>
      <point x="160" y="552"/>
      <point x="87" y="396"/>
      <point x="12" y="312" type="curve"/>
      <point x="31" y="288"/>
      <point x="64" y="219"/>
      <point x="75" y="183" type="curve"/>
      <point x="163" y="292"/>
      <point x="256" y="483"/>
      <point x="305" y="658" type="curve"/>
      <point x="238" y="705" type="line"/>
      <point x="216" y="700" type="line"/>
    </contour>
    <contour>
      <point x="277" y="525" type="line"/>
      <point x="263" y="490"/>
      <point x="235" y="438"/>
      <point x="216" y="407" type="curve"/>
      <point x="272" y="360" type="line"/>
      <point x="295" y="386"/>
      <point x="321" y="428"/>
      <point x="354" y="465" type="curve"/>
    </contour>
    <contour>
      <point x="87" y="826" type="line"/>
      <point x="104" y="782"/>
      <point x="124" y="722"/>
      <point x="132" y="684" type="curve"/>
      <point x="245" y="722" type="line"/>
      <point x="235" y="759"/>
      <point x="214" y="815"/>
      <point x="195" y="859" type="curve"/>
    </contour>
  </outline>
</glyph>
<glyph name="uni917C" format="2">
  <advance height="1000" width="1000"/>
  <unicode hex="917C"/>
  <outline>
    <contour>
      <point x="47" y="625" type="curve"/>
      <point x="47" y="625"/>
      <point x="47" y="-87"/>
      <point x="47" y="-87" type="curve"/>
      <point x="47" y="-87"/>
      <point x="145" y="-87"/>
      <point x="145" y="-87" type="curve"/>
      <point x="145" y="-87"/>
      <point x="145" y="509"/>
      <point x="145" y="509" type="curve"/>
      <point x="145" y="509"/>
      <point x="338" y="509"/>
      <point x="338" y="509" type="curve"/>
      <point x="338" y="509"/>
      <point x="338" y="-73"/>
      <point x="338" y="-73" type="curve"/>
      <point x="338" y="-73"/>
      <point x="441" y="-73"/>
      <point x="441" y="-73" type="curve"/>
      <point x="441" y="-73"/>
      <point x="441" y="625"/>
      <point x="441" y="625" type="curve"/>
      <point x="441" y="625"/>
      <point x="47" y="625"/>
    </contour>
    <contour>
      <point x="171" y="227" type="curve"/>
      <point x="171" y="227"/>
      <point x="171" y="127"/>
      <point x="171" y="127" type="curve"/>
      <point x="171" y="127"/>
      <point x="312" y="127"/>
      <point x="312" y="127" type="curve"/>
      <point x="312" y="127"/>
      <point x="312" y="227"/>
      <point x="312" y="227" type="curve"/>
      <point x="312" y="227"/>
      <point x="171" y="227"/>
    </contour>
    <contour>
      <point x="93" y="78" type="curve"/>
      <point x="93" y="78"/>
      <point x="93" y="-31"/>
      <point x="93" y="-31" type="curve"/>
      <point x="93" y="-31"/>
      <point x="382" y="-31"/>
      <point x="382" y="-31" type="curve"/>
      <point x="382" y="-31"/>
      <point x="382" y="78"/>
      <point x="382" y="78" type="curve"/>
      <point x="382" y="78"/>
      <point x="93" y="78"/>
    </contour>
    <contour>
      <point x="40" y="817" type="curve"/>
      <point x="40" y="817"/>
      <point x="40" y="706"/>
      <point x="40" y="706" type="curve"/>
      <point x="40" y="706"/>
      <point x="450" y="706"/>
      <point x="450" y="706" type="curve"/>
      <point x="450" y="706"/>
      <point x="450" y="817"/>
      <point x="450" y="817" type="curve"/>
      <point x="450" y="817"/>
      <point x="40" y="817"/>
    </contour>
    <contour>
      <point x="142" y="780" type="curve"/>
      <point x="142" y="780"/>
      <point x="142" y="523"/>
      <point x="142" y="523" type="curve"/>
      <point x="142" y="523"/>
      <point x="228" y="523"/>
      <point x="228" y="523" type="curve"/>
      <point x="228" y="523"/>
      <point x="228" y="780"/>
      <point x="228" y="780" type="curve"/>
      <point x="228" y="780"/>
      <point x="142" y="780"/>
    </contour>
    <contour>
      <point x="251" y="780" type="curve"/>
      <point x="251" y="780"/>
      <point x="251" y="523"/>
      <point x="251" y="523" type="curve"/>
      <point x="251" y="523"/>
      <point x="341" y="523"/>
      <point x="341" y="523" type="curve"/>
      <point x="341" y="523"/>
      <point x="341" y="780"/>
      <point x="341" y="780" type="curve"/>
      <point x="341" y="780"/>
      <point x="251" y="780"/>
    </contour>
    <contour>
      <point x="166" y="524" type="curve"/>
      <point x="166" y="524"/>
      <point x="166" y="422"/>
      <point x="166" y="422" type="curve"/>
      <point x="166" y="381"/>
      <point x="164" y="333"/>
      <point x="133" y="294" type="curve"/>
      <point x="147" y="286"/>
      <point x="173" y="264"/>
      <point x="183" y="252" type="curve"/>
      <point x="221" y="298"/>
      <point x="229" y="368"/>
      <point x="229" y="421" type="curve"/>
      <point x="229" y="421"/>
      <point x="229" y="524"/>
      <point x="229" y="524" type="curve"/>
      <point x="229" y="524"/>
      <point x="166" y="524"/>
    </contour>
    <contour>
      <point x="251" y="524" type="curve"/>
      <point x="251" y="524"/>
      <point x="251" y="380"/>
      <point x="251" y="380" type="curve"/>
      <point x="251" y="314"/>
      <point x="265" y="298"/>
      <point x="319" y="298" type="curve" smooth="yes"/>
      <point x="329" y="298"/>
      <point x="355" y="298"/>
      <point x="365" y="298" type="curve" smooth="yes"/>
      <point x="402" y="298"/>
      <point x="422" y="311"/>
      <point x="430" y="344" type="curve"/>
      <point x="410" y="349"/>
      <point x="383" y="359"/>
      <point x="371" y="370" type="curve"/>
      <point x="369" y="367"/>
      <point x="366" y="366"/>
      <point x="355" y="366" type="curve" smooth="yes"/>
      <point x="349" y="366"/>
      <point x="332" y="366"/>
      <point x="327" y="366" type="curve" smooth="yes"/>
      <point x="316" y="366"/>
      <point x="315" y="367"/>
      <point x="315" y="382" type="curve"/>
      <point x="315" y="382"/>
      <point x="315" y="524"/>
      <point x="315" y="524" type="curve"/>
      <point x="315" y="524"/>
      <point x="251" y="524"/>
    </contour>
    <contour>
      <point x="455" y="751" type="curve"/>
      <point x="455" y="751"/>
      <point x="455" y="631"/>
      <point x="455" y="631" type="curve"/>
      <point x="455" y="631"/>
      <point x="973" y="631"/>
      <point x="973" y="631" type="curve"/>
      <point x="973" y="631"/>
      <point x="973" y="751"/>
      <point x="973" y="751" type="curve"/>
      <point x="973" y="751"/>
      <point x="455" y="751"/>
    </contour>
    <contour>
      <point x="739" y="585" type="curve"/>
      <point x="787" y="521"/>
      <point x="842" y="434"/>
      <point x="863" y="378" type="curve"/>
      <point x="863" y="378"/>
      <point x="981" y="432"/>
      <point x="981" y="432" type="curve"/>
      <point x="956" y="489"/>
      <point x="898" y="572"/>
      <point x="849" y="633" type="curve"/>
      <point x="849" y="633"/>
      <point x="739" y="585"/>
    </contour>
    <contour>
      <point x="593" y="826" type="curve"/>
      <point x="613" y="782"/>
      <point x="635" y="723"/>
      <point x="642" y="687" type="curve"/>
      <point x="642" y="687"/>
      <point x="777" y="726"/>
      <point x="777" y="726" type="curve"/>
      <point x="768" y="763"/>
      <point x="743" y="819"/>
      <point x="721" y="861" type="curve"/>
      <point x="721" y="861"/>
      <point x="593" y="826"/>
    </contour>
    <contour>
      <point x="471" y="407" type="curve"/>
      <point x="506" y="411"/>
      <point x="558" y="415"/>
      <point x="892" y="437" type="curve"/>
      <point x="892" y="437"/>
      <point x="880" y="545"/>
      <point x="880" y="545" type="curve"/>
      <point x="880" y="545"/>
      <point x="533" y="528"/>
      <point x="533" y="528" type="curve"/>
      <point x="533" y="528"/>
      <point x="469" y="490"/>
      <point x="469" y="490" type="curve"/>
      <point x="469" y="490"/>
      <point x="471" y="407"/>
    </contour>
    <contour>
      <point x="471" y="407" type="curve"/>
      <point x="471" y="429"/>
      <point x="607" y="475"/>
      <point x="607" y="475" type="curve"/>
      <point x="650" y="534"/>
      <point x="714" y="641"/>
      <point x="754" y="706" type="curve"/>
      <point x="754" y="706"/>
      <point x="608" y="706"/>
      <point x="608" y="706" type="curve"/>
      <point x="585" y="665"/>
      <point x="528" y="573"/>
      <point x="508" y="552" type="curve" smooth="yes"/>
      <point x="489" y="533"/>
      <point x="456" y="524"/>
      <point x="433" y="520" type="curve"/>
      <point x="433" y="520"/>
      <point x="471" y="407"/>
    </contour>
    <contour>
      <point x="629" y="372" type="curve"/>
      <point x="629" y="372"/>
      <point x="629" y="-51"/>
      <point x="629" y="-51" type="curve"/>
      <point x="629" y="-51"/>
      <point x="742" y="-51"/>
      <point x="742" y="-51" type="curve"/>
      <point x="742" y="-51"/>
      <point x="742" y="372"/>
      <point x="742" y="372" type="curve"/>
      <point x="742" y="372"/>
      <point x="629" y="372"/>
    </contour>
    <contour>
      <point x="764" y="376" type="curve"/>
      <point x="764" y="376"/>
      <point x="764" y="56"/>
      <point x="764" y="56" type="curve"/>
      <point x="764" y="-13"/>
      <point x="770" y="-35"/>
      <point x="787" y="-53" type="curve"/>
      <point x="802" y="-71"/>
      <point x="828" y="-79"/>
      <point x="852" y="-79" type="curve" smooth="yes"/>
      <point x="865" y="-79"/>
      <point x="881" y="-79"/>
      <point x="895" y="-79" type="curve" smooth="yes"/>
      <point x="913" y="-79"/>
      <point x="934" y="-75"/>
      <point x="947" y="-65" type="curve"/>
      <point x="961" y="-56"/>
      <point x="970" y="-41"/>
      <point x="977" y="-21" type="curve" smooth="yes"/>
      <point x="983" y="-2"/>
      <point x="987" y="46"/>
      <point x="989" y="88" type="curve"/>
      <point x="963" y="97"/>
      <point x="929" y="114"/>
      <point x="910" y="130" type="curve"/>
      <point x="910" y="93"/>
      <point x="909" y="63"/>
      <point x="907" y="49" type="curve"/>
      <point x="906" y="36"/>
      <point x="904" y="30"/>
      <point x="902" y="27" type="curve" smooth="yes"/>
      <point x="900" y="24"/>
      <point x="898" y="23"/>
      <point x="895" y="23" type="curve" smooth="yes"/>
      <point x="893" y="23"/>
      <point x="892" y="23"/>
      <point x="890" y="23" type="curve" smooth="yes"/>
      <point x="887" y="23"/>
      <point x="885" y="25"/>
      <point x="884" y="29" type="curve"/>
      <point x="883" y="32"/>
      <point x="883" y="41"/>
      <point x="883" y="56" type="curve"/>
      <point x="883" y="56"/>
      <point x="883" y="376"/>
      <point x="883" y="376" type="curve"/>
      <point x="883" y="376"/>
      <point x="764" y="376"/>
    </contour>
    <contour>
      <point x="491" y="372" type="curve"/>
      <point x="491" y="372"/>
      <point x="491" y="219"/>
      <point x="491" y="219" type="curve"/>
      <point x="491" y="141"/>
      <point x="481" y="57"/>
      <point x="411" y="-5" type="curve"/>
      <point x="439" y="-24"/>
      <point x="483" y="-65"/>
      <point x="503" y="-91" type="curve"/>
      <point x="595" y="-10"/>
      <point x="607" y="107"/>
      <point x="607" y="216" type="curve"/>
      <point x="607" y="216"/>
      <point x="607" y="372"/>
      <point x="607" y="372" type="curve"/>
      <point x="607" y="372"/>
      <point x="491" y="372"/>
    </contour>
  </outline>
</glyph>
<glyph name="uni9181" format="2">
  <advance height="1000" width="1000"/>
  <unicode hex="9181"/>
  <outline>
    <contour>
      <point x="54" y="632" type="curve"/>
      <point x="54" y="632"/>
      <point x="54" y="-93"/>
      <point x="54" y="-93" type="curve"/>
      <point x="54" y="-93"/>
      <point x="150" y="-93"/>
      <point x="150" y="-93" type="curve"/>
      <point x="150" y="-93"/>
      <point x="150" y="516"/>
      <point x="150" y="516" type="curve"/>
      <point x="150" y="516"/>
      <point x="340" y="516"/>
      <point x="340" y="516" type="curve"/>
      <point x="340" y="516"/>
      <point x="340" y="-78"/>
      <point x="340" y="-78" type="curve"/>
      <point x="340" y="-78"/>
      <point x="440" y="-78"/>
      <point x="440" y="-78" type="curve"/>
      <point x="440" y="-78"/>
      <point x="440" y="632"/>
      <point x="440" y="632" type="curve"/>
      <point x="440" y="632"/>
      <point x="54" y="632"/>
    </contour>
    <contour>
      <point x="166" y="235" type="curve"/>
      <point x="166" y="235"/>
      <point x="166" y="134"/>
      <point x="166" y="134" type="curve"/>
      <point x="166" y="134"/>
      <point x="324" y="134"/>
      <point x="324" y="134" type="curve"/>
      <point x="324" y="134"/>
      <point x="324" y="235"/>
      <point x="324" y="235" type="curve"/>
      <point x="324" y="235"/>
      <point x="166" y="235"/>
    </contour>
    <contour>
      <point x="92" y="83" type="curve"/>
      <point x="92" y="83"/>
      <point x="92" y="-28"/>
      <point x="92" y="-28" type="curve"/>
      <point x="92" y="-28"/>
      <point x="381" y="-28"/>
      <point x="381" y="-28" type="curve"/>
      <point x="381" y="-28"/>
      <point x="381" y="83"/>
      <point x="381" y="83" type="curve"/>
      <point x="381" y="83"/>
      <point x="92" y="83"/>
    </contour>
    <contour>
      <point x="42" y="818" type="curve"/>
      <point x="42" y="818"/>
      <point x="42" y="706"/>
      <point x="42" y="706" type="curve"/>
      <point x="42" y="706"/>
      <point x="443" y="706"/>
      <point x="443" y="706" type="curve"/>
      <point x="443" y="706"/>
      <point x="443" y="818"/>
      <point x="443" y="818" type="curve"/>
      <point x="443" y="818"/>
      <point x="42" y="818"/>
    </contour>
    <contour>
      <point x="144" y="781" type="curve"/>
      <point x="144" y="781"/>
      <point x="144" y="524"/>
      <point x="144" y="524" type="curve"/>
      <point x="144" y="524"/>
      <point x="236" y="524"/>
      <point x="236" y="524" type="curve"/>
      <point x="236" y="524"/>
      <point x="236" y="781"/>
      <point x="236" y="781" type="curve"/>
      <point x="236" y="781"/>
      <point x="144" y="781"/>
    </contour>
    <contour>
      <point x="255" y="781" type="curve"/>
      <point x="255" y="781"/>
      <point x="255" y="524"/>
      <point x="255" y="524" type="curve"/>
      <point x="255" y="524"/>
      <point x="347" y="524"/>
      <point x="347" y="524" type="curve"/>
      <point x="347" y="524"/>
      <point x="347" y="781"/>
      <point x="347" y="781" type="curve"/>
      <point x="347" y="781"/>
      <point x="255" y="781"/>
    </contour>
    <contour>
      <point x="168" y="525" type="curve"/>
      <point x="168" y="525"/>
      <point x="168" y="423"/>
      <point x="168" y="423" type="curve"/>
      <point x="168" y="381"/>
      <point x="166" y="334"/>
      <point x="135" y="295" type="curve"/>
      <point x="150" y="287"/>
      <point x="179" y="262"/>
      <point x="190" y="249" type="curve"/>
      <point x="230" y="296"/>
      <point x="237" y="366"/>
      <point x="237" y="421" type="curve"/>
      <point x="237" y="421"/>
      <point x="237" y="525"/>
      <point x="237" y="525" type="curve"/>
      <point x="237" y="525"/>
      <point x="168" y="525"/>
    </contour>
    <contour>
      <point x="255" y="525" type="curve"/>
      <point x="255" y="525"/>
      <point x="255" y="381"/>
      <point x="255" y="381" type="curve"/>
      <point x="255" y="312"/>
      <point x="269" y="294"/>
      <point x="321" y="294" type="curve" smooth="yes"/>
      <point x="330" y="294"/>
      <point x="343" y="294"/>
      <point x="352" y="294" type="curve" smooth="yes"/>
      <point x="388" y="294"/>
      <point x="409" y="308"/>
      <point x="418" y="343" type="curve"/>
      <point x="397" y="348"/>
      <point x="368" y="359"/>
      <point x="355" y="371" type="curve"/>
      <point x="353" y="368"/>
      <point x="351" y="367"/>
      <point x="341" y="367" type="curve" smooth="yes"/>
      <point x="338" y="367"/>
      <point x="333" y="367"/>
      <point x="331" y="367" type="curve" smooth="yes"/>
      <point x="324" y="367"/>
      <point x="323" y="368"/>
      <point x="323" y="383" type="curve"/>
      <point x="323" y="383"/>
      <point x="323" y="525"/>
      <point x="323" y="525" type="curve"/>
      <point x="323" y="525"/>
      <point x="255" y="525"/>
    </contour>
    <contour>
      <point x="453" y="519" type="curve"/>
      <point x="453" y="519"/>
      <point x="453" y="399"/>
      <point x="453" y="399" type="curve"/>
      <point x="453" y="399"/>
      <point x="967" y="399"/>
      <point x="967" y="399" type="curve"/>
      <point x="967" y="399"/>
      <point x="967" y="519"/>
      <point x="967" y="519" type="curve"/>
      <point x="967" y="519"/>
      <point x="453" y="519"/>
    </contour>
    <contour>
      <point x="644" y="451" type="curve"/>
      <point x="644" y="451"/>
      <point x="644" y="38"/>
      <point x="644" y="38" type="curve"/>
      <point x="644" y="27"/>
      <point x="640" y="24"/>
      <point x="629" y="24" type="curve" smooth="yes"/>
      <point x="617" y="24"/>
      <point x="581" y="24"/>
      <point x="549" y="25" type="curve"/>
      <point x="565" y="-8"/>
      <point x="583" y="-59"/>
      <point x="587" y="-94" type="curve"/>
      <point x="647" y="-94"/>
      <point x="692" y="-91"/>
      <point x="727" y="-72" type="curve" smooth="yes"/>
      <point x="763" y="-53"/>
      <point x="772" y="-21"/>
      <point x="772" y="36" type="curve"/>
      <point x="772" y="36"/>
      <point x="772" y="451"/>
      <point x="772" y="451" type="curve"/>
      <point x="772" y="451"/>
      <point x="644" y="451"/>
    </contour>
    <contour>
      <point x="580" y="803" type="curve"/>
      <point x="580" y="803"/>
      <point x="580" y="695"/>
      <point x="580" y="695" type="curve"/>
      <point x="580" y="695"/>
      <point x="833" y="695"/>
      <point x="833" y="695" type="curve"/>
      <point x="833" y="695"/>
      <point x="833" y="803"/>
      <point x="833" y="803" type="curve"/>
      <point x="833" y="803"/>
      <point x="580" y="803"/>
    </contour>
    <contour>
      <point x="559" y="660" type="curve"/>
      <point x="559" y="660"/>
      <point x="559" y="555"/>
      <point x="559" y="555" type="curve"/>
      <point x="559" y="555"/>
      <point x="807" y="555"/>
      <point x="807" y="555" type="curve"/>
      <point x="807" y="555"/>
      <point x="807" y="660"/>
      <point x="807" y="660" type="curve"/>
      <point x="807" y="660"/>
      <point x="559" y="660"/>
    </contour>
    <contour>
      <point x="554" y="855" type="curve"/>
      <point x="535" y="758"/>
      <point x="504" y="634"/>
      <point x="478" y="555" type="curve"/>
      <point x="478" y="555"/>
      <point x="604" y="555"/>
      <point x="604" y="555" type="curve"/>
      <point x="626" y="628"/>
      <point x="656" y="746"/>
      <point x="677" y="842" type="curve"/>
      <point x="677" y="842"/>
      <point x="554" y="855"/>
    </contour>
    <contour>
      <point x="799" y="803" type="curve"/>
      <point x="799" y="803"/>
      <point x="799" y="790"/>
      <point x="799" y="790" type="curve"/>
      <point x="786" y="718"/>
      <point x="758" y="586"/>
      <point x="732" y="486" type="curve"/>
      <point x="732" y="486"/>
      <point x="854" y="469"/>
      <point x="854" y="469" type="curve"/>
      <point x="879" y="568"/>
      <point x="907" y="690"/>
      <point x="925" y="794" type="curve"/>
      <point x="925" y="794"/>
      <point x="834" y="808"/>
      <point x="834" y="808" type="curve"/>
      <point x="834" y="808"/>
      <point x="813" y="803"/>
      <point x="813" y="803" type="curve"/>
      <point x="813" y="803"/>
      <point x="799" y="803"/>
    </contour>
    <contour>
      <point x="873" y="391" type="curve"/>
      <point x="851" y="352"/>
      <point x="809" y="297"/>
      <point x="779" y="264" type="curve"/>
      <point x="779" y="264"/>
      <point x="864" y="212"/>
      <point x="864" y="212" type="curve"/>
      <point x="897" y="242"/>
      <point x="938" y="287"/>
      <point x="979" y="332" type="curve"/>
      <point x="979" y="332"/>
      <point x="873" y="391"/>
    </contour>
    <contour>
      <point x="446" y="323" type="curve"/>
      <point x="480" y="287"/>
      <point x="525" y="236"/>
      <point x="545" y="204" type="curve"/>
      <point x="545" y="204"/>
      <point x="632" y="277"/>
      <point x="632" y="277" type="curve"/>
      <point x="610" y="308"/>
      <point x="563" y="355"/>
      <point x="529" y="389" type="curve"/>
      <point x="529" y="389"/>
      <point x="446" y="323"/>
    </contour>
    <contour>
      <point x="420" y="92" type="curve"/>
      <point x="420" y="92"/>
      <point x="489" y="-7"/>
      <point x="489" y="-7" type="curve"/>
      <point x="535" y="27"/>
      <point x="589" y="69"/>
      <point x="635" y="108" type="curve"/>
      <point x="635" y="108"/>
      <point x="590" y="207"/>
      <point x="590" y="207" type="curve"/>
      <point x="526" y="162"/>
      <point x="463" y="118"/>
    </contour>
    <contour>
      <point x="768" y="129" type="curve"/>
      <point x="816" y="87"/>
      <point x="885" y="28"/>
      <point x="917" y="-8" type="curve"/>
      <point x="917" y="-8"/>
      <point x="996" y="82"/>
      <point x="996" y="82" type="curve"/>
      <point x="961" y="116"/>
      <point x="890" y="171"/>
      <point x="843" y="208" type="curve"/>
      <point x="843" y="208"/>
      <point x="768" y="129"/>
    </contour>
  </outline>
</glyph>
<glyph name="uni919A" format="2">
  <advance height="1000" width="1000"/>
  <unicode hex="919A"/>
  <outline>
    <contour>
      <point x="46" y="615" type="curve"/>
      <point x="46" y="615"/>
      <point x="46" y="-93"/>
      <point x="46" y="-93" type="curve"/>
      <point x="46" y="-93"/>
      <point x="136" y="-93"/>
      <point x="136" y="-93" type="curve"/>
      <point x="136" y="-93"/>
      <point x="136" y="502"/>
      <point x="136" y="502" type="curve"/>
      <point x="136" y="502"/>
      <point x="308" y="502"/>
      <point x="308" y="502" type="curve"/>
      <point x="308" y="502"/>
      <point x="308" y="-72"/>
      <point x="308" y="-72" type="curve"/>
      <point x="308" y="-72"/>
      <point x="402" y="-72"/>
      <point x="402" y="-72" type="curve"/>
      <point x="402" y="-72"/>
      <point x="402" y="615"/>
      <point x="402" y="615" type="curve"/>
      <point x="402" y="615"/>
      <point x="46" y="615"/>
    </contour>
    <contour>
      <point x="150" y="234" type="curve"/>
      <point x="150" y="234"/>
      <point x="150" y="132"/>
      <point x="150" y="132" type="curve"/>
      <point x="150" y="132"/>
      <point x="294" y="132"/>
      <point x="294" y="132" type="curve"/>
      <point x="294" y="132"/>
      <point x="294" y="234"/>
      <point x="294" y="234" type="curve"/>
      <point x="294" y="234"/>
      <point x="150" y="234"/>
    </contour>
    <contour>
      <point x="88" y="82" type="curve"/>
      <point x="88" y="82"/>
      <point x="88" y="-25"/>
      <point x="88" y="-25" type="curve"/>
      <point x="88" y="-25"/>
      <point x="359" y="-25"/>
      <point x="359" y="-25" type="curve"/>
      <point x="359" y="-25"/>
      <point x="359" y="82"/>
      <point x="359" y="82" type="curve"/>
      <point x="359" y="82"/>
      <point x="88" y="82"/>
    </contour>
    <contour>
      <point x="30" y="818" type="curve"/>
      <point x="30" y="818"/>
      <point x="30" y="709"/>
      <point x="30" y="709" type="curve"/>
      <point x="30" y="709"/>
      <point x="418" y="709"/>
      <point x="418" y="709" type="curve"/>
      <point x="418" y="709"/>
      <point x="418" y="818"/>
      <point x="418" y="818" type="curve"/>
      <point x="418" y="818"/>
      <point x="30" y="818"/>
    </contour>
    <contour>
      <point x="127" y="780" type="curve"/>
      <point x="127" y="780"/>
      <point x="127" y="523"/>
      <point x="127" y="523" type="curve"/>
      <point x="127" y="523"/>
      <point x="210" y="523"/>
      <point x="210" y="523" type="curve"/>
      <point x="210" y="523"/>
      <point x="210" y="780"/>
      <point x="210" y="780" type="curve"/>
      <point x="210" y="780"/>
      <point x="127" y="780"/>
    </contour>
    <contour>
      <point x="229" y="780" type="curve"/>
      <point x="229" y="780"/>
      <point x="229" y="523"/>
      <point x="229" y="523" type="curve"/>
      <point x="229" y="523"/>
      <point x="312" y="523"/>
      <point x="312" y="523" type="curve"/>
      <point x="312" y="523"/>
      <point x="312" y="780"/>
      <point x="312" y="780" type="curve"/>
      <point x="312" y="780"/>
      <point x="229" y="780"/>
    </contour>
    <contour>
      <point x="157" y="532" type="curve"/>
      <point x="157" y="532"/>
      <point x="157" y="444"/>
      <point x="157" y="444" type="curve"/>
      <point x="157" y="401"/>
      <point x="155" y="347"/>
      <point x="128" y="302" type="curve"/>
      <point x="140" y="296"/>
      <point x="163" y="280"/>
      <point x="173" y="271" type="curve"/>
      <point x="204" y="320"/>
      <point x="210" y="392"/>
      <point x="210" y="443" type="curve"/>
      <point x="210" y="443"/>
      <point x="210" y="532"/>
      <point x="210" y="532" type="curve"/>
      <point x="210" y="532"/>
      <point x="157" y="532"/>
    </contour>
    <contour>
      <point x="229" y="532" type="curve"/>
      <point x="229" y="532"/>
      <point x="229" y="382"/>
      <point x="229" y="382" type="curve"/>
      <point x="229" y="322"/>
      <point x="242" y="308"/>
      <point x="285" y="308" type="curve" smooth="yes"/>
      <point x="293" y="308"/>
      <point x="303" y="308"/>
      <point x="311" y="308" type="curve" smooth="yes"/>
      <point x="343" y="308"/>
      <point x="360" y="321"/>
      <point x="368" y="350" type="curve"/>
      <point x="349" y="354"/>
      <point x="326" y="363"/>
      <point x="314" y="373" type="curve"/>
      <point x="312" y="371"/>
      <point x="311" y="370"/>
      <point x="301" y="370" type="curve" smooth="yes"/>
      <point x="298" y="370"/>
      <point x="295" y="370"/>
      <point x="293" y="370" type="curve" smooth="yes"/>
      <point x="287" y="370"/>
      <point x="286" y="371"/>
      <point x="286" y="384" type="curve"/>
      <point x="286" y="384"/>
      <point x="286" y="532"/>
      <point x="286" y="532" type="curve"/>
      <point x="286" y="532"/>
      <point x="229" y="532"/>
    </contour>
    <contour>
      <point x="427" y="279" type="curve"/>
      <point x="427" y="279"/>
      <point x="561" y="279"/>
      <point x="561" y="279" type="curve"/>
      <point x="561" y="279"/>
      <point x="561" y="398"/>
      <point x="561" y="398" type="curve"/>
      <point x="561" y="398"/>
      <point x="463" y="398"/>
      <point x="463" y="398" type="curve"/>
      <point x="463" y="398"/>
      <point x="427" y="366"/>
      <point x="427" y="366" type="curve"/>
      <point x="427" y="366"/>
      <point x="427" y="279"/>
    </contour>
    <contour>
      <point x="427" y="279" type="curve"/>
      <point x="427" y="303"/>
      <point x="510" y="340"/>
      <point x="510" y="340" type="curve"/>
      <point x="542" y="409"/>
      <point x="591" y="538"/>
      <point x="617" y="610" type="curve"/>
      <point x="617" y="610"/>
      <point x="539" y="631"/>
      <point x="539" y="631" type="curve"/>
      <point x="539" y="631"/>
      <point x="506" y="623"/>
      <point x="506" y="623" type="curve"/>
      <point x="506" y="623"/>
      <point x="506" y="619"/>
      <point x="506" y="619" type="curve"/>
      <point x="487" y="562"/>
      <point x="438" y="441"/>
      <point x="405" y="372" type="curve"/>
      <point x="405" y="372"/>
      <point x="427" y="279"/>
    </contour>
    <contour>
      <point x="414" y="627" type="curve"/>
      <point x="414" y="627"/>
      <point x="414" y="506"/>
      <point x="414" y="506" type="curve"/>
      <point x="414" y="506"/>
      <point x="546" y="506"/>
      <point x="546" y="506" type="curve"/>
      <point x="546" y="506"/>
      <point x="546" y="627"/>
      <point x="546" y="627" type="curve"/>
      <point x="546" y="627"/>
      <point x="414" y="627"/>
    </contour>
    <contour>
      <point x="510" y="398" type="curve"/>
      <point x="510" y="398"/>
      <point x="510" y="378"/>
      <point x="510" y="378" type="curve"/>
      <point x="494" y="191"/>
      <point x="448" y="58"/>
      <point x="372" y="-12" type="curve"/>
      <point x="394" y="-28"/>
      <point x="433" y="-72"/>
      <point x="450" y="-99" type="curve"/>
      <point x="539" y="-16"/>
      <point x="596" y="146"/>
      <point x="619" y="380" type="curve"/>
      <point x="619" y="380"/>
      <point x="576" y="401"/>
      <point x="576" y="401" type="curve"/>
      <point x="576" y="401"/>
      <point x="556" y="398"/>
      <point x="556" y="398" type="curve"/>
      <point x="556" y="398"/>
      <point x="510" y="398"/>
    </contour>
    <contour>
      <point x="602" y="542" type="curve"/>
      <point x="602" y="542"/>
      <point x="602" y="427"/>
      <point x="602" y="427" type="curve"/>
      <point x="602" y="427"/>
      <point x="961" y="427"/>
      <point x="961" y="427" type="curve"/>
      <point x="961" y="427"/>
      <point x="961" y="542"/>
      <point x="961" y="542" type="curve"/>
      <point x="961" y="542"/>
      <point x="602" y="542"/>
    </contour>
    <contour>
      <point x="729" y="849" type="curve"/>
      <point x="729" y="849"/>
      <point x="729" y="75"/>
      <point x="729" y="75" type="curve"/>
      <point x="729" y="75"/>
      <point x="835" y="75"/>
      <point x="835" y="75" type="curve"/>
      <point x="835" y="75"/>
      <point x="835" y="849"/>
      <point x="835" y="849" type="curve"/>
      <point x="835" y="849"/>
      <point x="729" y="849"/>
    </contour>
    <contour>
      <point x="585" y="775" type="curve"/>
      <point x="607" y="702"/>
      <point x="628" y="606"/>
      <point x="635" y="549" type="curve"/>
      <point x="635" y="549"/>
      <point x="736" y="578"/>
      <point x="736" y="578" type="curve"/>
      <point x="728" y="634"/>
      <point x="703" y="727"/>
      <point x="679" y="798" type="curve"/>
      <point x="679" y="798"/>
      <point x="585" y="775"/>
    </contour>
    <contour>
      <point x="867" y="803" type="curve"/>
      <point x="859" y="733"/>
      <point x="839" y="635"/>
      <point x="821" y="574" type="curve"/>
      <point x="821" y="574"/>
      <point x="913" y="550"/>
      <point x="913" y="550" type="curve"/>
      <point x="931" y="609"/>
      <point x="952" y="698"/>
      <point x="971" y="779" type="curve"/>
      <point x="971" y="779"/>
      <point x="867" y="803"/>
    </contour>
    <contour>
      <point x="716" y="490" type="curve"/>
      <point x="684" y="389"/>
      <point x="624" y="274"/>
      <point x="566" y="209" type="curve"/>
      <point x="592" y="189"/>
      <point x="630" y="149"/>
      <point x="650" y="123" type="curve"/>
      <point x="711" y="204"/>
      <point x="773" y="338"/>
      <point x="808" y="459" type="curve"/>
      <point x="808" y="459"/>
      <point x="716" y="490"/>
    </contour>
    <contour>
      <point x="767" y="431" type="curve"/>
      <point x="813" y="330"/>
      <point x="872" y="197"/>
      <point x="898" y="116" type="curve"/>
      <point x="898" y="116"/>
      <point x="988" y="185"/>
      <point x="988" y="185" type="curve"/>
      <point x="961" y="261"/>
      <point x="898" y="391"/>
      <point x="850" y="489" type="curve"/>
      <point x="850" y="489"/>
      <point x="767" y="431"/>
    </contour>
    <contour>
      <point x="412" y="805" type="curve"/>
      <point x="440" y="755"/>
      <point x="475" y="686"/>
      <point x="490" y="643" type="curve"/>
      <point x="490" y="643"/>
      <point x="600" y="687"/>
      <point x="600" y="687" type="curve"/>
      <point x="582" y="729"/>
      <point x="548" y="793"/>
      <point x="518" y="841" type="curve"/>
      <point x="518" y="841"/>
      <point x="412" y="805"/>
    </contour>
    <contour>
      <point x="556" y="170" type="curve"/>
      <point x="556" y="170"/>
      <point x="471" y="138"/>
      <point x="471" y="138" type="curve"/>
      <point x="526" y="-46"/>
      <point x="622" y="-79"/>
      <point x="771" y="-79" type="curve" smooth="yes"/>
      <point x="832" y="-79"/>
      <point x="897" y="-77"/>
      <point x="952" y="-74" type="curve"/>
      <point x="957" y="-39"/>
      <point x="972" y="21"/>
      <point x="988" y="49" type="curve"/>
      <point x="926" y="42"/>
      <point x="835" y="38"/>
      <point x="778" y="38" type="curve" smooth="yes"/>
      <point x="675" y="38"/>
      <point x="595" y="52"/>
    </contour>
  </outline>
</glyph>
<glyph name="uni91A1" format="2">
  <advance height="1000" width="1000"/>
  <unicode hex="91A1"/>
  <outline>
    <contour>
      <point x="618" y="835" type="curve"/>
      <point x="632" y="798"/>
      <point x="649" y="747"/>
      <point x="655" y="715" type="curve"/>
      <point x="655" y="715"/>
      <point x="796" y="751"/>
      <point x="796" y="751" type="curve"/>
      <point x="787" y="782"/>
      <point x="770" y="829"/>
      <point x="754" y="865" type="curve"/>
      <point x="754" y="865"/>
      <point x="618" y="835"/>
    </contour>
    <contour>
      <point x="719" y="679" type="curve"/>
      <point x="719" y="679"/>
      <point x="719" y="575"/>
      <point x="719" y="575" type="curve"/>
      <point x="719" y="498"/>
      <point x="738" y="466"/>
      <point x="831" y="466" type="curve" smooth="yes"/>
      <point x="848" y="466"/>
      <point x="886" y="466"/>
      <point x="902" y="466" type="curve" smooth="yes"/>
      <point x="925" y="466"/>
      <point x="951" y="467"/>
      <point x="966" y="473" type="curve"/>
      <point x="963" y="499"/>
      <point x="960" y="534"/>
      <point x="958" y="561" type="curve"/>
      <point x="944" y="556"/>
      <point x="915" y="554"/>
      <point x="899" y="554" type="curve" smooth="yes"/>
      <point x="887" y="554"/>
      <point x="855" y="554"/>
      <point x="844" y="554" type="curve" smooth="yes"/>
      <point x="829" y="554"/>
      <point x="827" y="563"/>
      <point x="827" y="583" type="curve"/>
      <point x="827" y="583"/>
      <point x="827" y="679"/>
      <point x="827" y="679" type="curve"/>
      <point x="827" y="679"/>
      <point x="719" y="679"/>
    </contour>
    <contour>
      <point x="625" y="352" type="curve"/>
      <point x="625" y="352"/>
      <point x="625" y="-94"/>
      <point x="625" y="-94" type="curve"/>
      <point x="625" y="-94"/>
      <point x="755" y="-94"/>
      <point x="755" y="-94" type="curve"/>
      <point x="755" y="-94"/>
      <point x="755" y="352"/>
      <point x="755" y="352" type="curve"/>
      <point x="755" y="352"/>
      <point x="625" y="352"/>
    </contour>
    <contour>
      <point x="450" y="778" type="curve"/>
      <point x="450" y="778"/>
      <point x="450" y="602"/>
      <point x="450" y="602" type="curve"/>
      <point x="450" y="602"/>
      <point x="557" y="602"/>
      <point x="557" y="602" type="curve"/>
      <point x="557" y="602"/>
      <point x="557" y="670"/>
      <point x="557" y="670" type="curve"/>
      <point x="557" y="670"/>
      <point x="852" y="670"/>
      <point x="852" y="670" type="curve"/>
      <point x="852" y="670"/>
      <point x="852" y="611"/>
      <point x="852" y="611" type="curve"/>
      <point x="852" y="611"/>
      <point x="964" y="611"/>
      <point x="964" y="611" type="curve"/>
      <point x="964" y="611"/>
      <point x="964" y="778"/>
      <point x="964" y="778" type="curve"/>
      <point x="964" y="778"/>
      <point x="450" y="778"/>
    </contour>
    <contour>
      <point x="563" y="512" type="curve"/>
      <point x="533" y="409"/>
      <point x="476" y="307"/>
      <point x="407" y="245" type="curve"/>
      <point x="435" y="228"/>
      <point x="485" y="192"/>
      <point x="507" y="172" type="curve"/>
      <point x="578" y="245"/>
      <point x="644" y="363"/>
      <point x="682" y="484" type="curve"/>
      <point x="682" y="484"/>
      <point x="563" y="512"/>
    </contour>
    <contour>
      <point x="601" y="405" type="curve"/>
      <point x="601" y="405"/>
      <point x="538" y="293"/>
      <point x="538" y="293" type="curve"/>
      <point x="538" y="293"/>
      <point x="975" y="293"/>
      <point x="975" y="293" type="curve"/>
      <point x="975" y="293"/>
      <point x="975" y="405"/>
      <point x="975" y="405" type="curve"/>
      <point x="975" y="405"/>
      <point x="601" y="405"/>
    </contour>
    <contour>
      <point x="679" y="263" type="curve"/>
      <point x="679" y="263"/>
      <point x="679" y="162"/>
      <point x="679" y="162" type="curve"/>
      <point x="679" y="162"/>
      <point x="941" y="162"/>
      <point x="941" y="162" type="curve"/>
      <point x="941" y="162"/>
      <point x="941" y="263"/>
      <point x="941" y="263" type="curve"/>
      <point x="941" y="263"/>
      <point x="679" y="263"/>
    </contour>
    <contour>
      <point x="671" y="130" type="curve"/>
      <point x="671" y="130"/>
      <point x="671" y="27"/>
      <point x="671" y="27" type="curve"/>
      <point x="671" y="27"/>
      <point x="946" y="27"/>
      <point x="946" y="27" type="curve"/>
      <point x="946" y="27"/>
      <point x="946" y="130"/>
      <point x="946" y="130" type="curve"/>
      <point x="946" y="130"/>
      <point x="671" y="130"/>
    </contour>
    <contour>
      <point x="589" y="678" type="curve"/>
      <point x="583" y="599"/>
      <point x="564" y="562"/>
      <point x="430" y="541" type="curve"/>
      <point x="452" y="519"/>
      <point x="480" y="475"/>
      <point x="490" y="447" type="curve"/>
      <point x="657" y="485"/>
      <point x="689" y="557"/>
      <point x="697" y="678" type="curve"/>
      <point x="697" y="678"/>
      <point x="589" y="678"/>
    </contour>
    <contour>
      <point x="51" y="626" type="curve"/>
      <point x="51" y="626"/>
      <point x="51" y="-86"/>
      <point x="51" y="-86" type="curve"/>
      <point x="51" y="-86"/>
      <point x="147" y="-86"/>
      <point x="147" y="-86" type="curve"/>
      <point x="147" y="-86"/>
      <point x="147" y="510"/>
      <point x="147" y="510" type="curve"/>
      <point x="147" y="510"/>
      <point x="329" y="510"/>
      <point x="329" y="510" type="curve"/>
      <point x="329" y="510"/>
      <point x="329" y="-72"/>
      <point x="329" y="-72" type="curve"/>
      <point x="329" y="-72"/>
      <point x="430" y="-72"/>
      <point x="430" y="-72" type="curve"/>
      <point x="430" y="-72"/>
      <point x="430" y="626"/>
      <point x="430" y="626" type="curve"/>
      <point x="430" y="626"/>
      <point x="51" y="626"/>
    </contour>
    <contour>
      <point x="167" y="228" type="curve"/>
      <point x="167" y="228"/>
      <point x="167" y="128"/>
      <point x="167" y="128" type="curve"/>
      <point x="167" y="128"/>
      <point x="309" y="128"/>
      <point x="309" y="128" type="curve"/>
      <point x="309" y="128"/>
      <point x="309" y="228"/>
      <point x="309" y="228" type="curve"/>
      <point x="309" y="228"/>
      <point x="167" y="228"/>
    </contour>
    <contour>
      <point x="89" y="79" type="curve"/>
      <point x="89" y="79"/>
      <point x="89" y="-30"/>
      <point x="89" y="-30" type="curve"/>
      <point x="89" y="-30"/>
      <point x="378" y="-30"/>
      <point x="378" y="-30" type="curve"/>
      <point x="378" y="-30"/>
      <point x="378" y="79"/>
      <point x="378" y="79" type="curve"/>
      <point x="378" y="79"/>
      <point x="89" y="79"/>
    </contour>
    <contour>
      <point x="39" y="818" type="curve"/>
      <point x="39" y="818"/>
      <point x="39" y="706"/>
      <point x="39" y="706" type="curve"/>
      <point x="39" y="706"/>
      <point x="440" y="706"/>
      <point x="440" y="706" type="curve"/>
      <point x="440" y="706"/>
      <point x="440" y="818"/>
      <point x="440" y="818" type="curve"/>
      <point x="440" y="818"/>
      <point x="39" y="818"/>
    </contour>
    <contour>
      <point x="142" y="781" type="curve"/>
      <point x="142" y="781"/>
      <point x="142" y="524"/>
      <point x="142" y="524" type="curve"/>
      <point x="142" y="524"/>
      <point x="227" y="524"/>
      <point x="227" y="524" type="curve"/>
      <point x="227" y="524"/>
      <point x="227" y="781"/>
      <point x="227" y="781" type="curve"/>
      <point x="227" y="781"/>
      <point x="142" y="781"/>
    </contour>
    <contour>
      <point x="248" y="781" type="curve"/>
      <point x="248" y="781"/>
      <point x="248" y="524"/>
      <point x="248" y="524" type="curve"/>
      <point x="248" y="524"/>
      <point x="335" y="524"/>
      <point x="335" y="524" type="curve"/>
      <point x="335" y="524"/>
      <point x="335" y="781"/>
      <point x="335" y="781" type="curve"/>
      <point x="335" y="781"/>
      <point x="248" y="781"/>
    </contour>
    <contour>
      <point x="167" y="525" type="curve"/>
      <point x="167" y="525"/>
      <point x="167" y="423"/>
      <point x="167" y="423" type="curve"/>
      <point x="167" y="382"/>
      <point x="165" y="334"/>
      <point x="134" y="295" type="curve"/>
      <point x="147" y="288"/>
      <point x="172" y="267"/>
      <point x="182" y="255" type="curve"/>
      <point x="220" y="301"/>
      <point x="227" y="370"/>
      <point x="227" y="422" type="curve"/>
      <point x="227" y="422"/>
      <point x="227" y="525"/>
      <point x="227" y="525" type="curve"/>
      <point x="227" y="525"/>
      <point x="167" y="525"/>
    </contour>
    <contour>
      <point x="248" y="525" type="curve"/>
      <point x="248" y="525"/>
      <point x="248" y="380"/>
      <point x="248" y="380" type="curve"/>
      <point x="248" y="316"/>
      <point x="261" y="300"/>
      <point x="309" y="300" type="curve" smooth="yes"/>
      <point x="318" y="300"/>
      <point x="330" y="300"/>
      <point x="339" y="300" type="curve" smooth="yes"/>
      <point x="373" y="300"/>
      <point x="392" y="313"/>
      <point x="400" y="345" type="curve"/>
      <point x="380" y="350"/>
      <point x="354" y="360"/>
      <point x="342" y="370" type="curve"/>
      <point x="340" y="368"/>
      <point x="338" y="367"/>
      <point x="328" y="367" type="curve" smooth="yes"/>
      <point x="325" y="367"/>
      <point x="320" y="367"/>
      <point x="318" y="367" type="curve" smooth="yes"/>
      <point x="312" y="367"/>
      <point x="311" y="368"/>
      <point x="311" y="382" type="curve"/>
      <point x="311" y="382"/>
      <point x="311" y="525"/>
      <point x="311" y="525" type="curve"/>
      <point x="311" y="525"/>
      <point x="248" y="525"/>
    </contour>
  </outline>
</glyph>
<glyph name="uni91A8" format="2">
  <advance height="1000" width="1000"/>
  <unicode hex="91A8"/>
  <outline>
    <contour>
      <point x="460" y="324" type="curve"/>
      <point x="460" y="324"/>
      <point x="460" y="213"/>
      <point x="460" y="213" type="curve"/>
      <point x="460" y="213"/>
      <point x="908" y="213"/>
      <point x="908" y="213" type="curve"/>
      <point x="908" y="213"/>
      <point x="908" y="324"/>
      <point x="908" y="324" type="curve"/>
      <point x="908" y="324"/>
      <point x="460" y="324"/>
    </contour>
    <contour>
      <point x="479" y="351" type="curve"/>
      <point x="479" y="351"/>
      <point x="479" y="-95"/>
      <point x="479" y="-95" type="curve"/>
      <point x="479" y="-95"/>
      <point x="593" y="-95"/>
      <point x="593" y="-95" type="curve"/>
      <point x="593" y="-95"/>
      <point x="593" y="351"/>
      <point x="593" y="351" type="curve"/>
      <point x="593" y="351"/>
      <point x="479" y="351"/>
    </contour>
    <contour>
      <point x="633" y="833" type="curve"/>
      <point x="647" y="794"/>
      <point x="663" y="741"/>
      <point x="668" y="709" type="curve"/>
      <point x="668" y="709"/>
      <point x="797" y="740"/>
      <point x="797" y="740" type="curve"/>
      <point x="789" y="771"/>
      <point x="771" y="822"/>
      <point x="755" y="859" type="curve"/>
      <point x="755" y="859"/>
      <point x="633" y="833"/>
    </contour>
    <contour>
      <point x="468" y="783" type="curve"/>
      <point x="468" y="783"/>
      <point x="468" y="670"/>
      <point x="468" y="670" type="curve"/>
      <point x="468" y="670"/>
      <point x="964" y="670"/>
      <point x="964" y="670" type="curve"/>
      <point x="964" y="670"/>
      <point x="964" y="783"/>
      <point x="964" y="783" type="curve"/>
      <point x="964" y="783"/>
      <point x="468" y="783"/>
    </contour>
    <contour>
      <point x="596" y="131" type="curve"/>
      <point x="596" y="131"/>
      <point x="613" y="39"/>
      <point x="613" y="39" type="curve"/>
      <point x="673" y="49"/>
      <point x="738" y="60"/>
      <point x="807" y="72" type="curve"/>
      <point x="807" y="72"/>
      <point x="804" y="149"/>
      <point x="804" y="149" type="curve"/>
      <point x="725" y="142"/>
      <point x="652" y="135"/>
    </contour>
    <contour>
      <point x="842" y="324" type="curve"/>
      <point x="842" y="324"/>
      <point x="842" y="27"/>
      <point x="842" y="27" type="curve"/>
      <point x="842" y="17"/>
      <point x="838" y="14"/>
      <point x="827" y="14" type="curve" smooth="yes"/>
      <point x="815" y="14"/>
      <point x="777" y="13"/>
      <point x="742" y="15" type="curve"/>
      <point x="757" y="-15"/>
      <point x="772" y="-61"/>
      <point x="776" y="-93" type="curve"/>
      <point x="834" y="-93"/>
      <point x="877" y="-92"/>
      <point x="910" y="-74" type="curve" smooth="yes"/>
      <point x="944" y="-56"/>
      <point x="952" y="-25"/>
      <point x="952" y="24" type="curve"/>
      <point x="952" y="24"/>
      <point x="952" y="324"/>
      <point x="952" y="324" type="curve"/>
      <point x="952" y="324"/>
      <point x="842" y="324"/>
    </contour>
    <contour>
      <point x="748" y="189" type="curve"/>
      <point x="763" y="140"/>
      <point x="777" y="74"/>
      <point x="780" y="35" type="curve"/>
      <point x="780" y="35"/>
      <point x="859" y="53"/>
      <point x="859" y="53" type="curve"/>
      <point x="855" y="91"/>
      <point x="840" y="155"/>
      <point x="823" y="203" type="curve"/>
      <point x="823" y="203"/>
      <point x="748" y="189"/>
    </contour>
    <contour>
      <point x="595" y="579" type="curve"/>
      <point x="655" y="544"/>
      <point x="733" y="492"/>
      <point x="770" y="456" type="curve"/>
      <point x="770" y="456"/>
      <point x="834" y="530"/>
      <point x="834" y="530" type="curve"/>
      <point x="795" y="565"/>
      <point x="716" y="614"/>
      <point x="656" y="646" type="curve"/>
      <point x="656" y="646"/>
      <point x="595" y="579"/>
    </contour>
    <contour>
      <point x="652" y="395" type="curve"/>
      <point x="647" y="305"/>
      <point x="631" y="181"/>
      <point x="614" y="102" type="curve"/>
      <point x="614" y="102"/>
      <point x="708" y="84"/>
      <point x="708" y="84" type="curve"/>
      <point x="730" y="158"/>
      <point x="756" y="277"/>
      <point x="776" y="379" type="curve"/>
      <point x="776" y="379"/>
      <point x="652" y="395"/>
    </contour>
    <contour>
      <point x="498" y="647" type="curve"/>
      <point x="498" y="647"/>
      <point x="498" y="366"/>
      <point x="498" y="366" type="curve"/>
      <point x="498" y="366"/>
      <point x="935" y="366"/>
      <point x="935" y="366" type="curve"/>
      <point x="935" y="366"/>
      <point x="935" y="647"/>
      <point x="935" y="647" type="curve"/>
      <point x="935" y="647"/>
      <point x="830" y="647"/>
      <point x="830" y="647" type="curve"/>
      <point x="830" y="647"/>
      <point x="830" y="461"/>
      <point x="830" y="461" type="curve"/>
      <point x="830" y="461"/>
      <point x="599" y="461"/>
      <point x="599" y="461" type="curve"/>
      <point x="599" y="461"/>
      <point x="599" y="647"/>
      <point x="599" y="647" type="curve"/>
      <point x="599" y="647"/>
      <point x="498" y="647"/>
    </contour>
    <contour>
      <point x="720" y="665" type="curve"/>
      <point x="695" y="607"/>
      <point x="650" y="551"/>
      <point x="599" y="513" type="curve"/>
      <point x="621" y="499"/>
      <point x="659" y="468"/>
      <point x="675" y="451" type="curve"/>
      <point x="729" y="496"/>
      <point x="783" y="566"/>
      <point x="814" y="638" type="curve"/>
      <point x="814" y="638"/>
      <point x="720" y="665"/>
    </contour>
    <contour>
      <point x="52" y="615" type="curve"/>
      <point x="52" y="615"/>
      <point x="52" y="-93"/>
      <point x="52" y="-93" type="curve"/>
      <point x="52" y="-93"/>
      <point x="149" y="-93"/>
      <point x="149" y="-93" type="curve"/>
      <point x="149" y="-93"/>
      <point x="149" y="502"/>
      <point x="149" y="502" type="curve"/>
      <point x="149" y="502"/>
      <point x="350" y="502"/>
      <point x="350" y="502" type="curve"/>
      <point x="350" y="502"/>
      <point x="350" y="-72"/>
      <point x="350" y="-72" type="curve"/>
      <point x="350" y="-72"/>
      <point x="452" y="-72"/>
      <point x="452" y="-72" type="curve"/>
      <point x="452" y="-72"/>
      <point x="452" y="615"/>
      <point x="452" y="615" type="curve"/>
      <point x="452" y="615"/>
      <point x="52" y="615"/>
    </contour>
    <contour>
      <point x="164" y="227" type="curve"/>
      <point x="164" y="227"/>
      <point x="164" y="120"/>
      <point x="164" y="120" type="curve"/>
      <point x="164" y="120"/>
      <point x="335" y="120"/>
      <point x="335" y="120" type="curve"/>
      <point x="335" y="120"/>
      <point x="335" y="227"/>
      <point x="335" y="227" type="curve"/>
      <point x="335" y="227"/>
      <point x="164" y="227"/>
    </contour>
    <contour>
      <point x="106" y="79" type="curve"/>
      <point x="106" y="79"/>
      <point x="106" y="-30"/>
      <point x="106" y="-30" type="curve"/>
      <point x="106" y="-30"/>
      <point x="395" y="-30"/>
      <point x="395" y="-30" type="curve"/>
      <point x="395" y="-30"/>
      <point x="395" y="79"/>
      <point x="395" y="79" type="curve"/>
      <point x="395" y="79"/>
      <point x="106" y="79"/>
    </contour>
    <contour>
      <point x="42" y="813" type="curve"/>
      <point x="42" y="813"/>
      <point x="42" y="700"/>
      <point x="42" y="700" type="curve"/>
      <point x="42" y="700"/>
      <point x="448" y="700"/>
      <point x="448" y="700" type="curve"/>
      <point x="448" y="700"/>
      <point x="448" y="813"/>
      <point x="448" y="813" type="curve"/>
      <point x="448" y="813"/>
      <point x="42" y="813"/>
    </contour>
    <contour>
      <point x="148" y="780" type="curve"/>
      <point x="148" y="780"/>
      <point x="148" y="523"/>
      <point x="148" y="523" type="curve"/>
      <point x="148" y="523"/>
      <point x="235" y="523"/>
      <point x="235" y="523" type="curve"/>
      <point x="235" y="523"/>
      <point x="235" y="780"/>
      <point x="235" y="780" type="curve"/>
      <point x="235" y="780"/>
      <point x="148" y="780"/>
    </contour>
    <contour>
      <point x="256" y="780" type="curve"/>
      <point x="256" y="780"/>
      <point x="256" y="523"/>
      <point x="256" y="523" type="curve"/>
      <point x="256" y="523"/>
      <point x="345" y="523"/>
      <point x="345" y="523" type="curve"/>
      <point x="345" y="523"/>
      <point x="345" y="780"/>
      <point x="345" y="780" type="curve"/>
      <point x="345" y="780"/>
      <point x="256" y="780"/>
    </contour>
    <contour>
      <point x="171" y="532" type="curve"/>
      <point x="171" y="532"/>
      <point x="171" y="440"/>
      <point x="171" y="440" type="curve"/>
      <point x="171" y="395"/>
      <point x="169" y="340"/>
      <point x="142" y="293" type="curve"/>
      <point x="157" y="287"/>
      <point x="186" y="267"/>
      <point x="198" y="255" type="curve"/>
      <point x="230" y="307"/>
      <point x="236" y="383"/>
      <point x="236" y="439" type="curve"/>
      <point x="236" y="439"/>
      <point x="236" y="532"/>
      <point x="236" y="532" type="curve"/>
      <point x="236" y="532"/>
      <point x="171" y="532"/>
    </contour>
    <contour>
      <point x="259" y="532" type="curve"/>
      <point x="259" y="532"/>
      <point x="259" y="384"/>
      <point x="259" y="384" type="curve"/>
      <point x="259" y="317"/>
      <point x="272" y="300"/>
      <point x="321" y="300" type="curve" smooth="yes"/>
      <point x="330" y="300"/>
      <point x="341" y="300"/>
      <point x="350" y="300" type="curve" smooth="yes"/>
      <point x="384" y="300"/>
      <point x="404" y="314"/>
      <point x="412" y="347" type="curve"/>
      <point x="392" y="352"/>
      <point x="365" y="362"/>
      <point x="352" y="374" type="curve"/>
      <point x="350" y="371"/>
      <point x="348" y="370"/>
      <point x="339" y="370" type="curve" smooth="yes"/>
      <point x="336" y="370"/>
      <point x="333" y="370"/>
      <point x="331" y="370" type="curve" smooth="yes"/>
      <point x="325" y="370"/>
      <point x="324" y="371"/>
      <point x="324" y="385" type="curve"/>
      <point x="324" y="385"/>
      <point x="324" y="532"/>
      <point x="324" y="532" type="curve"/>
      <point x="324" y="532"/>
      <point x="259" y="532"/>
    </contour>
  </outline>
</glyph>
